<?xml version="1.0" standalone="no"?>
<!DOCTYPE svg PUBLIC "-//W3C//DTD SVG 20010904//EN"
 "http://www.w3.org/TR/2001/REC-SVG-20010904/DTD/svg10.dtd">
<svg version="1.0" xmlns="http://www.w3.org/2000/svg"
 width="561.000000pt" height="561.000000pt" viewBox="0 0 561.000000 561.000000"
 preserveAspectRatio="xMidYMid meet">
<metadata>
Created by potrace 1.11, written by Peter Selinger 2001-2013
</metadata>
<g transform="translate(0.000000,561.000000) scale(0.100000,-0.100000)"
fill="#000000" stroke="none">
<path d="M3630 3842 c-72 -34 -145 -108 -178 -180 -34 -73 -41 -186 -18 -285
27 -116 125 -297 222 -411 19 -22 34 -49 34 -62 0 -12 8 -28 17 -35 15 -12 16
-12 8 1 -4 8 54 -46 131 -120 136 -133 287 -270 352 -320 31 -24 33 -29 43
-128 19 -199 97 -357 220 -447 75 -55 152 -84 256 -96 152 -17 284 21 385 110
91 81 181 247 225 415 19 74 19 73 105 106 36 14 70 36 92 60 58 64 69 96 70
190 1 76 -2 91 -28 138 -50 90 -127 132 -245 132 -150 0 -251 -108 -251 -269
0 -94 22 -143 93 -207 29 -25 55 -52 59 -59 11 -18 -29 -149 -73 -240 -97
-204 -257 -299 -438 -261 -96 20 -147 45 -208 100 -83 75 -152 235 -153 355 0
40 4 47 61 100 182 167 423 399 445 428 14 19 23 41 20 49 -3 9 12 36 37 67
90 110 185 284 213 389 7 29 14 94 14 145 0 76 -4 102 -24 146 -30 68 -110
149 -186 187 -54 27 -69 30 -154 30 -108 0 -169 -18 -250 -72 -27 -18 -67 -45
-90 -60 -63 -41 -66 -46 -66 -86 0 -48 14 -62 60 -62 41 0 65 20 75 63 8 31
33 50 125 98 57 29 75 33 140 33 92 0 156 -29 218 -99 79 -90 93 -201 42 -333
-55 -144 -196 -361 -233 -362 -11 0 -107 -87 -221 -197 -111 -109 -220 -213
-243 -231 l-41 -32 -50 40 c-69 54 -162 140 -319 293 -100 98 -136 127 -150
123 -15 -5 -32 13 -85 87 -121 169 -173 284 -184 408 -6 58 -3 74 18 121 35
75 79 122 150 158 71 35 133 39 213 14 56 -18 154 -80 165 -104 32 -72 35 -75
77 -78 50 -4 66 17 61 76 -2 30 -9 40 -34 52 -17 8 -53 31 -80 51 -108 80
-156 96 -286 97 -91 0 -109 -3 -158 -26z m1150 -875 c0 -2 -10 -12 -22 -23
l-23 -19 19 23 c18 21 26 27 26 19z m-940 -42 c13 -14 21 -25 18 -25 -2 0 -15
11 -28 25 -13 14 -21 25 -18 25 2 0 15 -11 28 -25z m1567 -116 c178 -86 124
-348 -72 -349 -97 0 -170 66 -182 167 -7 62 9 102 59 150 59 57 122 67 195 32z"/>
<path d="M2010 2795 l0 -945 329 0 c348 0 421 7 561 52 327 105 556 368 615
705 20 113 19 325 -1 444 -59 345 -251 555 -587 644 -144 38 -238 45 -589 45
l-328 0 0 -945z m780 711 c120 -28 247 -95 319 -166 67 -67 129 -180 157 -285
21 -81 29 -300 15 -395 -45 -294 -217 -493 -493 -570 -86 -24 -253 -40 -425
-40 l-123 0 0 741 0 741 238 -4 c180 -3 255 -9 312 -22z"/>
<path d="M0 2785 l0 -945 111 0 110 0 -3 790 c-3 666 -1 782 10 738 7 -28 161
-382 342 -787 l328 -736 63 0 62 0 331 745 c182 410 336 763 341 785 7 27 9
-217 7 -747 l-3 -788 115 0 116 0 0 945 0 946 -146 -3 -146 -3 -280 -620
c-154 -341 -306 -685 -338 -764 -44 -107 -61 -140 -66 -125 -31 89 -99 247
-359 837 l-298 677 -148 0 -149 0 0 -945z"/>
</g>
</svg>
