<?xml version="1.0" encoding="UTF-8" standalone="no"?>
<!-- Created with Inkscape (http://www.inkscape.org/) -->

<svg
   xmlns:dc="http://purl.org/dc/elements/1.1/"
   xmlns:cc="http://creativecommons.org/ns#"
   xmlns:rdf="http://www.w3.org/1999/02/22-rdf-syntax-ns#"
   xmlns:svg="http://www.w3.org/2000/svg"
   xmlns="http://www.w3.org/2000/svg"
   xmlns:sodipodi="http://sodipodi.sourceforge.net/DTD/sodipodi-0.dtd"
   xmlns:inkscape="http://www.inkscape.org/namespaces/inkscape"
   width="800mm"
   height="800mm"
   viewBox="0 0 2834.6457 2834.6457"
   id="svg2"
   version="1.1"
   inkscape:version="0.91 r13725"
   sodipodi:docname="banmedica.svg">
  <defs
     id="defs4">
    <clipPath
       id="clipPath4154"
       clipPathUnits="userSpaceOnUse">
      <path
         inkscape:connector-curvature="0"
         id="path4156"
         d="M 0,792 612,792 612,0 0,0 0,792 Z" />
    </clipPath>
    <clipPath
       id="clipPath4879"
       clipPathUnits="userSpaceOnUse">
      <path
         inkscape:connector-curvature="0"
         id="path4881"
         d="m 0,784.567 793.701,0 L 793.701,0 0,0 0,784.567 Z" />
    </clipPath>
    <clipPath
       id="clipPath5009"
       clipPathUnits="userSpaceOnUse">
      <path
         inkscape:connector-curvature="0"
         id="path5011"
         d="m -336.46,98.8652 672.92,0 0,-197.7314 -672.92,0 0,197.7314 z" />
    </clipPath>
  </defs>
  <sodipodi:namedview
     id="base"
     pagecolor="#ffffff"
     bordercolor="#666666"
     borderopacity="1.0"
     inkscape:pageopacity="0.0"
     inkscape:pageshadow="2"
     inkscape:zoom="1.2227723"
     inkscape:cx="566.54762"
     inkscape:cy="1377.4357"
     inkscape:document-units="px"
     inkscape:current-layer="layer1"
     showgrid="false"
     inkscape:window-width="1920"
     inkscape:window-height="1138"
     inkscape:window-x="1358"
     inkscape:window-y="-8"
     inkscape:window-maximized="1" />
  <metadata
     id="metadata7">
    <rdf:RDF>
      <cc:Work
         rdf:about="">
        <dc:format>image/svg+xml</dc:format>
        <dc:type
           rdf:resource="http://purl.org/dc/dcmitype/StillImage" />
        <dc:title />
      </cc:Work>
    </rdf:RDF>
  </metadata>
  <g
     inkscape:label="Capa 1"
     inkscape:groupmode="layer"
     id="layer1"
     transform="translate(0,1782.2835)">
    <flowRoot
       xml:space="preserve"
       id="flowRoot4823"
       style="fill:black;stroke:none;stroke-opacity:1;stroke-width:1px;stroke-linejoin:miter;stroke-linecap:butt;fill-opacity:1;font-family:sans-serif;font-style:normal;font-weight:normal;font-size:40px;line-height:125%;letter-spacing:0px;word-spacing:0px"><flowRegion
         id="flowRegion4825"><rect
           id="rect4827"
           width="1321.4423"
           height="148.09267"
           x="497.43948"
           y="2621.9998" /></flowRegion><flowPara
         id="flowPara4829" /></flowRoot>    <path
       d="m 518.02786,-253.01713 c 51.83643,-11.37645 103.52123,-24.80277 156.49381,-30.10446 -30.9613,41.27144 -89.22111,28.82766 -132.33194,47.12175 -12.46272,35.53584 -4.66779,74.48809 -4.66779,111.41045 -17.0532,-14.9076 -34.28895,-29.36133 -51.40251,-43.95471 7.35853,-1.26183 21.90603,-3.8254 29.26257,-5.1022 1.26084,-26.38379 1.38552,-52.8823 2.64586,-79.37083"
       style="fill:#751d22;fill-opacity:1;fill-rule:nonzero;stroke:none"
       id="path14"
       inkscape:connector-curvature="0" />
    <path
       d="m 418.6617,-594.64988 c 58.51368,-2.44384 115.85578,-38.20414 174.05774,-21.28159 45.11729,25.00226 80.43267,64.36349 121.73952,95.10136 -61.51564,-1.58602 -120.86671,15.65572 -180.14197,29.70048 0.83989,34.58321 1.58801,69.03177 2.22491,103.62996 46.17314,-7.54607 92.23905,-25.53094 139.61467,-17.6557 -45.88286,34.34881 -106.95811,30.00969 -160.15113,44.58811 0.32568,-25.00226 -0.10923,-50.01948 0.32568,-75.03671 -35.62561,7.34657 -71.30009,14.68814 -106.80051,22.02972 -0.11121,24.79778 -1.0753,49.69032 -1.0753,74.47313 -24.90451,6.48872 -49.8928,12.77295 -74.92349,19.27663 1.30722,33.52587 2.58152,67.02182 3.84186,100.53273 23.83469,-2.64337 47.55816,-6.46877 71.40881,-8.83782 0.63691,25.02221 1.46283,49.8948 2.44088,74.91202 -64.79441,-54.15909 -129.28108,-108.73216 -193.42464,-163.72915 0.32729,-35.54581 0.20264,-71.08164 0.71693,-106.62744 25.03094,-4.46879 49.8302,-9.33657 74.48689,-15.1071 -0.93316,-24.67807 -1.89778,-49.46088 -3.0803,-74.14893 34.24257,-8.08971 68.72056,-14.68815 102.88483,-23.29156 8.61887,6.58348 17.36043,13.0722 26.16634,19.45119 -0.42045,-26.06459 -0.62344,-52.00949 -0.31172,-77.97933"
       style="fill:#751d22;fill-opacity:1;fill-rule:nonzero;stroke:none"
       id="path16"
       inkscape:connector-curvature="0" />
    <path
       d="m 534.31699,-491.12963 c 59.27526,-14.04476 118.62633,-31.2865 180.14197,-29.70048 57.01543,32.34883 66.38193,107.67481 40.21758,163.43489 27.11696,55.86482 11.58593,125.64472 -31.39621,169.06078 -47.12376,51.70027 -123.43427,45.75518 -185.75839,63.74505 0,-36.92236 -7.79493,-75.87461 4.66779,-111.41045 43.11083,-18.29409 101.37064,-5.85031 132.33194,-47.12175 -52.97258,5.30169 -104.65738,18.72801 -156.49381,30.10446 -1.26034,26.48853 -1.38502,52.98704 -2.64586,79.37083 -7.35654,1.2768 -21.90404,3.84037 -29.26257,5.1022 -25.21972,4.15458 -50.01899,10.0049 -74.89606,15.32654 -0.97805,-25.01722 -1.80397,-49.88981 -2.44088,-74.91202 -23.85065,2.36905 -47.57412,6.19445 -71.40881,8.83782 -1.26034,-33.51091 -2.53464,-67.00686 -3.84186,-100.53273 25.03069,-6.50368 50.01898,-12.78791 74.92349,-19.27663 0,-24.78281 0.96409,-49.67535 1.0753,-74.47313 35.50042,-7.34158 71.1749,-14.68315 106.80051,-22.02972 -0.43491,25.01723 0,50.03445 -0.32568,75.03671 53.19302,-14.57842 114.26827,-10.2393 160.15113,-44.58811 -47.37562,-7.87524 -93.44153,10.10963 -139.61467,17.6557 -0.6369,-34.59819 -1.38502,-69.04675 -2.22491,-103.62996"
       style="fill:#ff0000;fill-opacity:1;fill-rule:nonzero;stroke:#ff0000;stroke-opacity:1;stroke-width:2;stroke-miterlimit:4;stroke-dasharray:none"
       id="path18"
       inkscape:connector-curvature="0" />
    <path
       d="m 879.16416,-336.51761 0,62.30866 45.47589,0 c 17.70058,0 28.93739,-0.46883 33.68049,-1.43141 7.31165,-1.25685 13.25673,-4.36904 17.84522,-9.29169 4.58849,-4.92763 6.8927,-11.52109 6.8927,-19.79034 0,-6.99744 -1.77554,-12.92257 -5.30668,-17.8103 -3.5461,-4.86779 -8.66326,-8.41389 -15.35647,-10.6433 -6.70318,-2.22442 -21.21676,-3.34162 -43.5557,-3.34162 l -39.67545,0 z m 0,-92.66746 0,53.88479 32.18923,0 c 19.15194,0 31.03712,-0.26933 35.69044,-0.79302 8.39893,-0.9526 15.0273,-3.73562 19.83523,-8.33907 4.80794,-4.6234 7.21689,-10.67821 7.21689,-18.20432 0,-7.20193 -2.0698,-13.05724 -6.21939,-17.56592 -4.15458,-4.5037 -10.31911,-7.23186 -18.51355,-8.18945 -4.87277,-0.52868 -18.85768,-0.79301 -41.99462,-0.79301 l -28.20423,0 z m -49.13171,-38.78767 97.26593,0 c 19.24671,0 33.60567,0.77306 43.06694,2.3092 9.45626,1.53615 17.92002,4.7431 25.38629,9.61587 7.47129,4.87777 13.69069,11.36648 18.67319,19.47114 4.9775,8.10466 7.4662,17.20184 7.4662,27.26658 0,10.90264 -3.0673,20.9225 -9.2119,30.03963 -6.1296,9.11712 -14.46866,15.94498 -24.96732,20.50853 14.82282,4.11966 26.21422,11.18194 34.17922,21.13697 7.965,9.96 11.945,21.6756 11.945,35.13184 0,10.59341 -2.5635,20.89258 -7.7156,30.91243 -5.1321,10.01986 -12.1645,18.01479 -21.0621,24.00975 -8.91767,5.98498 -19.90011,9.65577 -32.95235,11.04728 -8.18447,0.83291 -27.9399,1.36657 -59.2613,1.58103 l -82.8122,0 0,-233.03025"
       style="fill:#141113;fill-opacity:1;fill-rule:nonzero;stroke:none"
       id="path20"
       inkscape:connector-curvature="0" />
    <path
       d="m 1172.2687,-316.01405 c -5.975,1.91519 -15.4512,4.18948 -28.3938,6.84781 -12.9425,2.64337 -21.4063,5.24185 -25.3913,7.7755 -6.0797,4.14459 -9.132,9.38145 -9.132,15.74548 0,6.25929 2.4438,11.65576 7.3166,16.21432 4.8678,4.55856 11.0573,6.82786 18.5883,6.82786 8.404,0 16.4288,-2.64336 24.0497,-7.95005 5.6508,-4.00994 9.3515,-8.94755 11.1271,-14.7829 1.2119,-3.80545 1.8354,-11.07721 1.8354,-21.77536 l 0,-8.90266 z m -62.4184,-36.23408 -42.3138,-7.30667 c 4.758,-16.32403 12.9425,-28.4137 24.5633,-36.24904 11.6209,-7.84531 28.8776,-11.76547 51.7751,-11.76547 20.8028,0 36.2989,2.36406 46.4734,7.08223 10.1894,4.71317 17.3465,10.69815 21.5011,17.94995 4.1545,7.26677 6.2194,20.59831 6.2194,39.98467 l -0.4938,52.13418 c 0,14.83776 0.7431,25.78031 2.2394,32.82763 1.4912,7.04731 4.2792,14.58839 8.3839,22.64816 l -46.1442,0 c -1.2119,-2.97254 -2.7082,-7.36153 -4.4787,-13.1919 -0.7781,-2.64336 -1.3267,-4.40394 -1.6659,-5.24184 -7.965,7.42138 -16.4936,12.97245 -25.5608,16.69311 -9.0723,3.70072 -18.748,5.55606 -29.0322,5.55606 -18.1544,0 -32.4535,-4.71816 -42.9073,-14.14451 -10.4538,-9.42634 -15.6807,-21.36139 -15.6807,-35.76525 0,-9.54106 2.3791,-18.04472 7.1222,-25.52096 4.763,-7.46627 11.4363,-13.18691 20.0098,-17.15695 8.5735,-3.98001 20.9424,-7.4513 37.0919,-10.40888 21.7953,-3.92016 36.9024,-7.57599 45.3163,-10.96748 l 0,-4.4638 c 0,-8.5685 -2.2244,-14.70311 -6.6434,-18.35893 -4.4338,-3.65583 -12.7879,-5.47626 -25.0621,-5.47626 -8.2892,0 -14.7629,1.55609 -19.4162,4.68824 -4.6534,3.12715 -8.4139,8.61338 -11.2967,16.45371"
       style="fill:#141113;fill-opacity:1;fill-rule:nonzero;stroke:none"
       id="path22"
       inkscape:connector-curvature="0" />
    <path
       d="m 1424.3611,-234.94249 -46.623,0 0,-86.1588 c 0,-18.21928 -0.9975,-30.00969 -2.9875,-35.36126 -1.99,-5.35158 -5.2269,-9.50615 -9.7106,-12.47371 -4.4788,-2.97253 -9.8803,-4.45382 -16.1944,-4.45382 -8.0747,0 -15.3216,2.11469 -21.7355,6.36403 -6.4238,4.22939 -10.8128,9.84529 -13.1919,16.84773 -2.379,6.98746 -3.561,19.91502 -3.561,38.78766 l 0,76.44817 -46.643,0 0,-168.81639 43.3163,0 0,24.80277 c 15.3864,-19.07713 34.7379,-28.6132 58.0893,-28.6132 10.2842,0 19.6955,1.77554 28.2042,5.32164 8.5286,3.56106 14.9674,8.0897 19.3415,13.59589 4.369,5.50618 7.4213,11.76049 9.132,18.76291 1.7107,6.98248 2.5636,17.00234 2.5636,30.03963 l 0,104.90675"
       style="fill:#141113;fill-opacity:1;fill-rule:nonzero;stroke:none"
       id="path24"
       inkscape:connector-curvature="0" />
    <path
       d="m 1468.1762,-403.75888 42.9871,0 0,23.05715 c 15.3814,-17.90507 33.6954,-26.86758 54.9272,-26.86758 11.2916,0 21.082,2.22442 29.3712,6.67325 8.3092,4.44883 15.1071,11.18693 20.4288,20.19433 7.7356,-9.0074 16.0896,-15.7455 25.0522,-20.19433 8.9724,-4.44883 18.5384,-6.67325 28.7178,-6.67325 12.9476,0 23.8951,2.51868 32.8576,7.56102 8.9626,5.02739 15.6657,12.41385 20.0846,22.16937 3.207,7.20193 4.803,18.85769 4.803,34.97225 l 0,107.92418 -46.618,0 0,-96.48788 c 0,-16.738 -1.611,-27.55086 -4.823,-32.41865 -4.3141,-6.36403 -10.9625,-9.54106 -19.92,-9.54106 -6.5186,0 -12.6632,1.90023 -18.4237,5.73062 -5.7556,3.81044 -9.8852,9.39143 -12.4388,16.76792 -2.5536,7.35655 -3.8205,18.99235 -3.8205,34.87749 l 0,81.07156 -46.6379,0 0,-92.50288 c 0,-16.43376 -0.8179,-27.02718 -2.4838,-31.8002 -1.6658,-4.76305 -4.2393,-8.30915 -7.7156,-10.6433 -3.4863,-2.33414 -8.2194,-3.50121 -14.1944,-3.50121 -7.1969,0 -13.6757,1.85534 -19.4113,5.55606 -5.7605,3.71568 -9.8802,9.07223 -12.374,16.05471 -2.4837,7.00243 -3.7306,18.60332 -3.7306,34.82262 l 0,82.0142 -46.6379,0 0,-168.81639"
       style="fill:#141113;fill-opacity:1;fill-rule:nonzero;stroke:none"
       id="path26"
       inkscape:connector-curvature="0" />
    <path
       d="m 1819.0208,-424.41704 22.9025,-47.53073 52.2838,0 -45.6404,47.53073 -29.5459,0 z m 59.5905,90.60764 c -0.3442,-12.92756 -3.8305,-22.76288 -10.4538,-29.48102 -6.6433,-6.73809 -14.7181,-10.09966 -24.2342,-10.09966 -10.1795,0 -18.5983,3.5461 -25.2217,10.64329 -6.6433,7.10717 -9.9051,16.75297 -9.8004,28.93739 l 69.7101,0 z m -2.6634,45.14672 46.4784,7.46626 c -5.98,16.32404 -15.4013,28.75285 -28.299,37.27646 -12.8976,8.5286 -29.0172,12.7929 -48.3836,12.7929 -30.658,0 -53.3361,-9.58595 -68.0343,-28.76781 -11.6208,-15.37143 -17.4462,-34.75778 -17.4462,-58.184 0,-27.97481 7.6358,-49.87984 22.9225,-65.72009 15.2517,-15.85023 34.5583,-23.77035 57.9197,-23.77035 26.2142,0 46.9023,8.28919 62.0493,24.87757 15.1769,16.58339 22.4287,41.98964 21.7554,76.21376 l -116.8368,0 c 0.3291,13.25673 4.0897,23.55589 11.2816,30.92739 7.187,7.36153 16.1495,11.04728 26.8826,11.04728 7.3066,0 13.4462,-1.91519 18.4338,-5.72563 4.9774,-3.81044 8.7281,-9.95502 11.2766,-18.43374"
       style="fill:#141113;fill-opacity:1;fill-rule:nonzero;stroke:none"
       id="path28"
       inkscape:connector-curvature="0" />
    <path
       d="m 2000.1014,-322.99653 c 0,18.01479 2.5985,31.05208 7.7905,39.09191 7.5311,11.65575 18.0347,17.48612 31.5358,17.48612 10.7331,0 19.8701,-4.36904 27.3813,-13.1121 7.5311,-8.73807 11.3017,-21.79531 11.3017,-39.17171 0,-19.40131 -3.6658,-33.3563 -10.9625,-41.89487 -7.3067,-8.5286 -16.6582,-12.7929 -28.0446,-12.7929 -11.0623,0 -20.339,4.21941 -27.8003,12.6333 -7.4712,8.43383 -11.2019,21.01726 -11.2019,37.76025 z m 124.4726,88.05404 -43.3262,0 0,-24.79777 c -7.192,9.64579 -15.6857,16.83276 -25.4661,21.55092 -9.8004,4.71318 -19.6657,7.06228 -29.6207,7.06228 -20.2541,0 -37.6007,-7.81539 -52.0394,-23.45115 -14.4388,-15.62081 -21.6557,-37.43108 -21.6557,-65.40089 0,-28.60822 7.0324,-50.35864 21.0821,-65.24628 14.0448,-14.89263 31.8152,-22.34393 53.2614,-22.34393 19.7005,0 36.7378,7.84032 51.1217,23.52597 l 0,-83.9294 46.6429,0 0,233.03025"
       style="fill:#141113;fill-opacity:1;fill-rule:nonzero;stroke:none"
       id="path30"
       inkscape:connector-curvature="0" />
    <path
       d="m 2170.5537,-234.94249 0,-168.81639 46.638,0 0,168.81639 -46.638,0 z m 0,-191.69897 0,-41.33128 46.638,0 0,41.33128 -46.638,0"
       style="fill:#141113;fill-opacity:1;fill-rule:nonzero;stroke:none"
       id="path32"
       inkscape:connector-curvature="0" />
    <path
       d="m 2418.6811,-353.83415 -45.9797,7.93509 c -1.5561,-8.79294 -5.0672,-15.41632 -10.5485,-19.86515 -5.4763,-4.44884 -12.5884,-6.67825 -21.3265,-6.67825 -11.6108,0 -20.8826,3.84536 -27.7903,11.53107 -6.9176,7.68571 -10.3739,20.53846 -10.3739,38.54827 0,20.02475 3.4962,34.16926 10.5286,42.4435 7.0373,8.25927 16.4637,12.38891 28.2989,12.38891 8.8578,0 16.1046,-2.39898 21.7554,-7.22687 5.626,-4.8229 9.6109,-13.11209 11.95,-24.87258 l 45.8051,7.46626 c -4.763,20.12949 -13.9051,35.34631 -27.3862,45.61554 -13.5111,10.28419 -31.6007,15.4213 -54.2838,15.4213 -25.7753,0 -46.3288,-7.78047 -61.6553,-23.37135 -15.3216,-15.57093 -22.9774,-37.13183 -22.9774,-64.68768 0,-27.86508 7.6858,-49.56563 23.0771,-65.09167 15.3715,-15.52604 36.1693,-23.29155 62.4035,-23.29155 21.4461,0 38.5133,4.43387 51.1965,13.27169 12.6632,8.85279 21.7604,22.33895 27.3065,40.46347"
       style="fill:#141113;fill-opacity:1;fill-rule:nonzero;stroke:none"
       id="path34"
       inkscape:connector-curvature="0" />
    <path
       d="m 2551.2883,-316.01405 c -5.975,1.91519 -15.4512,4.18948 -28.3987,6.84781 -12.9326,2.64337 -21.4013,5.24185 -25.3863,7.7755 -6.0748,4.14459 -9.1271,9.38145 -9.1271,15.74548 0,6.25929 2.4388,11.65576 7.3066,16.21432 4.8728,4.55856 11.0673,6.82786 18.5983,6.82786 8.394,0 16.4239,-2.64336 24.0497,-7.95005 5.6508,-4.00994 9.3516,-8.94755 11.1221,-14.7829 1.212,-3.80545 1.8354,-11.07721 1.8354,-21.77536 l 0,-8.90266 z m -62.4134,-36.23408 -42.3138,-7.30667 c 4.7531,-16.32403 12.9325,-28.4137 24.5534,-36.24904 11.6258,-7.84531 28.8825,-11.76547 51.7751,-11.76547 20.8077,0 36.2989,2.36406 46.4783,7.08223 10.1895,4.71317 17.3465,10.69815 21.4961,17.94995 4.1596,7.26677 6.2244,20.59831 6.2244,39.98467 l -0.4938,52.13418 c 0,14.83776 0.7481,25.78031 2.2394,32.82763 1.4913,7.04731 4.2743,14.58839 8.3839,22.64816 l -46.1392,0 c -1.2219,-2.97254 -2.7082,-7.36153 -4.4837,-13.1919 -0.778,-2.64336 -1.3267,-4.40394 -1.6659,-5.24184 -7.9699,7.42138 -16.4935,12.97245 -25.5608,16.69311 -9.0673,3.70072 -18.7529,5.55606 -29.0272,5.55606 -18.1594,0 -32.4585,-4.71816 -42.9123,-14.14451 -10.4488,-9.42634 -15.6806,-21.36139 -15.6806,-35.76525 0,-9.54106 2.374,-18.04472 7.1271,-25.52096 4.7581,-7.46627 11.4263,-13.18691 19.9998,-17.15695 8.5735,-3.98001 20.9424,-7.4513 37.0969,-10.40888 21.7903,-3.92016 36.8975,-7.57599 45.3163,-10.96748 l 0,-4.4638 c 0,-8.5685 -2.2244,-14.70311 -6.6433,-18.35893 -4.4339,-3.65583 -12.7929,-5.47626 -25.0672,-5.47626 -8.2891,0 -14.7579,1.55609 -19.4112,4.68824 -4.6483,3.12715 -8.4189,8.61338 -11.2917,16.45371"
       style="fill:#141113;fill-opacity:1;fill-rule:nonzero;stroke:none"
       id="path36"
       inkscape:connector-curvature="0" />
    <path
       d="m 824.55619,-541.01446 19.71224,0 0,-138.1748 -19.71224,0 0,138.1748 z"
       style="fill:#141113;fill-opacity:1;fill-rule:nonzero;stroke:none"
       id="path38"
       inkscape:connector-curvature="0" />
    <path
       d="m 869.34879,-570.89448 18.0946,-2.6334 c 1.00747,6.71815 3.84036,11.87022 8.47872,15.45622 4.64834,3.57603 11.13706,5.37651 19.46117,5.37651 8.39892,0 14.63827,-1.58602 18.69808,-4.76305 4.0648,-3.17204 6.09969,-6.89769 6.09969,-11.17196 0,-3.83538 -1.7905,-6.84782 -5.38149,-9.0473 -2.50372,-1.50622 -8.74306,-3.43139 -18.70307,-5.75556 -13.41135,-3.13214 -22.71301,-5.85531 -27.895,-8.14955 -5.17701,-2.28926 -9.11713,-5.4613 -11.79042,-9.51114 -2.67329,-4.05483 -4.01492,-8.53857 -4.01492,-13.4363 0,-4.46378 1.10722,-8.59341 3.31667,-12.3889 2.1945,-3.80547 5.19696,-6.96748 8.99244,-9.47618 2.84785,-1.94516 6.71814,-3.59604 11.6358,-4.94759 4.89771,-1.3566 10.17447,-2.02994 15.79038,-2.02994 8.47872,0 15.9001,1.13713 22.30902,3.39147 6.39395,2.25934 11.12209,5.32665 14.17443,9.19195 3.04735,3.87029 5.15207,9.03236 6.29919,15.50112 l -17.87514,2.26932 c -0.82792,-5.15209 -3.17204,-9.17198 -7.06228,-12.06473 -3.9052,-2.89774 -9.41138,-4.33414 -16.52354,-4.33414 -8.39892,0 -14.38889,1.2818 -17.98487,3.86031 -3.59099,2.57851 -5.38149,5.59098 -5.38149,9.04234 0,2.20444 0.74812,4.18447 2.23938,5.94503 1.48128,1.81546 3.8254,3.32665 7.00242,4.51868 1.8354,0.62842 7.2169,2.07978 16.16444,4.33912 12.92756,3.20693 21.96489,5.83037 27.06708,7.87524 5.12215,2.03489 9.13209,5.00743 12.03979,8.90265 2.92766,3.90022 4.37403,8.72811 4.37403,14.51359 0,5.6608 -1.77555,10.97745 -5.33661,15.97491 -3.5461,4.99746 -8.67823,8.85778 -15.38639,11.6009 -6.70318,2.72815 -14.29912,4.09472 -22.7579,4.09472 -14.03478,0 -24.708,-2.69823 -32.06454,-8.10467 -7.34656,-5.40643 -12.04477,-13.42132 -14.07967,-24.03967"
       style="fill:#141113;fill-opacity:1;fill-rule:nonzero;stroke:none"
       id="path40"
       inkscape:connector-curvature="0" />
    <path
       d="m 1049.6115,-591.24841 c -6.6434,2.51369 -16.5984,4.65332 -29.8701,6.40892 -7.5111,1.00248 -12.8328,2.12965 -15.9599,3.39149 -3.1122,1.25684 -5.52617,3.09723 -7.20695,5.51616 -1.69076,2.41893 -2.54861,5.1022 -2.54861,8.05978 0,4.51865 1.85036,8.28919 5.5411,11.31161 3.70076,3.00745 9.09716,4.51866 16.20936,4.51866 7.0473,0 13.3165,-1.42642 18.8078,-4.28924 5.4762,-2.85284 9.5061,-6.76801 12.0896,-11.73555 1.9601,-3.83039 2.9377,-9.48619 2.9377,-16.96742 l 0,-6.21441 z m 1.5261,37.88992 c -6.768,5.33661 -13.2866,9.10715 -19.5559,11.31162 -6.2693,2.19449 -12.9874,3.29673 -20.1794,3.29673 -11.85521,0 -20.95738,-2.68826 -27.33138,-8.05978 -6.36403,-5.37651 -9.55103,-12.2343 -9.55103,-20.59831 0,-4.89771 1.21196,-9.37148 3.60595,-13.42631 2.41394,-4.04984 5.55606,-7.30168 9.46126,-9.75053 3.89024,-2.45385 8.27423,-4.31418 13.142,-5.56604 3.596,-0.87779 9.0274,-1.72568 16.2742,-2.54364 14.7679,-1.63085 25.6406,-3.581 32.6082,-5.85032 0.065,-2.31418 0.1097,-3.79044 0.1097,-4.42385 0,-6.91764 -1.7257,-11.78543 -5.177,-14.60837 -4.6833,-3.83535 -11.6259,-5.75056 -20.8328,-5.75056 -8.6034,0 -14.9674,1.39647 -19.0571,4.19445 -4.1097,2.79299 -7.12714,7.74058 -9.10219,14.84276 l -17.88013,-2.26433 c 1.62093,-7.09719 4.29921,-12.82779 8.02985,-17.1968 3.72066,-4.36408 9.10216,-7.72561 16.14947,-10.0847 7.0473,-2.3541 15.2168,-3.53615 24.4886,-3.53615 9.2218,0 16.708,1.00749 22.4636,3.01746 5.7555,2.01491 9.9899,4.54357 12.6981,7.58094 2.7032,3.05233 4.6035,6.90272 5.6907,11.55104 0.6085,2.88776 0.9177,8.10467 0.9177,15.64573 l 0,22.61824 c 0,15.78041 0.3891,25.75038 1.1671,29.92491 0.7781,4.17952 2.3192,8.18447 4.6184,12.01984 l -19.102,0 c -1.9003,-3.51618 -3.1122,-7.63085 -3.6559,-12.34403"
       style="fill:#141113;fill-opacity:1;fill-rule:nonzero;stroke:none"
       id="path42"
       inkscape:connector-curvature="0" />
    <path
       d="m 1113.0124,-590.4953 c 0,12.88268 2.8129,22.40378 8.4488,28.55834 5.6159,6.15954 12.4288,9.24181 20.4088,9.24181 8.1345,0 15.0921,-3.19199 20.8925,-9.566 5.7855,-6.37899 8.6832,-16.26418 8.6832,-29.65059 0,-12.75798 -2.8329,-22.30902 -8.4787,-28.65807 -5.6658,-6.33912 -12.4138,-9.51117 -20.2741,-9.51117 -7.7954,0 -14.6832,3.37655 -20.6931,10.12961 -5.985,6.75805 -8.9874,16.57836 -8.9874,29.45607 z m -16.5535,87.84457 0,-138.45756 16.6582,0 0,13.00235 c 3.9202,-5.08721 8.369,-8.90765 13.3216,-11.45123 4.9276,-2.53864 10.9325,-3.81545 17.9848,-3.81545 9.2069,0 17.3266,2.19951 24.3739,6.59348 7.0473,4.40394 12.369,10.61336 15.9649,18.61328 3.5761,8.0149 5.3815,16.79784 5.3815,26.34888 0,10.24429 -1.975,19.46615 -5.9401,27.66558 -3.97,8.19443 -9.7256,14.47867 -17.2866,18.85269 -7.5461,4.36405 -15.4961,6.54857 -23.8202,6.54857 -6.0947,0 -11.571,-1.197 -16.4138,-3.586 -4.8379,-2.38901 -8.8179,-5.39646 -11.9451,-9.0473 l 0,48.73271 -18.2791,0"
       style="fill:#141113;fill-opacity:1;fill-rule:nonzero;stroke:none"
       id="path44"
       inkscape:connector-curvature="0" />
    <path
       d="m 1211.984,-541.01446 0,-100.09383 16.4637,0 0,15.17191 c 4.1995,-7.10218 8.0747,-11.78543 11.6358,-14.04477 3.5461,-2.25434 7.4663,-3.39147 11.7306,-3.39147 6.1595,0 12.4288,1.82544 18.7928,5.46627 l -6.2992,15.73551 c -4.4638,-2.44881 -8.9326,-3.67077 -13.4113,-3.67077 -4,0 -7.576,1.11223 -10.768,3.34661 -3.187,2.23438 -5.4563,5.32665 -6.8129,9.28671 -2.0199,6.02987 -3.0474,12.62328 -3.0474,19.79033 l 0,52.4035 -18.2841,0"
       style="fill:#141113;fill-opacity:1;fill-rule:nonzero;stroke:none"
       id="path46"
       inkscape:connector-curvature="0" />
    <path
       d="m 1295.3099,-600.67478 60.2588,0 c -0.8129,-8.41885 -3.1122,-14.73302 -6.9076,-18.94244 -5.8204,-6.53359 -13.3815,-9.80041 -22.6532,-9.80041 -8.3989,0 -15.4612,2.60347 -21.1868,7.81538 -5.7257,5.2219 -8.8977,12.18945 -9.5112,20.92747 z m 60.0543,27.4262 18.9026,2.16956 c -2.9875,10.24429 -8.4937,18.18936 -16.5684,23.84018 -8.0548,5.6558 -18.359,8.4887 -30.8825,8.4887 -15.7904,0 -28.299,-4.51368 -37.5558,-13.52606 -9.2368,-9.01738 -13.8602,-21.66563 -13.8602,-37.9398 0,-16.83777 4.6683,-29.90992 14.0148,-39.20163 9.3516,-9.30667 21.4861,-13.95499 36.3937,-13.95499 14.4188,0 26.2142,4.55854 35.3613,13.66571 9.1321,9.11714 13.7056,21.92995 13.7056,38.4585 0,1.00249 -0.03,2.51369 -0.095,4.51866 l -80.478,0 c 0.6683,11.00239 4.0298,19.41628 10.0497,25.2666 6.0349,5.84035 13.551,8.768 22.5584,8.768 6.7082,0 12.4288,-1.6359 17.1769,-4.90769 4.7431,-3.26181 8.5087,-8.48371 11.2767,-15.64574"
       style="fill:#141113;fill-opacity:1;fill-rule:nonzero;stroke:none"
       id="path48"
       inkscape:connector-curvature="0" />
    <path
       d="m 1328.8408,-139.03315 15.1021,0 0,61.221379 c 0,10.653263 -1.2868,19.107054 -3.8853,25.37632 -2.5984,6.264281 -7.2817,11.356503 -14.0647,15.291629 -6.7829,3.920163 -15.6806,5.880245 -26.698,5.880245 -10.7031,0 -19.4462,-1.710707 -26.2591,-5.137109 -6.7979,-3.416428 -11.6557,-8.364013 -14.5634,-14.837768 -2.9077,-6.488718 -4.3691,-15.336519 -4.3691,-26.573317 l 0,-61.221379 15.1221,0 0,61.161525 c 0,9.191933 0.9177,15.974913 2.768,20.328987 1.8354,4.374027 5.0075,7.735592 9.5062,10.084697 4.4937,2.364068 9.9849,3.55109 16.4736,3.55109 11.1271,0 19.0423,-2.339131 23.7704,-7.007417 4.7331,-4.678258 7.0972,-13.670697 7.0972,-26.957357 l 0,-61.161525"
       style="fill:#141113;fill-opacity:1;fill-rule:nonzero;stroke:none"
       id="path50"
       inkscape:connector-curvature="0" />
    <path
       d="m 1361.7283,-55.981552 13.8602,-2.024919 c 0.778,5.162047 2.9576,9.112135 6.5037,11.855252 3.566,2.753091 8.5435,4.119662 14.9225,4.119662 6.4389,0 11.2318,-1.211959 14.344,-3.655827 3.1122,-2.423917 4.6833,-5.286734 4.6833,-8.553536 0,-2.942619 -1.3865,-5.256808 -4.1396,-6.937589 -1.9152,-1.167076 -6.7082,-2.633397 -14.3291,-4.418913 -10.2991,-2.398984 -17.4263,-4.483752 -21.3913,-6.239347 -3.985,-1.760581 -6.9875,-4.199462 -9.0423,-7.311652 -2.0499,-3.09723 -3.0773,-6.533607 -3.0773,-10.299156 0,-3.421416 0.8429,-6.583479 2.5337,-9.506144 1.6807,-2.912689 3.985,-5.336609 6.8927,-7.251809 2.1795,-1.49624 5.147,-2.76306 8.9126,-3.79049 3.7655,-1.04238 7.8104,-1.56108 12.1246,-1.56108 6.4987,0 12.1944,0.85785 17.112,2.60347 4.9027,1.72068 8.5236,4.07477 10.8578,7.04732 2.3491,2.952589 3.9501,6.917638 4.8378,11.880183 l -13.7205,1.74562 c -0.6235,-3.955073 -2.4289,-7.047312 -5.4164,-9.256772 -2.9826,-2.209453 -7.202,-3.326651 -12.6633,-3.326651 -6.4388,0 -11.0273,0.992511 -13.7804,2.967553 -2.7581,1.975047 -4.1396,4.279266 -4.1396,6.937593 0,1.680781 0.5736,3.201964 1.7107,4.543599 1.1521,1.401482 2.9426,2.568552 5.3815,3.466304 1.4015,0.483784 5.5411,1.605967 12.3839,3.331636 9.9251,2.458832 16.8527,4.468791 20.7679,6.034856 3.9202,1.576046 7.0025,3.845353 9.2418,6.832857 2.2294,2.987505 3.3466,6.703181 3.3466,11.142039 0,4.324152 -1.3715,8.413889 -4.0947,12.23929 -2.7182,3.825401 -6.6583,6.797942 -11.8054,8.88271 -5.1321,2.099731 -10.9525,3.147103 -17.4562,3.147103 -10.748,0 -18.9474,-2.069806 -24.5833,-6.209418 -5.6259,-4.139613 -9.2218,-10.284194 -10.7779,-18.433744"
       style="fill:#141113;fill-opacity:1;fill-rule:nonzero;stroke:none"
       id="path52"
       inkscape:connector-curvature="0" />
    <path
       d="m 1477.7621,-44.704849 2.0149,11.496153 c -3.9451,0.763085 -7.4812,1.152108 -10.5884,1.152108 -5.1072,0 -9.0423,-0.748122 -11.8552,-2.23938 -2.808,-1.496246 -4.783,-3.45134 -5.9152,-5.895207 -1.1471,-2.428906 -1.7207,-7.546065 -1.7207,-15.356464 l 0,-44.154206 -10.2892,0 0,-10.124595 10.2892,0 0,-19.01229 13.945,-7.79544 0,26.80773 14.1196,0 0,10.124595 -14.1196,0 0,44.882377 c 0,3.705701 0.2544,6.084731 0.7531,7.162028 0.4788,1.052359 1.2868,1.890257 2.404,2.513692 1.1222,0.623436 2.7082,0.95261 4.793,0.95261 1.5611,0 3.6159,-0.169575 6.1695,-0.513711"
       style="fill:#141113;fill-opacity:1;fill-rule:nonzero;stroke:none"
       id="path54"
       inkscape:connector-curvature="0" />
    <path
       d="m 1502.0561,-78.819243 46.2091,0 c -0.6234,-6.458793 -2.3841,-11.296658 -5.2867,-14.533535 -4.4738,-5.007433 -10.2693,-7.511152 -17.3814,-7.511152 -6.4388,0 -11.8553,2.004968 -16.2493,6.004935 -4.3989,3.994976 -6.8278,9.346547 -7.2917,16.039752 z m 46.0545,21.027233 14.4936,1.665821 c -2.2892,7.855288 -6.5136,13.954982 -12.6931,18.279131 -6.1945,4.3441 -14.0747,6.508668 -23.6906,6.508668 -12.1046,0 -21.7005,-3.456327 -28.8027,-10.363993 -7.0723,-6.922629 -10.6184,-16.613314 -10.6184,-29.092003 0,-12.912595 3.5761,-22.932451 10.7431,-30.069544 7.172,-7.12712 16.4637,-10.69317 27.9,-10.69317 11.0572,0 20.0945,3.48625 27.1119,10.47372 7.0224,6.982478 10.5186,16.817801 10.5186,29.495989 0,0.763085 -0.03,1.92517 -0.08,3.466298 l -61.7201,0 c 0.5387,8.433841 3.0972,14.887645 7.7256,19.371394 4.6184,4.478761 10.384,6.718142 17.3016,6.718142 5.1421,0 9.5361,-1.256846 13.162,-3.760564 3.6308,-2.503717 6.5136,-6.50368 8.6483,-11.999889"
       style="fill:#141113;fill-opacity:1;fill-rule:nonzero;stroke:none"
       id="path56"
       inkscape:connector-curvature="0" />
    <path
       d="m 1589.5666,-71.367945 c 0,9.830331 2.2443,17.171912 6.7031,22.044685 4.4738,4.867785 9.7406,7.291703 15.8303,7.291703 6.1296,0 11.3216,-2.314193 15.6158,-6.967517 4.2743,-4.653323 6.4289,-11.745528 6.4289,-21.301545 0,-10.498656 -2.1845,-18.199333 -6.5536,-23.112007 -4.359,-4.922649 -9.7455,-7.376494 -16.1145,-7.376494 -6.2443,0 -11.4563,2.364071 -15.6358,7.077244 -4.1696,4.728139 -6.2742,12.169462 -6.2742,22.343931 z m 44.3437,38.298898 0,-9.690683 c -5.2519,7.620877 -12.9675,11.42134 -23.137,11.42134 -6.6133,0 -12.6632,-1.680782 -18.2043,-5.062296 -5.5311,-3.356578 -9.8203,-8.069751 -12.8478,-14.124558 -3.0473,-6.049818 -4.5585,-12.987411 -4.5585,-20.842701 0,-7.67075 1.3716,-14.608343 4.1196,-20.867635 2.7582,-6.234357 6.8778,-11.01237 12.3889,-14.344 5.5062,-3.31169 11.6608,-4.97752 18.4637,-4.97752 4.9925,0 9.4463,0.96259 13.3316,2.92765 3.8902,1.94512 7.0622,4.49373 9.5111,7.62088 l 0,-38.02458 13.945,0 0,105.964103 -13.0123,0"
       style="fill:#141113;fill-opacity:1;fill-rule:nonzero;stroke:none"
       id="path58"
       inkscape:connector-curvature="0" />
    <path
       d="m 1714.9469,-33.069047 0,-105.964103 15.5111,0 60.0045,83.206212 0,-83.206212 14.4836,0 0,105.964103 -15.4961,0 -60.0094,-83.261073 0,83.261073 -14.4937,0"
       style="fill:#141113;fill-opacity:1;fill-rule:nonzero;stroke:none"
       id="path60"
       inkscape:connector-curvature="0" />
    <path
       d="m 1837.7538,-71.447744 c 0,9.835322 2.3192,17.186874 6.9476,22.074609 4.6183,4.902698 10.4338,7.341578 17.4562,7.341578 6.9425,0 12.748,-2.45883 17.3664,-7.371503 4.6283,-4.912672 6.9475,-12.398887 6.9475,-22.483581 0,-9.4862 -2.3391,-16.67815 -6.9874,-21.575863 -4.6533,-4.887731 -10.4189,-7.326616 -17.3265,-7.326616 -7.0224,0 -12.8379,2.428909 -17.4562,7.296695 -4.6284,4.872771 -6.9476,12.209359 -6.9476,22.044681 z m -14.4039,0 c 0,-14.204357 4.2444,-24.737925 12.778,-31.580756 7.1021,-5.68074 15.7903,-8.5286 26.0297,-8.5286 11.3664,0 20.6681,3.45134 27.89,10.364 7.2168,6.922625 10.8278,16.473657 10.8278,28.6531 0,9.885195 -1.606,17.660682 -4.788,23.321477 -3.197,5.665783 -7.8453,10.05477 -13.94,13.196885 -6.1197,3.127153 -12.773,4.683248 -19.9898,4.683248 -11.591,0 -20.9624,-3.436377 -28.1045,-10.329081 -7.1421,-6.892704 -10.7032,-16.8178 -10.7032,-29.780273"
       style="fill:#141113;fill-opacity:1;fill-rule:nonzero;stroke:none"
       id="path62"
       inkscape:connector-curvature="0" />
    <path
       d="m 1963.7576,-33.069047 0,-105.964103 82.6127,0 0,12.5136 -67.4956,0 0,32.45356 63.2014,0 0,12.428816 -63.2014,0 0,36.064502 70.1389,0 0,12.503625 -85.256,0"
       style="fill:#141113;fill-opacity:1;fill-rule:nonzero;stroke:none"
       id="path64"
       inkscape:connector-curvature="0" />
    <path
       d="m 2062.5048,-55.981552 13.8602,-2.024919 c 0.7781,5.162047 2.9526,9.112135 6.4987,11.855252 3.5661,2.753091 8.5436,4.119662 14.9226,4.119662 6.4388,0 11.2318,-1.211959 14.349,-3.655827 3.1072,-2.423917 4.6733,-5.286734 4.6733,-8.553536 0,-2.942619 -1.3816,-5.256808 -4.1397,-6.937589 -1.9102,-1.167076 -6.6982,-2.633397 -14.319,-4.418913 -10.3042,-2.398984 -17.4263,-4.483752 -21.3913,-6.239347 -3.9851,-1.760581 -6.9925,-4.199462 -9.0374,-7.311652 -2.0548,-3.09723 -3.0922,-6.533607 -3.0922,-10.299156 0,-3.421416 0.8478,-6.583479 2.5436,-9.506144 1.6758,-2.912689 3.985,-5.336609 6.8877,-7.251809 2.1846,-1.49624 5.1521,-2.76306 8.9127,-3.79049 3.7705,-1.04238 7.8153,-1.56108 12.1195,-1.56108 6.5087,0 12.2044,0.85785 17.1171,2.60347 4.8977,1.72068 8.5236,4.07477 10.8577,7.04732 2.3491,2.952589 3.9551,6.917638 4.8429,11.880183 l -13.7256,1.74562 c -0.6234,-3.955073 -2.4239,-7.047312 -5.4164,-9.256772 -2.9825,-2.209453 -7.1969,-3.326651 -12.6632,-3.326651 -6.4389,0 -11.0274,0.992511 -13.7854,2.967553 -2.7432,1.975047 -4.1396,4.279266 -4.1396,6.937593 0,1.680781 0.5835,3.201964 1.7157,4.543599 1.1521,1.401482 2.9426,2.568552 5.3864,3.466304 1.3916,0.483784 5.5312,1.605967 12.384,3.331636 9.9251,2.458832 16.8477,4.468791 20.7679,6.034856 3.9251,1.576046 7.0024,3.845353 9.2418,6.832857 2.2194,2.987505 3.3416,6.703181 3.3416,11.142039 0,4.324152 -1.3616,8.413889 -4.0898,12.23929 -2.7181,3.825401 -6.6533,6.797942 -11.8053,8.88271 -5.1372,2.099731 -10.9525,3.147103 -17.4562,3.147103 -10.758,0 -18.9475,-2.069806 -24.5783,-6.209418 -5.6409,-4.139613 -9.2269,-10.284194 -10.783,-18.433744"
       style="fill:#141113;fill-opacity:1;fill-rule:nonzero;stroke:none"
       id="path66"
       inkscape:connector-curvature="0" />
    <path
       d="m 2178.5287,-44.704849 2.0299,11.496153 c -3.9551,0.763085 -7.4912,1.152108 -10.5984,1.152108 -5.1072,0 -9.0424,-0.748122 -11.8553,-2.23938 -2.8079,-1.496246 -4.773,-3.45134 -5.9152,-5.895207 -1.1471,-2.428906 -1.7256,-7.546065 -1.7256,-15.356464 l 0,-44.154206 -10.2842,0 0,-10.124595 10.2842,0 0,-19.01229 13.95,-7.79544 0,26.80773 14.1146,0 0,10.124595 -14.1146,0 0,44.882377 c 0,3.705701 0.2544,6.084731 0.7531,7.162028 0.4838,1.052359 1.2918,1.890257 2.4139,2.513692 1.1222,0.623436 2.6982,0.95261 4.783,0.95261 1.5611,0 3.616,-0.169575 6.1646,-0.513711"
       style="fill:#141113;fill-opacity:1;fill-rule:nonzero;stroke:none"
       id="path68"
       inkscape:connector-curvature="0" />
    <path
       d="m 2217.7951,-119.36251 10.369,-20.2442 18.3789,0 -17.142,20.2442 -11.6059,0 z m 27.2766,47.775119 c -5.0922,1.92517 -12.733,3.566049 -22.9225,4.917658 -5.7555,0.7581 -9.8253,1.63091 -12.2243,2.598479 -2.394,0.962585 -4.2344,2.379033 -5.5212,4.229388 -1.3067,1.850355 -1.96,3.905202 -1.96,6.174507 0,3.471289 1.4114,6.36403 4.2493,8.668248 2.8229,2.319181 6.9825,3.466303 12.4288,3.466303 5.3964,0 10.1994,-1.087273 14.4188,-3.281766 4.1945,-2.194493 7.2967,-5.196959 9.2718,-8.992435 1.5112,-2.942617 2.2593,-7.281725 2.2593,-13.017337 l 0,-4.763045 z m 1.1621,29.047111 c -5.192,4.1047 -10.1895,6.997441 -14.9924,8.678223 -4.8129,1.680783 -9.955,2.523667 -15.4712,2.523667 -9.0971,0 -16.0797,-2.054843 -20.9723,-6.179494 -4.8628,-4.119662 -7.3067,-9.381459 -7.3067,-15.790376 0,-3.745602 0.9177,-7.186964 2.758,-10.299154 1.8504,-3.112191 4.2544,-5.60095 7.2469,-7.486216 2.9825,-1.865322 6.344,-3.296731 10.0947,-4.259315 2.753,-0.668319 6.9026,-1.321683 12.4687,-1.945121 11.3165,-1.261829 19.6557,-2.753086 25.0122,-4.478761 0.04,-1.790507 0.08,-2.92765 0.08,-3.411435 0,-5.286738 -1.3267,-9.017375 -3.975,-11.196907 -3.596,-2.942617 -8.9127,-4.403951 -15.9749,-4.403951 -6.5935,0 -11.4663,1.072315 -14.6034,3.22192 -3.1471,2.144615 -5.4862,5.92513 -6.9925,11.371466 l -13.7056,-1.730659 c 1.2469,-5.441345 3.3018,-9.845298 6.1646,-13.186907 2.8428,-3.34661 6.9824,-5.93012 12.3789,-7.73559 5.3965,-1.80048 11.6707,-2.70821 18.7829,-2.70821 7.0623,0 12.7979,0.76309 17.2218,2.30422 4.4139,1.55111 7.6558,3.48625 9.7405,5.8204 2.0848,2.3491 3.5261,5.28673 4.3541,8.847794 0.4788,2.229404 0.7132,6.22438 0.7132,12.014854 l 0,17.346469 c 0,12.084677 0.2993,19.740466 0.8877,22.947419 0.6136,3.201965 1.7906,6.264281 3.5462,9.206897 l -14.6532,0 c -1.4514,-2.693242 -2.3741,-5.85032 -2.803,-9.471233"
       style="fill:#141113;fill-opacity:1;fill-rule:nonzero;stroke:none"
       id="path70"
       inkscape:connector-curvature="0" />
    <path
       d="m 2321.9887,-67.10863 14.2493,-1.147125 c 0.6832,5.286739 2.2542,9.640813 4.7181,13.032303 2.4638,3.396474 6.2892,6.144579 11.4911,8.24431 5.1921,2.084768 11.0474,3.147103 17.536,3.147103 5.7656,0 10.8528,-0.79301 15.2767,-2.393993 4.4189,-1.591008 7.7057,-3.765551 9.8453,-6.538593 2.1646,-2.768053 3.2369,-5.785484 3.2369,-9.067248 0,-3.331636 -1.0424,-6.224381 -3.1072,-8.713134 -2.0848,-2.473793 -5.5162,-4.55856 -10.2892,-6.254308 -3.0673,-1.107222 -9.8502,-2.832891 -20.329,-5.162046 -10.5036,-2.33913 -17.8452,-4.548584 -22.0646,-6.61839 -5.4663,-2.643373 -9.5161,-5.940097 -12.1944,-9.860259 -2.6783,-3.92017 -4.0149,-8.32411 -4.0149,-13.19688 0,-5.34659 1.6358,-10.34405 4.9176,-14.99239 3.2669,-4.65332 8.0398,-8.18446 14.3241,-10.59341 6.2892,-2.39898 13.2866,-3.61095 20.9723,-3.61095 8.4638,0 15.935,1.2768 22.4038,3.79548 6.4588,2.53365 11.4363,6.25431 14.9226,11.17197 3.4763,4.91267 5.3466,10.48369 5.6009,16.69311 l -14.4836,1.01246 c -0.7831,-6.69321 -3.4314,-11.76548 -7.9202,-15.18689 -4.4837,-3.40645 -11.127,-5.12215 -19.9,-5.12215 -9.1471,0 -15.8004,1.56108 -19.9898,4.65333 -4.1896,3.11219 -6.2743,6.86278 -6.2743,11.25176 0,3.79548 1.4813,6.93759 4.4438,9.39642 2.9028,2.45883 10.5087,4.962552 22.7829,7.54108 12.2941,2.583518 20.7279,4.84285 25.2965,6.753053 6.6433,2.847857 11.566,6.458793 14.7181,10.812867 3.177,4.359065 4.763,9.381458 4.763,15.077167 0,5.63087 -1.7406,10.937556 -5.2269,15.930028 -3.4712,4.997461 -8.4787,8.867748 -15.0023,11.64079 -6.5187,2.763067 -13.8603,4.149588 -22.0048,4.149588 -10.339,0 -18.9973,-1.401483 -25.9898,-4.1845 -6.9875,-2.802967 -12.4687,-7.002429 -16.4438,-12.613349 -3.965,-5.615908 -6.0697,-11.969964 -6.2642,-19.047204"
       style="fill:#141113;fill-opacity:1;fill-rule:nonzero;stroke:none"
       id="path72"
       inkscape:connector-curvature="0" />
    <path
       d="m 2440.9701,-71.447744 c 0,9.835322 2.3142,17.186874 6.9426,22.074609 4.6184,4.902698 10.4338,7.341578 17.4462,7.341578 6.9576,0 12.763,-2.45883 17.3814,-7.371503 4.6234,-4.912672 6.9426,-12.398887 6.9426,-22.483581 0,-9.4862 -2.3391,-16.67815 -6.9825,-21.575863 -4.6583,-4.887731 -10.4238,-7.326616 -17.3415,-7.326616 -7.0124,0 -12.8278,2.428909 -17.4462,7.296695 -4.6284,4.872771 -6.9426,12.209359 -6.9426,22.044681 z m -14.4088,0 c 0,-14.204357 4.2443,-24.737925 12.7779,-31.580756 7.1022,-5.68074 15.7904,-8.5286 26.0197,-8.5286 11.3765,0 20.6831,3.45134 27.9,10.364 7.2169,6.922625 10.8329,16.473657 10.8329,28.6531 0,9.885195 -1.611,17.660682 -4.793,23.321477 -3.197,5.665783 -7.8404,10.05477 -13.94,13.196885 -6.1197,3.127153 -12.783,4.683248 -19.9999,4.683248 -11.5809,0 -20.9524,-3.436377 -28.0945,-10.329081 -7.1371,-6.892704 -10.7031,-16.8178 -10.7031,-29.780273"
       style="fill:#141113;fill-opacity:1;fill-rule:nonzero;stroke:none"
       id="path74"
       inkscape:connector-curvature="0" />
    <path
       d="m 2520.2212,-33.069047 14.0293,0 0,-105.962613 -14.0293,0 0,105.962613 z"
       style="fill:#141113;fill-opacity:1;fill-rule:nonzero;stroke:none"
       id="path76"
       inkscape:connector-curvature="0" />
    <path
       d="m 2565.1785,-71.447744 c 0,9.835322 2.3191,17.186874 6.9425,22.074609 4.6184,4.902698 10.4338,7.341578 17.4562,7.341578 6.9476,0 12.7531,-2.45883 17.3814,-7.371503 4.6184,-4.912672 6.9326,-12.398887 6.9326,-22.483581 0,-9.4862 -2.3341,-16.67815 -6.9824,-21.575863 -4.6584,-4.887731 -10.4239,-7.326616 -17.3316,-7.326616 -7.0224,0 -12.8378,2.428909 -17.4562,7.296695 -4.6234,4.872771 -6.9425,12.209359 -6.9425,22.044681 z m -14.4089,0 c 0,-14.204357 4.2493,-24.737925 12.783,-31.580756 7.1071,-5.68074 15.7903,-8.5286 26.0246,-8.5286 11.3715,0 20.6731,3.45134 27.89,10.364 7.2169,6.922625 10.8329,16.473657 10.8329,28.6531 0,9.885195 -1.606,17.660682 -4.793,23.321477 -3.197,5.665783 -7.8404,10.05477 -13.94,13.196885 -6.1147,3.127153 -12.768,4.683248 -19.9899,4.683248 -11.5909,0 -20.9624,-3.436377 -28.0994,-10.329081 -7.1421,-6.892704 -10.7082,-16.8178 -10.7082,-29.780273"
       style="fill:#141113;fill-opacity:1;fill-rule:nonzero;stroke:none"
       id="path78"
       inkscape:connector-curvature="0" />
    <rect
       style="opacity:1;fill:none;fill-opacity:1;stroke:#0056ca;stroke-width:9.95265865;stroke-miterlimit:4;stroke-dasharray:none;stroke-opacity:1"
       id="rect5186"
       width="2824.2664"
       height="2824.3989"
       x="5.5784717"
       y="-1777.5488" />
  </g>
</svg>
