<?xml version="1.0" encoding="UTF-8" standalone="no"?>
<!-- Generator: Adobe Illustrator 21.1.0, SVG Export Plug-In . SVG Version: 6.00 Build 0)  -->

<svg
   xmlns:dc="http://purl.org/dc/elements/1.1/"
   xmlns:cc="http://creativecommons.org/ns#"
   xmlns:rdf="http://www.w3.org/1999/02/22-rdf-syntax-ns#"
   xmlns:svg="http://www.w3.org/2000/svg"
   xmlns="http://www.w3.org/2000/svg"
   xmlns:sodipodi="http://sodipodi.sourceforge.net/DTD/sodipodi-0.dtd"
   xmlns:inkscape="http://www.inkscape.org/namespaces/inkscape"
   version="1.1"
   id="Capa_1"
   x="0px"
   y="0px"
   viewBox="0 0 199.68896 203.63144"
   xml:space="preserve"
   sodipodi:docname="FONASA.svg"
   width="199.68896"
   height="203.63144"
   inkscape:version="0.92.4 (5da689c313, 2019-01-14)"
   inkscape:export-filename="E:\WebProjects\ConsultaMD\ConsultaMD\wwwroot\img\logo-fonasa.png"
   inkscape:export-xdpi="149"
   inkscape:export-ydpi="149"><metadata
   id="metadata277"><rdf:RDF><cc:Work
       rdf:about=""><dc:format>image/svg+xml</dc:format><dc:type
         rdf:resource="http://purl.org/dc/dcmitype/StillImage" /><dc:title></dc:title></cc:Work></rdf:RDF></metadata><defs
   id="defs275" /><sodipodi:namedview
   pagecolor="#ffffff"
   bordercolor="#666666"
   borderopacity="1"
   objecttolerance="10"
   gridtolerance="10"
   guidetolerance="10"
   inkscape:pageopacity="0"
   inkscape:pageshadow="2"
   inkscape:window-width="1366"
   inkscape:window-height="745"
   id="namedview273"
   showgrid="false"
   fit-margin-top="0"
   fit-margin-left="0"
   fit-margin-right="0"
   fit-margin-bottom="0"
   inkscape:zoom="2.6"
   inkscape:cx="30.761959"
   inkscape:cy="98.681448"
   inkscape:window-x="-8"
   inkscape:window-y="-8"
   inkscape:window-maximized="1"
   inkscape:current-layer="g270" />
<style
   type="text/css"
   id="style2">
	.st0{fill:#04ACED;}
	.st1{fill:#EE3F44;}
	.st2{fill:#086DB5;}
	.st3{fill:#F9FCFB;}
	.st4{fill:#A6CD3E;}
	.st5{fill:#FDFDFD;}
</style>
<g
   id="g270"
   transform="translate(-13.7,-11.9)">
	<path
   class="st0"
   d="m 14,141.7 c 2.7,-4.3 2.7,-9.4 4.4,-14 7.2,-20.6 19.9,-36.7 38.6,-48 7.9,-4.8 16.4,-7.5 25.5,-8.7 1.1,-0.1 2.3,-0.3 2.8,-1.4 3.5,-0.6 6.7,0.4 9.8,1.8 20.8,3.8 31.3,18 37.6,36.6 -0.1,0.6 -0.3,1 -0.9,1.5 -3.9,2.8 -7.5,5.8 -10.9,9.2 -1.4,1.4 -1.8,3.7 -3.9,4.5 -2.5,-4.1 -5.7,-7.5 -9.3,-10.6 -6.9,-6 -14.8,-10 -24.2,-10 -4.8,-5.8 -10.9,-7.7 -17.9,-5 -7.5,2.8 -11.5,8.6 -12.7,16.4 -3.1,2 -5.7,4.6 -7.8,7.6 0,0 -0.2,0.1 -0.2,0.1 -0.6,0.1 -0.9,0.6 -1,1.2 0,0 0,0 0,0 -0.8,0.2 -1.1,0.8 -1.3,1.5 -0.2,0.1 -0.3,0.3 -0.3,0.5 -2.5,2.4 -4.1,5.5 -5.7,8.5 -0.1,0.2 -0.1,0.5 -0.2,0.7 -1.4,1.5 -2.2,3.4 -2.8,5.3 -0.1,0.4 -0.2,0.8 -0.3,1.2 -1.8,1.7 -1.9,4.2 -2.7,6.3 -0.1,0.5 -0.2,1 -0.3,1.5 -1,0.7 -0.7,1.9 -1.1,2.9 -0.1,0.8 -0.2,1.6 -0.4,2.4 -0.8,1.7 -1.6,3.3 -1.3,5.3 -0.1,0.7 -0.2,1.3 -0.2,2 -2,9.6 -2.1,19.2 0.1,28.8 0,0.5 0.1,1 0.1,1.5 -0.3,2.2 0.5,4.1 1.3,6 0.1,0.7 0.1,1.5 0.2,2.2 -0.1,1.2 0.5,2.2 1.2,3.1 0.1,0.7 0.2,1.5 0.3,2.2 -0.1,0.9 -0.3,1.8 -1.6,1.4 0,-0.3 -0.1,-0.5 -0.3,-0.7 -0.1,-0.8 -0.5,-1.3 -1.2,-1.6 0,0 0,0 0,0 0,-1.1 -0.7,-1.9 -1.5,-2.5 0.1,-0.2 0.1,-0.3 -0.1,-0.4 -2.5,-5.5 -4.9,-11 -7.4,-16.5 -0.1,-0.5 -0.2,-1 -0.3,-1.5 0,-1.3 -0.3,-2.4 -1.3,-3.2 -0.1,-0.4 -0.1,-0.8 -0.2,-1.3 -0.8,-3.3 -0.2,-7 -2.9,-9.8 0.3,-9 0.3,-18 0.3,-27 z"
   id="path4"
   inkscape:connector-curvature="0"
   style="fill:#04aced" />
	<path
   class="st0"
   d="M 83.1,69 C 74.1,67.4 68.2,59.9 66.5,51 63.4,35 72.2,19.5 87.6,13.5 c 0.8,-0.3 1.8,-0.3 1.4,-1.6 4.8,0 9.5,0 14.3,0 0,0.7 0.4,1.2 1.1,1.4 12.4,3.7 18.2,18.4 14.5,31.9 -3,11 -9.6,19.1 -20.5,23.3 -1.3,0.4 -2.3,0.5 -3.4,0.5 -4,0 -8,0 -11.9,0 z"
   id="path6"
   inkscape:connector-curvature="0"
   style="fill:#04aced" />
	
	
	
	
	
	<path
   class="st4"
   d="m 117,123.2 c 2.1,-0.8 2.5,-3.1 3.9,-4.5 3.3,-3.4 7,-6.4 10.9,-9.2 0.6,-0.4 0.8,-0.9 0.9,-1.5 1.8,0.8 2.6,-1 3.8,-1.6 5.8,-3 11.8,-5.3 18.3,-6.3 -0.1,-1.8 -1.5,-1.8 -2.4,-2.1 -15.1,-5.1 -23.2,-28.2 -15.4,-42.6 4.9,-9.1 15.7,-12 24.3,-6.3 12.1,8 16.1,19.5 14.3,33.2 -1,7.3 -4.7,13.5 -13.2,16.3 6,1.3 11.3,1.5 16.4,3.3 14,5 23.3,14.4 27.2,28.7 3.4,12.3 1.8,24.3 -3.2,36 -2.4,0.3 -4.3,-1.9 -6.7,-1.6 0.5,-2 0.9,-4.1 1.5,-6.1 4.7,-14.9 -3.8,-34.4 -17.7,-41.7 -18.9,-10 -40.5,-3.2 -53.7,10.8 -10.2,10.8 -15.5,23.9 -13.1,39.1 1.5,9.6 5.8,17.7 13.7,23.5 12.1,8.7 25.3,9.9 39.1,4.6 7.6,-2.9 14.5,-6.8 19.5,-13.6 2.4,-1.4 5.1,-1.5 7.8,-1.2 -0.7,0.9 -1.4,1.8 -2.1,2.7 0,0 0,0 0,0 -0.8,0.2 -1.3,0.7 -1.5,1.5 0,0 0,0 0,0 -0.8,0.2 -1.3,0.7 -1.5,1.5 0,0 0,0 0,0 -0.8,0.2 -1.3,0.7 -1.5,1.5 -1.8,0.7 -3.1,2.1 -4.6,3.3 -0.8,0 -1.3,0.5 -1.6,1.1 -1.2,0.6 -2.3,1.2 -3.5,1.8 -0.4,-0.1 -0.7,0.1 -0.7,0.6 -0.3,0.2 -0.5,0.4 -0.8,0.6 -2.5,0.5 -4.7,1.6 -6.8,2.8 -2.2,0.6 -4.4,1.2 -6.7,1.8 -2.6,0.6 -5.6,-0.8 -7.9,1.5 -2.2,-0.4 -4.4,-0.5 -6.6,0 -1.5,-2 -3.8,-1 -5.7,-1.2 -0.8,-0.4 -1.7,-0.5 -2.6,-0.2 -1.3,-1.4 -3.1,-1.3 -4.8,-1.6 -0.8,-1 -1.8,-1.4 -3,-1.3 -0.8,-0.9 -1.7,-1.5 -2.9,-1.6 0,0 0,0 0,0 -0.3,-0.7 -0.8,-1.1 -1.6,-1.2 -0.2,-0.1 -0.5,-0.1 -0.7,-0.2 -0.5,-0.8 -1.1,-1.6 -2.2,-1.5 0,0 0,0 0,0 -0.3,-0.8 -0.8,-1.2 -1.5,-1.4 0,0 0,0 0,0 -1.8,-1.7 -3.5,-3.5 -5.3,-5.2 -0.2,-0.3 -0.5,-0.5 -0.7,-0.8 -0.2,-0.8 -0.7,-1.3 -1.5,-1.5 0,0 0,0 0,0 0,-1 -0.5,-1.6 -1.4,-1.8 0.1,-0.2 0,-0.3 -0.1,-0.4 0,-1.1 -0.5,-1.9 -1.4,-2.5 -0.1,-0.4 -0.2,-0.8 -0.4,-1.2 -0.1,-0.7 -0.5,-1.3 -1.2,-1.6 0,0 0,0 0,0 0,-1.3 -0.3,-2.5 -1.5,-3.2 0,-0.4 -0.1,-0.8 -0.1,-1.2 0.1,-1.5 -0.1,-2.9 -1.4,-4 0,-0.7 -0.1,-1.3 -0.1,-2 0,-6 0,-12 0,-18 0,-0.6 0.1,-1.3 0.1,-1.9 1.9,-2 1.1,-4.8 2.4,-7 0.7,-0.6 0.5,-1.4 0.6,-2.1 0.7,-0.7 1.4,-1.3 1.3,-2.4 0.2,-0.2 0.2,-0.4 0.2,-0.6 1.6,-3.8 3.8,-6.8 5.1,-10.3 z"
   id="path18"
   inkscape:connector-curvature="0"
   style="fill:#a6cd3e" />
	
	
	
	
	<path
   class="st0"
   d="m 193.1,180.2 c -2.7,-0.3 -5.3,-0.2 -7.8,1.2 -6.3,-0.4 -12.7,-0.4 -19,-1.4 -17.6,-2.7 -32.6,-9.9 -43.5,-24.4 -0.7,-0.9 -2,-2.3 -1.5,-2.8 2.5,-2 0.3,-3.8 -0.1,-5.5 -1,-4.7 1.1,-9 5.5,-11 7.7,-3.4 14.3,-0.8 20.3,4.1 3.3,2.7 5.5,6.5 4.4,10.8 -1.1,4.5 -4.7,7 -9.3,7.9 -2.8,0 -5.6,0 -8.4,0 2.3,0.6 3.8,2.7 6.2,2.6 7.1,3.2 14.7,4.2 22.4,4.6 11.3,0.5 22.4,-3 33.7,-1.5 2.4,-0.3 4.3,1.9 6.7,1.6 3.3,1.9 6.9,3.2 9.5,6.2 1.8,2.1 1.6,3.3 -0.9,3.9 -5.8,1.3 -11.5,2.9 -17.4,3.6 -0.2,0 -0.5,0.1 -0.8,0.1 z"
   id="path28"
   inkscape:connector-curvature="0"
   style="fill:#04aced" />
	
	<path
   class="st2"
   d="m 36.5,179 c -0.1,-1.4 -0.2,-2.9 -0.3,-4.3 -0.6,-3.2 -0.5,-6.5 0,-9.8 0,-0.5 0.1,-1 0.1,-1.5 0.4,-1.7 0.7,-3.4 1.1,-5.1 0,0 0,0 0,0 0.4,-0.2 0.5,-0.5 0.4,-0.9 0.1,-0.4 0.2,-0.8 0.3,-1.3 1.1,-1.4 1.7,-3 2.2,-4.7 0.3,-0.5 0.5,-0.9 0.8,-1.4 3.8,-5.7 8.7,-10.1 14.6,-13.5 0.2,0.1 0.3,0 0.4,-0.2 1.2,-0.1 2.1,-0.7 3,-1.5 0.6,0 1.2,0.2 1.6,-0.4 8.8,-2.7 17.8,-2.6 26.8,-1.3 0.8,0.1 1.5,0.2 2.3,0.4 1.2,0.7 2.4,1.2 3.8,1.2 0.2,0.1 0.4,0.2 0.7,0.1 1.8,0.8 3.6,1.5 5.3,2.4 0.8,0.4 2.2,0.6 1.6,2 -0.5,1.3 -1.6,0.6 -2.5,0.5 -6.8,-0.9 -13.6,-0.6 -20.2,1.6 0,0 0.1,-0.1 0.1,-0.1 -1,0.3 -2.2,0 -3,0.9 -0.5,0.2 -1,0.3 -1.5,0.5 -0.7,0.4 -1.7,0.1 -2.2,1 -0.3,0 -0.5,0 -0.7,0.2 -1.6,0.7 -3.4,1.2 -4.6,2.7 0,0 0,0 0,0 -1.2,0.2 -2.1,0.7 -2.9,1.6 -0.8,0.1 -1.2,0.6 -1.5,1.2 -1.7,0.6 -2.7,2 -3.8,3.2 -2.1,1.4 -3.8,3.2 -5.1,5.4 -1.8,2 -3.6,4.1 -4.5,6.7 0,0 0,0 0,0 -1.5,1.7 -2.1,3.9 -2.9,5.9 -0.1,0.4 -0.2,0.9 -0.2,1.3 -0.7,0.4 -0.6,1.1 -0.6,1.7 -0.2,0.1 -0.3,0.2 -0.2,0.4 -0.5,0.2 -0.6,0.6 -0.5,1.1 -0.1,0.5 -0.1,1 -0.2,1.5 -1.8,3.3 -1.4,6.9 -1.4,10.5 0,1.8 0,3.5 0,5.3 -0.1,0.4 -0.2,0.9 -0.4,1.3 0,0 0.1,-0.1 0.1,-0.1 -0.4,-0.5 -0.8,-1.1 -1.2,-1.6 -0.2,-0.6 -0.5,-1.2 -0.7,-1.8 0,-0.9 -0.3,-1.7 -0.9,-2.3 0,0 0,0 0,0 -0.1,-1.5 -0.6,-2.8 -1.4,-4 0.1,-0.2 0,-0.4 -0.2,-0.5 0,-0.7 0.2,-1.4 -0.6,-1.8 0.1,-0.2 0,-0.3 -0.2,-0.4 -0.1,-0.5 0.1,-1.5 -0.8,-2.1 z"
   id="path32"
   inkscape:connector-curvature="0"
   style="fill:#086db5" />
	<path
   class="st2"
   d="m 52.9,114 c 1.2,-7.8 5.3,-13.6 12.7,-16.4 7,-2.7 13.1,-0.8 17.9,5 0.3,0.6 0.6,1.1 0.9,1.7 -0.1,0.3 0,0.5 0.2,0.6 1.4,4.5 1.1,9 0,13.5 -0.1,0.4 -0.2,0.8 -0.3,1.3 -7,11 -13.3,13.9 -23.7,11.1 -0.7,-0.4 -1.5,-0.8 -2.2,-1.3 -0.8,-0.8 -1.6,-1.5 -2.4,-2.3 -0.4,-0.5 -0.7,-0.9 -1.1,-1.4 -0.6,-1.3 -1.3,-2.6 -1.9,-4 0.1,-0.2 0,-0.4 -0.2,-0.6 0.4,-2.2 -0.7,-4.7 0.1,-7.2 z"
   id="path34"
   inkscape:connector-curvature="0"
   style="fill:#086db5" />
	
	
	
	
	
	
	
	
	
	
	
	
	
	
	
	
	
	
	
	
	
	
	
	
	
	
	
	
	
	
	
	
	
	
	
	
	
	
	
	
	
	
	
	
	
	
	
	
	
	
	
	
	
	
	
	
	
	
	
	
	
	
	
	
	
	
	
	
	
	
	
	
	
	
	
	
	
	
	
	
	
	
	
	
	
	
	
	
	
	
	
	
	
	
	
	
	
	
	
	
	
	
	
	
	
	
	
	
	
	
	
	
	
	
	
	
	
</g>
</svg>