<?xml version="1.0" encoding="utf-8"?>
<!-- Generator: Adobe Illustrator 21.1.0, SVG Export Plug-In . SVG Version: 6.00 Build 0)  -->
<svg version="1.1" id="Capa_1" xmlns="http://www.w3.org/2000/svg" xmlns:xlink="http://www.w3.org/1999/xlink" x="0px" y="0px"
	 viewBox="0 0 642.5 233.7" style="enable-background:new 0 0 642.5 233.7;" xml:space="preserve">
<style type="text/css">
	.st0{fill:#04ACED;}
	.st1{fill:#EE3F44;}
	.st2{fill:#086DB5;}
	.st3{fill:#F9FCFB;}
	.st4{fill:#A6CD3E;}
	.st5{fill:#FDFDFD;}
</style>
<g>
	<path class="st0" d="M14,141.7c2.7-4.3,2.7-9.4,4.4-14c7.2-20.6,19.9-36.7,38.6-48c7.9-4.8,16.4-7.5,25.5-8.7
		c1.1-0.1,2.3-0.3,2.8-1.4c3.5-0.6,6.7,0.4,9.8,1.8c20.8,3.8,31.3,18,37.6,36.6c-0.1,0.6-0.3,1-0.9,1.5c-3.9,2.8-7.5,5.8-10.9,9.2
		c-1.4,1.4-1.8,3.7-3.9,4.5c-2.5-4.1-5.7-7.5-9.3-10.6c-6.9-6-14.8-10-24.2-10c-4.8-5.8-10.9-7.7-17.9-5
		c-7.5,2.8-11.5,8.6-12.7,16.4c-3.1,2-5.7,4.6-7.8,7.6c0,0-0.2,0.1-0.2,0.1c-0.6,0.1-0.9,0.6-1,1.2c0,0,0,0,0,0
		c-0.8,0.2-1.1,0.8-1.3,1.5c-0.2,0.1-0.3,0.3-0.3,0.5c-2.5,2.4-4.1,5.5-5.7,8.5c-0.1,0.2-0.1,0.5-0.2,0.7c-1.4,1.5-2.2,3.4-2.8,5.3
		c-0.1,0.4-0.2,0.8-0.3,1.2c-1.8,1.7-1.9,4.2-2.7,6.3c-0.1,0.5-0.2,1-0.3,1.5c-1,0.7-0.7,1.9-1.1,2.9c-0.1,0.8-0.2,1.6-0.4,2.4
		c-0.8,1.7-1.6,3.3-1.3,5.3c-0.1,0.7-0.2,1.3-0.2,2c-2,9.6-2.1,19.2,0.1,28.8c0,0.5,0.1,1,0.1,1.5c-0.3,2.2,0.5,4.1,1.3,6
		c0.1,0.7,0.1,1.5,0.2,2.2c-0.1,1.2,0.5,2.2,1.2,3.1c0.1,0.7,0.2,1.5,0.3,2.2c-0.1,0.9-0.3,1.8-1.6,1.4c0-0.3-0.1-0.5-0.3-0.7
		c-0.1-0.8-0.5-1.3-1.2-1.6c0,0,0,0,0,0c0-1.1-0.7-1.9-1.5-2.5c0.1-0.2,0.1-0.3-0.1-0.4c-2.5-5.5-4.9-11-7.4-16.5
		c-0.1-0.5-0.2-1-0.3-1.5c0-1.3-0.3-2.4-1.3-3.2c-0.1-0.4-0.1-0.8-0.2-1.3c-0.8-3.3-0.2-7-2.9-9.8C14,159.7,14,150.7,14,141.7z"/>
	<path class="st0" d="M83.1,69c-9-1.6-14.9-9.1-16.6-18c-3.1-16,5.7-31.5,21.1-37.5c0.8-0.3,1.8-0.3,1.4-1.6c4.8,0,9.5,0,14.3,0
		c0,0.7,0.4,1.2,1.1,1.4c12.4,3.7,18.2,18.4,14.5,31.9c-3,11-9.6,19.1-20.5,23.3C97.1,68.9,96.1,69,95,69C91,69,87,69,83.1,69z"/>
	<path class="st1" d="M441.3,211.5c1.1,0,2.2-0.1,3.4-0.1c58.1,0,116.2,0,174.2-0.1c3.5,0,4.6,1,4.2,4.3c-0.3,2.8-0.1,5.7-0.2,8.6
		c-60.5,0-121,0-181.5,0C441.4,220,441.4,215.7,441.3,211.5z"/>
	<path class="st2" d="M636.5,136.4c-2.7,6.5-3.7,13.5-5.5,20.3c-3,11.3-6.5,22.4-7.3,34.1c-0.1,0.7-0.1,1.4-1.1,1.6
		c-6.2,1.2-10.7-4-8.9-10.2c0.3-1,1.1-2.3-0.2-2.9c-1.1-0.5-1.6,0.9-2.2,1.7c-7.7,9.6-22.5,14.1-34.1,10.5c-9-2.8-14.4-11-13.4-20.4
		c1.5-14.2,9.2-24.2,21.1-31.2c6.2-3.6,12.9-5.7,20.2-6.9c9.9-1.6,19.5-0.8,29.2,0.5c0.7,0.1,1.5-0.1,2.2-0.1
		C636.5,134.4,636.5,135.4,636.5,136.4z M613.5,139.9c-7.5,0.1-14.4,2.1-20.8,6.1c-8.9,5.7-13.9,14.1-16,24.2
		c-1.3,6.5,4.5,13.6,11.3,14.1c10.1,0.8,16.9-4.8,22.8-12c5.8-7,7-15.8,9.1-24.2C622,139.9,621.9,139.9,613.5,139.9z"/>
	<path class="st2" d="M441.3,211.5c0,4.2,0.1,8.5,0.1,12.7c-49.8,0-99.5,0-149.3,0c0.1-3.5,0.2-7,0.2-10.5c0-1.8,0.5-2.5,2.4-2.4
		c2.2,0.1,4.5,0,6.7,0c45.2,0,90.5,0,135.7,0C438.6,211.4,440,211.4,441.3,211.5z"/>
	<path class="st3" d="M14,168.7c2.7,2.7,2.1,6.5,2.9,9.8c-1,0-1.9,0-2.9,0C14,175.2,14,171.9,14,168.7z"/>
	<path class="st3" d="M14,182.9c0.5,0.1,1.3,0.1,1.1,0.9c-0.1,0.3-0.7,0.4-1.1,0.6C14,183.9,14,183.4,14,182.9z"/>
	<path class="st4" d="M117,123.2c2.1-0.8,2.5-3.1,3.9-4.5c3.3-3.4,7-6.4,10.9-9.2c0.6-0.4,0.8-0.9,0.9-1.5c1.8,0.8,2.6-1,3.8-1.6
		c5.8-3,11.8-5.3,18.3-6.3c-0.1-1.8-1.5-1.8-2.4-2.1c-15.1-5.1-23.2-28.2-15.4-42.6c4.9-9.1,15.7-12,24.3-6.3
		c12.1,8,16.1,19.5,14.3,33.2c-1,7.3-4.7,13.5-13.2,16.3c6,1.3,11.3,1.5,16.4,3.3c14,5,23.3,14.4,27.2,28.7
		c3.4,12.3,1.8,24.3-3.2,36c-2.4,0.3-4.3-1.9-6.7-1.6c0.5-2,0.9-4.1,1.5-6.1c4.7-14.9-3.8-34.4-17.7-41.7
		c-18.9-10-40.5-3.2-53.7,10.8c-10.2,10.8-15.5,23.9-13.1,39.1c1.5,9.6,5.8,17.7,13.7,23.5c12.1,8.7,25.3,9.9,39.1,4.6
		c7.6-2.9,14.5-6.8,19.5-13.6c2.4-1.4,5.1-1.5,7.8-1.2c-0.7,0.9-1.4,1.8-2.1,2.7c0,0,0,0,0,0c-0.8,0.2-1.3,0.7-1.5,1.5c0,0,0,0,0,0
		c-0.8,0.2-1.3,0.7-1.5,1.5c0,0,0,0,0,0c-0.8,0.2-1.3,0.7-1.5,1.5c-1.8,0.7-3.1,2.1-4.6,3.3c-0.8,0-1.3,0.5-1.6,1.1
		c-1.2,0.6-2.3,1.2-3.5,1.8c-0.4-0.1-0.7,0.1-0.7,0.6c-0.3,0.2-0.5,0.4-0.8,0.6c-2.5,0.5-4.7,1.6-6.8,2.8c-2.2,0.6-4.4,1.2-6.7,1.8
		c-2.6,0.6-5.6-0.8-7.9,1.5c-2.2-0.4-4.4-0.5-6.6,0c-1.5-2-3.8-1-5.7-1.2c-0.8-0.4-1.7-0.5-2.6-0.2c-1.3-1.4-3.1-1.3-4.8-1.6
		c-0.8-1-1.8-1.4-3-1.3c-0.8-0.9-1.7-1.5-2.9-1.6c0,0,0,0,0,0c-0.3-0.7-0.8-1.1-1.6-1.2c-0.2-0.1-0.5-0.1-0.7-0.2
		c-0.5-0.8-1.1-1.6-2.2-1.5c0,0,0,0,0,0c-0.3-0.8-0.8-1.2-1.5-1.4c0,0,0,0,0,0c-1.8-1.7-3.5-3.5-5.3-5.2c-0.2-0.3-0.5-0.5-0.7-0.8
		c-0.2-0.8-0.7-1.3-1.5-1.5c0,0,0,0,0,0c0-1-0.5-1.6-1.4-1.8c0.1-0.2,0-0.3-0.1-0.4c0-1.1-0.5-1.9-1.4-2.5c-0.1-0.4-0.2-0.8-0.4-1.2
		c-0.1-0.7-0.5-1.3-1.2-1.6c0,0,0,0,0,0c0-1.3-0.3-2.5-1.5-3.2c0-0.4-0.1-0.8-0.1-1.2c0.1-1.5-0.1-2.9-1.4-4c0-0.7-0.1-1.3-0.1-2
		c0-6,0-12,0-18c0-0.6,0.1-1.3,0.1-1.9c1.9-2,1.1-4.8,2.4-7c0.7-0.6,0.5-1.4,0.6-2.1c0.7-0.7,1.4-1.3,1.3-2.4
		c0.2-0.2,0.2-0.4,0.2-0.6C113.5,129.7,115.7,126.7,117,123.2z"/>
	<path class="st2" d="M489.3,178.2c-3,3.7-6.2,7-10.1,9.5c-8.9,5.7-18.4,6.8-28.3,3.7c-10.1-3.2-14.6-13.4-11.2-25.5
		c4.8-17.3,17.4-26.7,33.9-31.4c11.6-3.3,23.5-2.4,35.3-0.7c2,0.3,2.9,1,2.3,3.4c-3.8,13.8-7.4,27.7-10.9,41.6
		c-0.9,3.6-1.3,7.3-1.6,11c-0.2,1.8-0.4,2.6-2.6,2.4c-6.6-0.4-9.3-4-7.3-10.1C489.2,181,490,179.9,489.3,178.2z M464.8,184.7
		c10.5-0.4,17.5-6.4,22.9-14.6c5.4-8.3,6.1-18.2,9-27.4c0.5-1.7-1.1-2.1-2.3-2.2c-8.3-0.7-16.4-0.1-23.9,4.2
		c-10.8,6.2-18,14.9-18.1,28C452.4,181.1,457.6,184.8,464.8,184.7z"/>
	<path class="st2" d="M270.8,112.1c7.1,0,14.2,0.1,21.4,0c2.6,0,3,0.8,2.2,3.1c-1,3.2-2.7,5.1-6.4,5c-8.1-0.2-16.2-0.1-24.4,0
		c-6.9,0.1-13.1,2.7-14.8,11.3c-1.3,6.5-3.2,13-5,19.4c-0.7,2.7-0.1,3.5,2.8,3.5c10.5-0.1,21,0,31.5-0.1c3.2-0.1,3.6,1,2.7,3.7
		c-1.2,3.6-3.7,5.1-7.3,5.1c-9.7,0-19.5,0.1-29.2-0.1c-2.4,0-3.4,0.6-4,3.1c-3.4,14-7,27.9-10.5,41.9c-1.1,4.2-2.8,5.2-7.6,4.1
		c-3.2-0.7-5.6-4.4-4.8-7.7c2.9-11.5,5.9-23,8.8-34.6c4-15.9,8-31.8,12-47.8c1.8-7,5.5-9.9,12.8-10C257.5,112,264.2,112,270.8,112.1
		C270.8,112,270.8,112,270.8,112.1z"/>
	<path class="st2" d="M330.9,131.9c6.6,0.1,13.5,1.1,19.4,5.3c9.7,7,12.8,17.5,8.1,29.5c-5.8,14.8-17.2,22.8-32.7,25.5
		c-6.4,1.1-12.7,0.9-18.9-0.9c-17-4.9-22.4-19.8-15.8-35.2C297.6,140.8,312.6,131.9,330.9,131.9z M319.5,184.6
		c12.8,0,24.1-10.8,26.9-24.7c1.8-9.1-4-19.9-16.7-20.1c-13.6-0.2-24.9,10.4-27.3,24.1C300.1,176.1,307.2,184.6,319.5,184.6z"/>
	<path class="st2" d="M385.4,143.4c8.1-7.6,17.5-11.5,28.8-11.2c12.7,0.4,19.4,8.4,17.1,20.9c-2.3,12.5-6,24.6-8.8,36.9
		c-0.4,2-1.2,2.6-3.4,2.3c-7.7-1.2-9.4-3.4-7.6-10.9c2-8.6,4.1-17.1,6.1-25.7c3.4-14.4-7.5-17.2-16.5-14.3
		c-11.6,3.8-18.3,12.3-21.1,24c-1.9,8.2-4.1,16.4-5.9,24.7c-0.4,1.9-1.2,2.5-3,2.4c-2.5-0.1-5-0.2-7.5,0c-2.5,0.2-3-0.8-2.4-3.1
		c3.1-12.4,6.1-24.8,9.1-37.2c1.4-5.8,2.6-11.7,3.8-17.5c0.4-2,1.1-3.1,3.6-3.1c8.8,0.1,8.8-0.1,7.3,8.5c-0.1,0.9-0.1,1.7-0.1,2.6
		c-0.1,0.3-0.1,0.6-0.2,0.9C385,143.7,385.2,143.5,385.4,143.4z"/>
	<path class="st0" d="M193.1,180.2c-2.7-0.3-5.3-0.2-7.8,1.2c-6.3-0.4-12.7-0.4-19-1.4c-17.6-2.7-32.6-9.9-43.5-24.4
		c-0.7-0.9-2-2.3-1.5-2.8c2.5-2,0.3-3.8-0.1-5.5c-1-4.7,1.1-9,5.5-11c7.7-3.4,14.3-0.8,20.3,4.1c3.3,2.7,5.5,6.5,4.4,10.8
		c-1.1,4.5-4.7,7-9.3,7.9c-2.8,0-5.6,0-8.4,0c2.3,0.6,3.8,2.7,6.2,2.6c7.1,3.2,14.7,4.2,22.4,4.6c11.3,0.5,22.4-3,33.7-1.5
		c2.4-0.3,4.3,1.9,6.7,1.6c3.3,1.9,6.9,3.2,9.5,6.2c1.8,2.1,1.6,3.3-0.9,3.9c-5.8,1.3-11.5,2.9-17.4,3.6
		C193.7,180.1,193.4,180.2,193.1,180.2z"/>
	<path class="st2" d="M544.9,131.8c5.4,0.1,9.7,0.7,14,1.8c2,0.5,3.2,1.2,1.6,3.5c-0.5,0.7-0.7,1.6-1,2.4c-0.8,2.1-1.5,2.8-4.3,2
		c-6.2-2-12.7-2.8-18.9,0.3c-6.1,3.1-6.5,9.1-0.9,12.9c2,1.4,4.4,2.3,6.6,3.5c3.5,1.9,6.7,3.8,9.8,6.5c8,7,3.6,18.5-3.8,22.8
		c-11.9,6.9-24.4,6.2-37.1,2.7c-2.7-0.7-2.6-1.9-1.5-4.2c1.6-3.4,3.1-4.6,7.1-3c6.1,2.4,12.6,2.8,19,0.8c3.5-1.1,6.2-3.2,6.9-7.1
		c0.7-4.3-1.7-7.1-5.2-9.1c-3.1-1.7-6.4-3.2-9.6-4.9c-5.2-2.7-9.3-6.6-9.3-12.9c0-6.2,3.8-10.3,8.9-13.4
		C532.9,132.9,539.4,132.3,544.9,131.8z"/>
	<path class="st2" d="M36.5,179c-0.1-1.4-0.2-2.9-0.3-4.3c-0.6-3.2-0.5-6.5,0-9.8c0-0.5,0.1-1,0.1-1.5c0.4-1.7,0.7-3.4,1.1-5.1
		c0,0,0,0,0,0c0.4-0.2,0.5-0.5,0.4-0.9c0.1-0.4,0.2-0.8,0.3-1.3c1.1-1.4,1.7-3,2.2-4.7c0.3-0.5,0.5-0.9,0.8-1.4
		c3.8-5.7,8.7-10.1,14.6-13.5c0.2,0.1,0.3,0,0.4-0.2c1.2-0.1,2.1-0.7,3-1.5c0.6,0,1.2,0.2,1.6-0.4c8.8-2.7,17.8-2.6,26.8-1.3
		c0.8,0.1,1.5,0.2,2.3,0.4c1.2,0.7,2.4,1.2,3.8,1.2c0.2,0.1,0.4,0.2,0.7,0.1c1.8,0.8,3.6,1.5,5.3,2.4c0.8,0.4,2.2,0.6,1.6,2
		c-0.5,1.3-1.6,0.6-2.5,0.5c-6.8-0.9-13.6-0.6-20.2,1.6c0,0,0.1-0.1,0.1-0.1c-1,0.3-2.2,0-3,0.9c-0.5,0.2-1,0.3-1.5,0.5
		c-0.7,0.4-1.7,0.1-2.2,1c-0.3,0-0.5,0-0.7,0.2c-1.6,0.7-3.4,1.2-4.6,2.7c0,0,0,0,0,0c-1.2,0.2-2.1,0.7-2.9,1.6
		c-0.8,0.1-1.2,0.6-1.5,1.2c-1.7,0.6-2.7,2-3.8,3.2c-2.1,1.4-3.8,3.2-5.1,5.4c-1.8,2-3.6,4.1-4.5,6.7c0,0,0,0,0,0
		c-1.5,1.7-2.1,3.9-2.9,5.9c-0.1,0.4-0.2,0.9-0.2,1.3c-0.7,0.4-0.6,1.1-0.6,1.7c-0.2,0.1-0.3,0.2-0.2,0.4c-0.5,0.2-0.6,0.6-0.5,1.1
		c-0.1,0.5-0.1,1-0.2,1.5c-1.8,3.3-1.4,6.9-1.4,10.5c0,1.8,0,3.5,0,5.3c-0.1,0.4-0.2,0.9-0.4,1.3c0,0,0.1-0.1,0.1-0.1
		c-0.4-0.5-0.8-1.1-1.2-1.6c-0.2-0.6-0.5-1.2-0.7-1.8c0-0.9-0.3-1.7-0.9-2.3c0,0,0,0,0,0c-0.1-1.5-0.6-2.8-1.4-4
		c0.1-0.2,0-0.4-0.2-0.5c0-0.7,0.2-1.4-0.6-1.8c0.1-0.2,0-0.3-0.2-0.4C37.2,180.6,37.4,179.6,36.5,179z"/>
	<path class="st2" d="M52.9,114c1.2-7.8,5.3-13.6,12.7-16.4c7-2.7,13.1-0.8,17.9,5c0.3,0.6,0.6,1.1,0.9,1.7c-0.1,0.3,0,0.5,0.2,0.6
		c1.4,4.5,1.1,9,0,13.5c-0.1,0.4-0.2,0.8-0.3,1.3c-7,11-13.3,13.9-23.7,11.1c-0.7-0.4-1.5-0.8-2.2-1.3c-0.8-0.8-1.6-1.5-2.4-2.3
		c-0.4-0.5-0.7-0.9-1.1-1.4c-0.6-1.3-1.3-2.6-1.9-4c0.1-0.2,0-0.4-0.2-0.6C53.2,119,52.1,116.5,52.9,114z"/>
	<path class="st3" d="M78.3,141.5c6.6-2.2,13.3-2.5,20.2-1.6c0.9,0.1,2,0.8,2.5-0.5c0.6-1.4-0.8-1.6-1.6-2c-1.7-0.9-3.5-1.6-5.3-2.4
		c1.4,0.2,2.3-0.7,3.2-1.6c0.6-0.5,1.1-1.6,2.1-0.7c1.3,1.2,2.5,0.7,3.7-0.2c0.6-0.5,1.4-0.7,2,0c0.6,0.7,0.1,1.4-0.3,2
		c-0.6,1-2.5,1.6-1.7,2.9c0.7,1.2,2.5,0.4,3.8,0.5c0.9,0.1,1.7,0.1,2.6,0.1c-1.3,2.2-0.5,5-2.4,7c-0.5-4-1.2-4.4-5-3.1
		c-0.8,0.3-1.1-0.4-1.6-0.7c-0.7-0.4-2-0.5-2,0.1c-0.1,5.4-2.8,1-3.7,0.8c-2.5-0.7-4.8-0.8-7.4-0.8
		C84.4,141.4,81.3,143.5,78.3,141.5z"/>
	<path class="st3" d="M60.6,130.8c10.4,2.8,16.7-0.2,23.7-11.1c1.8,3.8,3.1,7.4-2.3,9.5c-0.5,0.2-1,1.3-0.9,1.9
		c0.2,1.2,1.3,0.7,2.1,0.9c1.4,0.3,3.3-0.9,4.2,1.3c-9-1.4-18-1.4-26.8,1.3C61.1,133.3,61,132.1,60.6,130.8z"/>
	<path class="st3" d="M55.6,136.6c-5.8,3.5-10.8,7.8-14.6,13.5c-1.9-3.1-1.9-5.7,2-7c2.8-0.9,3.1-2.4,1-4.7c2-0.1,4,0.6,4.4-1.9h0
		C50.8,136.5,53.2,136.5,55.6,136.6z"/>
	<path class="st3" d="M18.6,184.4c2.5,5.5,4.9,11,7.4,16.5c-1,0-2,0-3,0c-0.1-1.2,0.4-2.7-1-3.3c-1.6-0.7-1.6,0.9-2.2,1.8
		c-0.4,0.7-1,0.6-1.5,0c-0.8-1-0.7-2.3,0.3-2.5c5.2-1.3,1.1-3.5,0.4-5.1c-0.8-1.7-2-3.1-2-5.1C17,185.6,17,184.5,18.6,184.4z"/>
	<path class="st3" d="M27.4,189.7c-2.1-9.6-2-19.2-0.1-28.8C28.3,170.6,28.2,180.1,27.4,189.7z"/>
	<path class="st3" d="M52.9,114c-0.8,2.5,0.3,4.9,0,7.4c-1.7-0.8-3.3-3.3-4.7,0.6c-0.6,1.7-2-0.1-3.1-0.4
		C47.2,118.6,49.8,116.1,52.9,114z"/>
	<path class="st3" d="M29,206.1c1.3,0.4,1.5-0.5,1.6-1.4c0.5,1,3.5-0.1,2,2.8c-0.7,1.3,2.7,0.5,2.4,2.5h0c-2.3,0.7-1.7,4.3-4.5,4.5
		h0C31.1,211.5,29.8,208.8,29,206.1z"/>
	<path class="st3" d="M107,146.9c0,6,0,12,0,18c-1.1-0.1-1.5-0.7-1.5-1.8c0-4.8,0-9.7,0-14.5C105.5,147.7,106,147.1,107,146.9z"/>
	<path class="st3" d="M36.6,133.4c1.6-3,3.2-6.1,5.7-8.5c0.9,1,1.6,2.2,3.1,2.5c-0.1,0.7,0,2-0.7,1.9c-3.5-0.9-4.9,1.4-6.5,3.7
		C38.1,133.4,37.2,133.3,36.6,133.4z"/>
	<path class="st3" d="M168.4,197.5c2.2-1.2,4.4-2.3,6.8-2.8c-0.2,3.2-3.1,3.4-5.1,4.5C169.1,199.9,168.5,198.6,168.4,197.5z"/>
	<path class="st3" d="M27.6,158.9c-0.3-1.9,0.5-3.6,1.3-5.3c3.7,0.5,1.5,3,1.4,4.5C30.3,160.6,28.6,158.7,27.6,158.9z"/>
	<path class="st3" d="M48.5,165c0.8-2.7,2.6-4.7,4.5-6.7c0,1.8,0.4,3.8-0.2,5.4C52.2,165.2,49.7,163.4,48.5,165z"/>
	<path class="st3" d="M116.6,185.2c1.8,1.7,3.5,3.5,5.3,5.2C116.7,190.8,115.4,189.5,116.6,185.2z"/>
	<path class="st3" d="M42.6,187.4c-0.1-3.6-0.4-7.2,1.4-10.5C47,180.9,42.8,183.9,42.6,187.4z"/>
	<path class="st3" d="M33.6,139.4c0.7-1.9,1.4-3.8,2.8-5.3C38.8,137.2,38.2,138.3,33.6,139.4z"/>
	<path class="st3" d="M42.5,194.9c0.4,0.2,1.1,0.3,1.3,0.6c0.6,1,2.3,2,1.4,3.1c-0.7,0.8-3.1,0.4-3.6,0.1c-1.4-0.9,0.3-2,0.8-3
		C42.4,195.4,42.4,195.2,42.5,194.9C42.5,194.9,42.5,194.9,42.5,194.9z"/>
	<path class="st2" d="M83.1,69c4,0,7.9,0,11.9,0c-1,0.8-0.3,1.6,0.1,2.4c-3.1-1.4-6.3-2.4-9.8-1.8C84.4,69.6,83.7,69.7,83.1,69z"/>
	<path class="st3" d="M40.3,151.4c-0.5,1.7-1.1,3.3-2.2,4.7c-0.1-2-2.7-3.5-1.1-5.8C38.1,150.5,38.9,151.8,40.3,151.4z"/>
	<path class="st3" d="M30.3,202.5c-0.7-0.9-1.3-1.9-1.2-3.1c2.8-0.2,3.8,1.5,4.3,3.8C31.9,204,31.5,202,30.3,202.5z"/>
	<path class="st3" d="M181.9,198.8c-2.2,0.8-3.3-0.4-4-1.5c-0.4-0.7,1-1.8,1.5-1.7C181.4,195.7,180,198.2,181.9,198.8z"/>
	<path class="st3" d="M28.9,197.2c-0.8-1.9-1.6-3.8-1.3-6C28.4,193.1,32.3,194.4,28.9,197.2z"/>
	<path class="st3" d="M153.8,200.8c2.3-2.3,5.3-0.9,7.9-1.5C159.4,201.6,156.5,200.8,153.8,200.8z"/>
	<path class="st3" d="M58,152.9c1.1-1.3,2.1-2.7,3.8-3.2c-0.1,0.6-0.2,1.2-0.3,1.8C61.3,154.3,60.1,154.7,58,152.9z"/>
	<path class="st3" d="M37.4,158.4c-0.4,1.7-0.7,3.4-1.1,5.1C34.1,161,34.4,159.5,37.4,158.4z"/>
	<path class="st3" d="M30.6,146.9c0.8-2.1,0.9-4.6,2.7-6.3C33.6,143.3,33.8,145.8,30.6,146.9z"/>
	<path class="st3" d="M36.2,164.9c-0.5,3.3-0.5,6.5,0,9.8C34.4,172.4,34.4,167.3,36.2,164.9z"/>
	<path class="st3" d="M32,193.2c0.1-1.1,1-1.8,2-2.3c0.7-0.3,0.9,0.5,0.9,1.2c-0.1,1.2-1.1,1.9-2,2.4C32.3,194.9,32,194,32,193.2z"
		/>
	<path class="st3" d="M29.3,151.3c0.4-0.9,0.1-2.2,1.1-2.9c0.9,0.1,2.3-0.2,2.1,1.3C32.3,151.7,30.7,151.4,29.3,151.3z"/>
	<path class="st3" d="M59,134.9c-0.9,0.7-1.8,1.3-3,1.5c0.2-1-0.4-2.3,1-2.8C58.1,133.2,58.8,133.7,59,134.9z"/>
	<path class="st3" d="M193.1,180.2c0.3,0,0.6-0.1,0.9-0.1c-0.3,1.6,1.3,5.3-3,2.9C191.7,182,192.4,181.1,193.1,180.2z"/>
	<path class="st3" d="M45.2,127.5c0.7-1.5,0.7-3,2.4-2.8c0.7,0.1,0.8,0.8,0.7,1.4C48.1,128,46.5,127.2,45.2,127.5z"/>
	<path class="st3" d="M45.6,170.9c0.8-2.1,1.4-4.2,2.9-5.9C48.6,167.5,48.6,169.9,45.6,170.9z"/>
	<path class="st3" d="M141.5,199.6c1.9,0.2,4.1-0.8,5.7,1.2C145.2,200.4,142.9,202.2,141.5,199.6z"/>
	<path class="st3" d="M51.2,129.9c-0.3,0.8-0.9,1.6-1.7,1.7c-0.7,0.1-0.9-0.6-0.9-1.3c0-0.9,0.5-1.3,1.4-1.3
		C50.6,129,51.1,129.1,51.2,129.9z"/>
	<path class="st3" d="M30.6,186.2c0.1-1,0.7-1.6,1.7-1.7c0.5,0,1.1,0.2,0.9,0.8c-0.2,0.9-0.9,1.5-1.7,1.8
		C30.9,187.3,30.6,186.8,30.6,186.2z"/>
	<path class="st3" d="M55.8,165c1.2,0,1.7,0.6,1.6,1.6c0,0.5-0.4,1.1-0.8,0.9c-0.7-0.4-1.3-1.1-1.7-1.8
		C54.6,165.2,55.4,165.1,55.8,165z"/>
	<path class="st3" d="M33.4,167.9c0,1.1-0.6,1.5-1.6,1.5c-0.6,0-1.1-0.4-0.8-0.9c0.4-0.7,1.1-1.3,1.8-1.6
		C33.3,166.6,33.3,167.4,33.4,167.9z"/>
	<path class="st3" d="M66.3,146.8c1.2-1.5,3-2,4.6-2.7C70.1,146.2,68.7,147.3,66.3,146.8z"/>
	<path class="st3" d="M33.4,179.7c-0.1,0.9-0.6,1.5-1.6,1.7c-0.5,0.1-1.1-0.2-0.9-0.7c0.4-0.7,1-1.4,1.7-1.8
		C33,178.5,33.3,179.1,33.4,179.7z"/>
	<path class="st3" d="M134,197.7c1.7,0.3,3.5,0.2,4.8,1.6C137.2,198.9,134.8,200.9,134,197.7z"/>
	<path class="st3" d="M53,122c0.6,1.3,1.3,2.6,1.9,4C51.9,125.8,53.3,123.5,53,122z"/>
	<path class="st3" d="M107.1,166.9c1.2,1.1,1.5,2.5,1.4,4C106,170.3,107.3,168.3,107.1,166.9z"/>
	<path class="st3" d="M123.5,191.9c1.1,0,1.7,0.7,2.2,1.5c-0.7,0.2-0.9,1.4-1.7,1.1C123,194,123.6,192.8,123.5,191.9z"/>
	<path class="st3" d="M188.1,190.5c0.4,0.1,1.1,0.1,0.9,0.8c-0.1,0.3-0.7,0.5-1.2,0.5c-0.4,0-1.1-0.1-0.9-0.8
		C187,190.5,187.6,190.5,188.1,190.5z"/>
	<path class="st3" d="M54.4,130.4c0,0.5,0,1.1-0.7,1.1c-0.7,0-0.7-0.6-0.7-1.1c0-0.5,0-1.1,0.7-1.1
		C54.4,129.4,54.4,129.9,54.4,130.4z"/>
	<path class="st3" d="M48.5,200.9c-0.1,0.9,0.2,1.9-0.9,2.9C46.9,202.3,46.6,201.3,48.5,200.9L48.5,200.9z"/>
	<path class="st3" d="M108.6,172.2c1.2,0.8,1.4,1.9,1.5,3.2C107.7,175.1,108.7,173.4,108.6,172.2z"/>
	<path class="st3" d="M38.1,184.2c0.7,1.3,1.3,2.6,1.4,4C37.6,187.3,37.9,185.7,38.1,184.2z"/>
	<path class="st3" d="M17.1,179.7c1,0.9,1.3,2,1.3,3.2C16.3,182.5,17.1,180.9,17.1,179.7z"/>
	<path class="st3" d="M192,188.9c0.3,0.2,0.8,0.4,0.8,0.6c0.2,0.6-0.4,0.8-0.8,0.7c-0.2,0-0.6-0.4-0.6-0.6
		C191.3,189.5,191.7,189.2,192,188.9z"/>
	<path class="st3" d="M48.5,191.9c-0.1,0.7,0.2,1.5-0.7,1.8c-0.1,0.1-0.6-0.3-0.7-0.6C47,192.2,47.7,192.1,48.5,191.9L48.5,191.9z"
		/>
	<path class="st3" d="M63.4,148.4c0.8-0.9,1.8-1.4,2.9-1.6C66.3,149.1,64.6,148.3,63.4,148.4z"/>
	<path class="st3" d="M100.8,168.8c0.3-0.2,0.6-0.4,0.9-0.4c0.6,0,0.7,0.5,0.6,1c-0.1,0.2-0.5,0.4-0.7,0.6
		C101.4,169.6,101.2,169.3,100.8,168.8z"/>
	<path class="st3" d="M128.1,194.8c1.2,0.1,2.1,0.7,2.9,1.6C129.8,196.3,128.1,197.1,128.1,194.8z"/>
	<path class="st3" d="M56,127.3c0.8,0.8,1.6,1.5,2.4,2.3C56.5,129.9,55.8,129.1,56,127.3z"/>
	<path class="st3" d="M111.6,178.2c0.9,0.6,1.4,1.4,1.4,2.5C111.3,180.5,111.5,179.3,111.6,178.2z"/>
	<path class="st3" d="M26.1,201.3c0.8,0.7,1.5,1.4,1.5,2.5C25.7,203.8,26,202.5,26.1,201.3z"/>
	<path class="st3" d="M21.5,202.4c-0.1,0.5-0.1,1.2-0.9,1.1c-0.1,0-0.2-0.1-0.2-0.2C20.3,202.5,20.9,202.5,21.5,202.4
		C21.5,202.4,21.5,202.4,21.5,202.4z"/>
	<path class="st3" d="M36.1,203c-0.1,0.2-0.2,0.4-0.3,0.6c-0.2-0.1-0.5-0.1-0.6-0.3c-0.1-0.2,0.1-0.4,0.2-0.6
		C35.7,202.8,35.9,202.9,36.1,203z"/>
	<path class="st3" d="M31.4,176.7c-0.2-0.1-0.5-0.1-0.6-0.3c-0.1-0.1,0.1-0.4,0.2-0.6c0.2,0.1,0.5,0.1,0.6,0.3
		C31.7,176.2,31.5,176.5,31.4,176.7z"/>
	<path class="st3" d="M40.6,203c-0.1,0.2-0.2,0.4-0.3,0.6c-0.2-0.1-0.5-0.1-0.6-0.3c-0.1-0.2,0.1-0.4,0.2-0.6
		C40.2,202.8,40.4,202.9,40.6,203z"/>
	<path class="st3" d="M55.7,162.5c-0.1,0.2-0.1,0.5-0.3,0.6c-0.1,0.1-0.4-0.1-0.6-0.2c0.1-0.2,0.1-0.5,0.3-0.6
		C55.2,162.2,55.5,162.4,55.7,162.5z"/>
	<path class="st3" d="M48.5,136.4c-0.5-0.1-1.2-0.1-1.1-0.9c0-0.1,0.1-0.2,0.2-0.2C48.4,135.3,48.4,135.9,48.5,136.4L48.5,136.4z"/>
	<path class="st3" d="M56.5,159.2c0.2,0.1,0.5,0.1,0.6,0.3c0.1,0.1-0.1,0.4-0.2,0.6c-0.2-0.1-0.5-0.1-0.6-0.3
		C56.2,159.7,56.4,159.4,56.5,159.2z"/>
	<path class="st3" d="M27.2,209c-0.1,0.2-0.1,0.5-0.3,0.6c-0.1,0.1-0.4-0.1-0.6-0.2c0.1-0.2,0.1-0.5,0.3-0.6
		C26.7,208.7,27,208.9,27.2,209z"/>
	<path class="st3" d="M113.1,181.1c0.9,0.3,1.4,0.9,1.4,1.8C113.3,182.9,112.9,182.2,113.1,181.1z"/>
	<path class="st3" d="M35,209.9c0.5,0.1,1.2,0.1,1.1,0.9c0,0.1-0.1,0.2-0.2,0.2C35,211.1,35.1,210.5,35,209.9L35,209.9z"/>
	<path class="st3" d="M29,214.4c-0.5-0.1-1.2-0.1-1.1-0.9c0-0.1,0.1-0.2,0.2-0.2C28.9,213.3,28.9,213.9,29,214.4
		C29,214.4,29,214.4,29,214.4z"/>
	<path class="st3" d="M30.5,214.4c-0.1,0.5-0.1,1.3-0.9,1.1c-0.3-0.1-0.4-0.7-0.6-1.1c0,0,0,0,0,0C29.5,214.4,30,214.4,30.5,214.4
		C30.5,214.4,30.5,214.4,30.5,214.4z"/>
	<path class="st3" d="M68.5,151.7c0.2,0.1,0.5,0.1,0.6,0.3c0.1,0.1-0.1,0.4-0.2,0.6c-0.2-0.1-0.5-0.1-0.6-0.3
		C68.2,152.2,68.4,151.9,68.5,151.7z"/>
	<path class="st3" d="M114.5,184.4c-0.1,0.5-0.1,1.2-0.9,1.1c-0.1,0-0.2-0.1-0.2-0.2C113.3,184.5,113.9,184.5,114.5,184.4
		C114.5,184.4,114.5,184.4,114.5,184.4z"/>
	<path class="st3" d="M113,190.4c-0.5-0.1-1.2-0.1-1.1-0.9c0-0.1,0.1-0.2,0.2-0.2C112.9,189.3,112.9,189.9,113,190.4L113,190.4z"/>
	<path class="st3" d="M75.4,142.4c0.8-1,2-0.7,3-0.9C77.7,142.9,76.4,142.3,75.4,142.4z"/>
	<path class="st3" d="M48.5,191.9c0.1-0.5,0.1-1.2,0.9-1.1c0.1,0,0.2,0.1,0.2,0.2C49.6,191.9,49,191.8,48.5,191.9L48.5,191.9z"/>
	<path class="st3" d="M113,190.4c0.5,0.1,1.2,0.1,1.1,0.9c0,0.1-0.1,0.2-0.2,0.2C113,191.6,113.1,191,113,190.4L113,190.4z"/>
	<path class="st3" d="M37,142.7c0.2,0.1,0.5,0.1,0.6,0.3c0.1,0.1-0.1,0.4-0.2,0.6c-0.2-0.1-0.5-0.1-0.6-0.3
		C36.7,143.2,36.9,142.9,37,142.7z"/>
	<path class="st3" d="M139.7,203.4c-0.2,0.1-0.5,0.3-0.6,0.2c-0.1-0.1-0.2-0.4-0.3-0.6c0.2-0.1,0.5-0.3,0.6-0.2
		C139.6,202.9,139.6,203.2,139.7,203.4z"/>
	<path class="st3" d="M41.1,192.3c0.4,0.5,0.8,1.1,1.2,1.6c0.1,0.3,0.1,0.7,0.2,1c0,0,0,0,0,0C40.7,194.7,41,193.5,41.1,192.3z"/>
	<path class="st3" d="M17.3,194.4c0.1-0.2,0.1-0.5,0.3-0.6c0.1-0.1,0.4,0.1,0.6,0.2c-0.1,0.2-0.1,0.5-0.3,0.6
		C17.7,194.7,17.5,194.5,17.3,194.4z"/>
	<path class="st3" d="M42.5,134.9c0.5,0.1,1.2,0.1,1.1,0.9c0,0.1-0.1,0.2-0.2,0.2C42.5,136.1,42.6,135.5,42.5,134.9L42.5,134.9z"/>
	<path class="st3" d="M125.5,196.8c0.2,0.1,0.4,0.2,0.6,0.3c-0.1,0.2-0.1,0.5-0.3,0.6c-0.2,0.1-0.4-0.1-0.6-0.2
		C125.3,197.2,125.4,197,125.5,196.8z"/>
	<path class="st3" d="M48.5,200.9c0.1-0.5,0.1-1.2,0.9-1.1c0.1,0,0.2,0.1,0.2,0.2C49.6,200.9,49,200.8,48.5,200.9L48.5,200.9z"/>
	<path class="st3" d="M123.5,200.9c0.1-0.5,0.1-1.2,0.9-1.1c0.1,0,0.2,0.1,0.2,0.2C124.6,200.9,124,200.8,123.5,200.9L123.5,200.9z"
		/>
	<path class="st3" d="M129.2,200c-0.1,0.2-0.1,0.5-0.3,0.6c-0.1,0.1-0.4-0.1-0.6-0.2c0.1-0.2,0.1-0.5,0.3-0.6
		C128.7,199.7,129,199.9,129.2,200z"/>
	<path class="st3" d="M42.5,134.9c-0.5-0.1-1.2-0.1-1.1-0.9c0-0.1,0.1-0.2,0.2-0.2C42.4,133.8,42.4,134.4,42.5,134.9
		C42.5,134.9,42.5,134.9,42.5,134.9z"/>
	<path class="st3" d="M105.1,172.2c-0.1,0.2-0.2,0.4-0.3,0.6c-0.2-0.1-0.5-0.1-0.6-0.3c-0.1-0.2,0.1-0.4,0.2-0.6
		C104.7,172.1,104.9,172.1,105.1,172.2z"/>
	<path class="st3" d="M16.6,201.5c-0.1,0.2-0.2,0.4-0.3,0.6c-0.2-0.1-0.5-0.1-0.6-0.3c-0.1-0.2,0.1-0.4,0.2-0.6
		C16.2,201.3,16.4,201.4,16.6,201.5z"/>
	<path class="st3" d="M23,200.9c0,1-0.5,1.5-1.5,1.5c0,0,0,0,0,0C21.5,201.5,22,201,23,200.9z"/>
	<path class="st3" d="M123.5,200.9c-0.1,0.5-0.1,1.2-0.9,1.1c-0.1,0-0.2-0.1-0.2-0.2C122.3,201,122.9,201,123.5,200.9L123.5,200.9z"
		/>
	<path class="st3" d="M36.5,179c0.9,0.6,0.6,1.6,0.6,2.4C36.3,180.8,36.5,179.9,36.5,179z"/>
	<path class="st3" d="M110,175.4c0.7,0.3,1.1,0.8,1.2,1.6C110.3,176.8,109.9,176.3,110,175.4z"/>
	<path class="st3" d="M114.5,182.9c0.8,0.3,1.3,0.7,1.5,1.5c-0.5,0-1,0-1.5,0c0,0,0,0,0,0C114.5,183.9,114.5,183.4,114.5,182.9z"/>
	<path class="st3" d="M186.4,187.4c0.2-0.8,0.7-1.3,1.5-1.5C187.9,186.9,187.4,187.4,186.4,187.4z"/>
	<path class="st3" d="M71.7,143.9c0.5-0.9,1.5-0.6,2.2-1C73.5,144.1,72.5,143.9,71.7,143.9z"/>
	<path class="st3" d="M126.5,193.6c0.8,0.1,1.3,0.5,1.6,1.2C127.1,195,126.6,194.6,126.5,193.6z"/>
	<path class="st3" d="M189.5,184.5c0.2-0.8,0.7-1.3,1.5-1.5C190.9,183.9,190.4,184.4,189.5,184.5z"/>
	<path class="st3" d="M27.5,203.9c0.7,0.3,1.1,0.8,1.2,1.6C27.8,205.3,27.4,204.8,27.5,203.9z"/>
	<path class="st3" d="M188,185.9c0.2-0.8,0.7-1.3,1.5-1.5C189.4,185.4,188.9,185.9,188,185.9z"/>
	<path class="st3" d="M42.6,124.4c0.2-0.7,0.5-1.3,1.3-1.5C44,123.8,43.6,124.4,42.6,124.4z"/>
	<path class="st3" d="M122,190.5c0.8,0.2,1.3,0.7,1.5,1.4C122.5,191.9,122,191.5,122,190.5z"/>
	<path class="st3" d="M39.4,188.2c0.7,0.6,0.9,1.4,0.9,2.3C39.4,190,39.5,189.1,39.4,188.2z"/>
	<path class="st3" d="M37.3,181.8c0.7,0.4,0.6,1.2,0.6,1.8C37.2,183.2,37.2,182.5,37.3,181.8z"/>
	<path class="st3" d="M43.9,122.9c0.1-0.6,0.4-1,1-1.2C45.4,122.8,44.6,122.8,43.9,122.9z"/>
	<path class="st3" d="M42.2,194.1c0.1-0.4,0.2-0.9,0.4-1.3C43.3,193.4,43.2,193.8,42.2,194.1z"/>
	<path class="st3" d="M180.2,191.8c0.3-0.7,0.8-1.1,1.6-1.1C181.7,191.7,181.1,191.9,180.2,191.8z"/>
	<path class="st3" d="M44.8,173.9c0-0.6-0.1-1.3,0.6-1.7C45.4,172.9,45.4,173.5,44.8,173.9z"/>
	<path class="st3" d="M44.1,175.4c-0.1-0.5,0-0.9,0.5-1.1C44.4,174.7,44.3,175.1,44.1,175.4z"/>
	<path class="st3" d="M37.8,157.5c0.1,0.4,0,0.7-0.4,0.9C37.5,158.1,37.7,157.8,37.8,157.5z"/>
	<path class="st3" d="M176,194.2c0-0.4,0.3-0.6,0.7-0.6C176.4,193.8,176.2,194,176,194.2z"/>
	<path class="st3" d="M84.4,104.3c-0.3-0.6-0.6-1.1-0.9-1.7c9.5-0.1,17.3,4,24.2,10c3.6,3.1,6.8,6.5,9.3,10.6
		c-1.3,3.5-3.6,6.5-5.5,9.7c0.1-2.1-3-4.3-1.3-5.8c2.9-2.4-0.2-4.4,0.4-6.5c0.2-0.8-0.6-1.7-1.4-1.3c-3.4,1.6-3.9-1.5-5.5-3.1
		c-2.1-2.2-5-3.7-5.1-7.3c0-0.4-0.5-0.9-1-1.1c-4.3-1.4-8.6-2.7-12.9-4C84.8,103.8,84.6,104.1,84.4,104.3z"/>
	<path class="st3" d="M110,135.9c-0.1-1.1-0.3-2.2,1.3-2.4C111.4,134.5,110.7,135.2,110,135.9z"/>
	<path class="st5" d="M385.4,143.4c-0.2,0.1-0.5,0.2-0.7,0.4c0.1-0.3,0.1-0.6,0.2-0.9C385.1,143.1,385.3,143.2,385.4,143.4z"/>
	<path class="st3" d="M142.2,159.2c-0.6,0.9-1.5,1-2.4,1.3c-1.6,0.5,0.3,0.8,0.2,1.3c-2.4,0.1-3.9-2-6.2-2.6
		C136.5,159.2,139.4,159.2,142.2,159.2z"/>
	<path class="st3" d="M89.6,133.6c0.5-0.9,0.9-1.8,2.2-1.3c1.2,0.4,1.7,1.3,1.6,2.5C92.1,134.8,90.8,134.3,89.6,133.6z"/>
	<path class="st3" d="M84.6,104.9c0.8,0.2,1.3,0.6,1.3,1.5c0,3.5,0,7,0,10.4c0,0.9-0.4,1.4-1.3,1.5C85.7,113.9,86,109.4,84.6,104.9z
		"/>
	<path class="st3" d="M102.9,117.4c-2,1.3-3.2,1.1-4.8,0.5C99.4,116.4,100.7,117,102.9,117.4z"/>
	<path class="st3" d="M108.2,135.5c-0.1,0.2-0.1,0.5-0.3,0.6c-0.1,0.1-0.4-0.1-0.6-0.2c0.1-0.2,0.1-0.5,0.3-0.6
		C107.7,135.2,108,135.4,108.2,135.5z"/>
</g>
</svg>
