<?xml version="1.0" encoding="UTF-8" standalone="no"?>
<!-- Created with Inkscape (http://www.inkscape.org/) -->

<svg
   xmlns:dc="http://purl.org/dc/elements/1.1/"
   xmlns:cc="http://creativecommons.org/ns#"
   xmlns:rdf="http://www.w3.org/1999/02/22-rdf-syntax-ns#"
   xmlns:svg="http://www.w3.org/2000/svg"
   xmlns="http://www.w3.org/2000/svg"
   xmlns:sodipodi="http://sodipodi.sourceforge.net/DTD/sodipodi-0.dtd"
   xmlns:inkscape="http://www.inkscape.org/namespaces/inkscape"
   width="800mm"
   height="800mm"
   viewBox="0 0 2834.6457 2834.6457"
   id="svg2"
   version="1.1"
   inkscape:version="0.91 r13725"
   sodipodi:docname="mas_vida.svg">
  <defs
     id="defs4" />
  <sodipodi:namedview
     id="base"
     pagecolor="#ffffff"
     bordercolor="#666666"
     borderopacity="1.0"
     inkscape:pageopacity="0.0"
     inkscape:pageshadow="2"
     inkscape:zoom="0.18155519"
     inkscape:cx="805.4447"
     inkscape:cy="1138.3191"
     inkscape:document-units="px"
     inkscape:current-layer="layer1"
     showgrid="false"
     inkscape:window-width="1920"
     inkscape:window-height="1138"
     inkscape:window-x="1358"
     inkscape:window-y="-8"
     inkscape:window-maximized="1" />
  <metadata
     id="metadata7">
    <rdf:RDF>
      <cc:Work
         rdf:about="">
        <dc:format>image/svg+xml</dc:format>
        <dc:type
           rdf:resource="http://purl.org/dc/dcmitype/StillImage" />
        <dc:title />
      </cc:Work>
    </rdf:RDF>
  </metadata>
  <g
     inkscape:label="Capa 1"
     inkscape:groupmode="layer"
     id="layer1"
     transform="translate(0,1782.2835)">
    <g
       id="g4923"
       transform="matrix(0.90846137,0,0,0.90846137,128.87681,-33.850525)">
      <path
         style="fill:#0094cb;fill-opacity:1;fill-rule:nonzero;stroke:none"
         d="m 744.90559,-483.49673 -72.2757,41.7788 -72.27567,41.7787 -0.35275,-2.8208 -0.5278,-2.6444 -0.35275,-1.4097 -0.3528,-1.2347 -0.35275,-1.2333 -0.5292,-1.2347 -0.7041,-1.2334 -0.5292,-1.2347 -1.4111,-2.1152 -1.7625,-2.1153 -1.76245,-1.9388 -1.05835,-0.8806 -0.8805,-0.8819 -1.05835,-0.882 -1.05695,-0.7041 -2.2916,-1.4111 -2.46805,-1.0569 -1.23475,-0.5292 -1.4097,-0.3528 -2.6444,-0.7056 -1.2333,-0.1763 -1.4111,-0.1764 -2.82085,-0.175 -121.28075,0 0,-121.2822 0,-1.4111 -0.17639,-1.4097 -0.17639,-1.4111 -0.17638,-1.4097 -0.35278,-1.4097 -0.35278,-1.4111 -0.52917,-1.2333 -0.52916,-1.2348 -0.52776,-1.2333 -0.52917,-1.2347 -1.4097,-2.2916 -0.88194,-1.2333 -0.70556,-1.0584 -1.05692,-0.8805 -0.88194,-1.0583 -1.93887,-1.7625 -2.11525,-1.7625 -2.46804,-1.4111 -1.23472,-0.5277 -1.23331,-0.5292 -1.23472,-0.5292 -1.23331,-0.5292 -2.82082,-0.7041 -1.23331,-0.1764 -1.41111,-0.1764 -2.99579,-0.1763 -58.17305,0 -2.9972,0.1763 -1.41111,0.1764 -1.4097,0.1764 -1.23331,0.3514 -1.41112,0.3527 -1.23331,0.5292 -1.41111,0.5292 -1.23331,0.5292 -1.23472,0.5277 -2.29165,1.4111 -1.05692,0.8805 -1.05833,0.882 -1.05692,0.8819 -0.88195,0.8806 -1.93886,1.9388 -1.58609,2.2917 -1.41111,2.2916 -0.70415,1.2347 -0.52917,1.2333 -0.52916,1.2348 -0.35278,1.2333 -0.70556,2.8208 -0.17497,1.4097 -0.17639,1.4111 -0.17639,1.4097 0,1.4111 0,121.2822 -121.28218,0 -2.82081,0.175 -1.4097,0.1764 -1.41111,0.1763 -2.64442,0.7056 -1.23331,0.3528 -1.23473,0.5292 -1.23331,0.5278 -1.23472,0.5291 -1.05692,0.7056 -1.23472,0.7055 -2.11526,1.5861 -1.05692,0.882 -0.88195,0.8805 -0.88053,0.8819 -1.05833,1.0569 -1.58609,2.1153 -0.70556,1.0584 -0.70555,1.0569 -1.23331,2.468 -0.88195,2.468 -0.52917,1.2348 -0.35136,1.4097 -0.17639,1.2347 -0.17639,1.4096 -0.17639,1.4097 -0.17639,1.4111 -72.27573,-41.7787 -72.275705,-41.7788 77.211505,-133.622 98.36603,56.763 98.54071,56.762 0,-113.7014 0,-113.52559 77.21177,0 77.21177,0 0,113.52559 0,113.7014 98.36575,-56.762 98.54072,-56.763 77.2117,133.622 z"
         id="path11800"
         inkscape:connector-curvature="0" />
      <path
         style="fill:#7daf43;fill-opacity:1;fill-rule:nonzero;stroke:none"
         d="m 42.245635,-256.09333 72.275705,-41.7788 72.27573,-41.7787 0.35278,2.8208 0.35278,2.6444 0.35136,1.4097 0.52917,1.2347 0.88195,2.4667 0.70555,1.2347 0.52776,1.2333 1.41111,2.1152 1.58609,2.1167 1.93886,1.9389 0.88195,0.8805 1.05692,0.882 1.05833,0.8819 1.05693,0.7041 2.29164,1.4112 2.46803,1.0569 1.23473,0.5291 1.23331,0.3528 2.64442,0.7056 1.41111,0.175 1.4097,0.1763 2.82081,0.1764 121.28218,0 0,121.2822 0,1.4111 0.17639,1.4097 0.17639,1.4097 0.17497,1.4112 0.35278,1.4097 0.35278,1.4111 0.35278,1.2332 0.52916,1.2348 0.52917,1.2333 0.70415,1.2333 1.41111,2.293 0.70414,1.2334 0.88195,1.0583 0.88194,1.0569 1.05692,0.882 1.93887,1.7624 2.11525,1.7625 2.29165,1.4111 1.23472,0.5278 1.23331,0.5292 1.41111,0.5291 1.23331,0.5292 2.64443,0.7041 1.4097,0.1764 1.41111,0.1764 2.9972,0.1764 58.17305,0 2.99579,-0.1764 1.41111,-0.1764 1.23331,-0.1764 1.41112,-0.3513 1.4097,-0.3528 1.23331,-0.5292 1.23472,-0.5291 1.23331,-0.5292 1.23472,-0.5278 2.46804,-1.4111 1.05692,-0.8805 1.05833,-0.882 1.05692,-0.8819 0.88195,-0.8805 1.93886,-1.9389 1.5875,-2.2917 1.4097,-2.293 0.52917,-1.2333 0.52776,-1.2333 0.52916,-1.2347 0.52917,-1.2333 0.70556,-2.8208 0.17638,-1.4111 0.17639,-1.4097 0.17639,-1.4098 0,-1.4111 0,-121.2822 121.28075,0 2.82085,-0.1764 1.4111,-0.1763 1.2333,-0.175 2.6444,-0.7056 1.4097,-0.3527 1.23475,-0.5292 1.2333,-0.5292 1.23475,-0.5277 1.0569,-0.7056 1.2347,-0.7055 2.1153,-1.5861 1.0569,-0.882 0.88195,-0.8805 0.88195,-0.882 0.8805,-1.0569 1.7625,-1.9403 0.70555,-1.2333 0.70555,-1.0583 1.2333,-2.468 0.88195,-2.4667 0.3528,-1.2347 0.35275,-1.4097 0.3528,-1.2347 0.175,-1.4097 0.17635,-1.4111 0.1764,-1.4097 72.27567,41.7788 72.2757,41.7787 -77.2117,133.7988 -98.54072,-56.9398 -98.36575,-56.7633 0,113.5267 0,113.7017036 -77.21177,0 -77.21177,0 0,-113.7017036 0,-113.5267 -98.54071,56.7633 -98.36603,56.7633 -77.211505,-133.6223 z"
         id="path11802"
         inkscape:connector-curvature="0" />
      <path
         style="fill:#ffffff;fill-opacity:1;fill-rule:nonzero;stroke:none"
         d="m 336.28454,-548.36833 0,-1.4111 0.17639,-1.4097 0.17639,-1.4111 0.17497,-1.4097 0.35278,-1.4097 0.35278,-1.4111 0.35278,-1.2333 0.52916,-1.2348 0.52917,-1.2333 0.70415,-1.2347 1.41111,-2.2916 0.70414,-1.2333 0.88195,-1.0584 0.88194,-0.8805 1.05692,-1.0583 1.93887,-1.7625 2.11525,-1.7625 2.29165,-1.4111 1.23472,-0.5277 1.23331,-0.5292 1.41111,-0.5292 1.23331,-0.5292 2.64443,-0.7041 1.4097,-0.1764 1.41111,-0.1764 2.9972,-0.1763 58.17305,0 2.99579,0.1763 1.41111,0.1764 1.23331,0.1764 1.41112,0.3514 1.4097,0.3527 1.23331,0.5292 1.23472,0.5292 1.23331,0.5292 1.23472,0.5277 2.46804,1.4111 1.05692,0.8805 1.05833,0.882 1.05692,0.8819 0.88195,0.8806 1.93886,1.9388 1.5875,2.2917 1.4097,2.2916 0.52917,1.2347 0.52776,1.2333 0.52916,1.2348 0.52917,1.2333 0.70556,2.8208 0.17638,1.4097 0.17639,1.4111 0.17639,1.4097 0,1.4111 0,121.2822 121.28075,0 2.82085,0.175 1.4111,0.1764 1.4097,0.1763 1.4097,0.3528 1.2347,0.3528 1.4097,0.5292 1.23475,0.3527 1.2333,0.7042 1.2347,0.5292 2.29165,1.4111 1.2333,0.8806 1.05835,0.7055 0.88055,0.8805 1.0583,1.0583 1.7625,1.9389 1.5861,2.1153 1.4111,2.468 0.70555,1.0583 0.52775,1.2334 0.5292,1.411 0.52915,1.2333 0.52915,2.6445 0.3514,1.4097 0.17635,1.4111 0.1764,1.4097 0,1.5861 0,58.173 0,1.5875 -0.1764,1.4097 -0.17635,1.4112 -0.3514,1.4097 -0.1764,1.2333 -0.35275,1.4111 -0.52915,1.2333 -0.5292,1.4111 -0.52775,1.2333 -0.70555,1.2347 -1.4111,2.2917 -0.70415,1.0569 -0.88195,1.0583 -0.88195,1.057 -0.88055,0.8819 -1.93885,1.9389 -2.29165,1.5861 -2.29165,1.4111 -1.2347,0.5291 -1.2333,0.7042 -1.23475,0.3528 -1.4097,0.5291 -2.6444,0.7056 -1.4097,0.175 -1.4111,0.1763 -2.82085,0.1764 -121.28075,0 0,121.2822 0,1.4111 -0.17639,1.4098 -0.17639,1.4097 -0.17638,1.4111 -0.35278,1.4097 -0.35278,1.4111 -0.52917,1.2333 -0.52916,1.2347 -0.52776,1.2333 -0.52917,1.2333 -1.4097,2.2931 -0.88194,1.2333 -0.70556,1.0583 -1.05692,1.057 -0.88194,0.8819 -1.93887,1.7625 -2.11525,1.7625 -2.46804,1.4111 -1.23472,0.5277 -1.23331,0.5292 -1.23472,0.5291 -1.23331,0.5292 -2.82082,0.7042 -1.23331,0.1764 -1.41111,0.1763 -2.99579,0.1764 -58.17305,0 -2.9972,-0.1764 -1.41111,-0.1763 -1.4097,-0.1764 -1.23331,-0.3514 -1.41112,-0.3528 -1.23331,-0.5292 -1.41111,-0.5291 -1.23331,-0.5292 -1.23472,-0.5277 -2.29165,-1.4111 -1.05692,-0.8806 -1.05833,-0.8819 -1.05692,-0.882 -0.88195,-0.8805 -1.93886,-1.9389 -1.58609,-2.2916 -1.41111,-2.2931 -0.70415,-1.2333 -0.52917,-1.2333 -0.52916,-1.2347 -0.35278,-1.2333 -0.70556,-2.8208 -0.17497,-1.4111 -0.17639,-1.4097 -0.17639,-1.4097 0,-1.4112 0,-121.2822 -121.28218,0 -2.9972,-0.1763 -1.4097,-0.1764 -1.23472,-0.175 -1.4097,-0.3528 -1.41111,-0.3528 -1.23331,-0.5291 -1.23473,-0.3528 -1.23331,-0.7042 -1.23331,-0.5291 -2.46803,-1.4111 -1.05833,-0.8806 -1.05693,-0.7055 -1.05833,-0.882 -0.88194,-1.0569 -1.76248,-1.9389 -1.76248,-2.1152 -1.41111,-2.2917 -0.52776,-1.2347 -0.52916,-1.2333 -0.52917,-1.4111 -0.52917,-1.2333 -0.70414,-2.6444 -0.17639,-1.4097 -0.17639,-1.4111 -0.17639,-1.4097 0,-1.5875 0,-58.1731 0,-1.5861 0.17639,-1.4097 0.17639,-1.4111 0.17639,-1.4097 0.35278,-1.2347 0.35136,-1.4097 0.52917,-1.2333 0.52917,-1.4111 0.52916,-1.2333 0.52776,-1.0584 1.41111,-2.468 0.88053,-1.0569 0.88195,-1.0584 0.88194,-1.0569 0.88054,-0.8819 1.94027,-1.9389 2.11526,-1.5861 2.46803,-1.4111 1.23331,-0.5292 1.23331,-0.7041 1.23473,-0.3528 1.23331,-0.5291 2.82081,-0.7056 1.23472,-0.1764 1.4097,-0.1764 2.9972,-0.175 121.28218,0 0,-121.2821 z"
         id="path11818"
         inkscape:connector-curvature="0" />
      <path
         style="fill:#ffffff;fill-opacity:1;fill-rule:nonzero;stroke:none"
         d="m 333.81651,-548.54473 0,-1.4111 0.17638,-1.5861 0.17639,-1.5861 0.17639,-1.4111 0.35137,-1.4097 0.35278,-1.5861 0.52916,-1.4111 0.52917,-1.4097 0.70414,-1.4111 0.70556,-1.2332 1.41111,-2.4681 0.88053,-1.2333 0.88195,-1.2348 1.05692,-1.0583 1.05833,-1.0569 2.11526,-1.9389 2.29164,-1.7624 2.46804,-1.5876 1.4097,-0.7041 1.41111,-0.5291 1.4097,-0.5292 1.41111,-0.5292 2.8194,-0.7042 1.5875,-0.3527 1.58609,-0.1764 2.9972,-0.1764 0.17639,4.9361 -2.82081,0.1763 -1.23473,0.1765 -1.23331,0.1749 -2.46803,0.7056 -1.23472,0.3527 -1.05692,0.5293 -1.23473,0.5291 -1.05692,0.5277 -2.11525,1.2348 -1.93887,1.586 -1.94028,1.5861 -0.88053,0.882 -0.70556,0.8819 -0.88053,1.057 -0.52917,0.8819 -1.41111,2.2916 -0.52775,1.057 -0.52917,1.0583 -0.35278,1.2333 -0.52917,1.2347 -0.35277,1.2333 -0.17639,1.2348 -0.35137,1.2333 0,1.2347 -0.17639,1.4097 0,1.2347 z"
         id="path11820"
         inkscape:connector-curvature="0" />
      <path
         style="fill:#ffffff;fill-opacity:1;fill-rule:nonzero;stroke:none"
         d="m 364.48983,-579.04163 58.17305,0 0,4.9361 -58.17305,0 z"
         id="path11822"
         inkscape:connector-curvature="0" />
      <path
         style="fill:#ffffff;fill-opacity:1;fill-rule:nonzero;stroke:none"
         d="m 364.31344,-579.04163 0.17639,0 0,4.9361 -0.17639,-4.9361 z"
         id="path11824"
         inkscape:connector-curvature="0" />
      <path
         style="fill:#ffffff;fill-opacity:1;fill-rule:nonzero;stroke:none"
         d="m 422.83927,-579.04163 2.99579,0.1764 1.5875,0.1764 1.4097,0.3527 1.58609,0.3514 1.41111,0.3528 1.4097,0.5292 1.4097,0.5291 1.23472,0.5292 1.4097,0.7041 2.46804,1.5875 1.23472,0.8806 1.23331,0.8819 1.05833,0.8805 1.05693,1.0584 1.93886,2.1152 1.76389,2.4681 1.58609,2.468 0.70556,1.4097 0.52916,1.2347 0.70415,1.4097 0.35277,1.5861 0.70556,2.8208 0.35278,1.5875 0.17639,1.4097 0.17497,1.5861 0,1.5875 -4.93465,0 0,-1.2347 -0.17639,-1.4097 -0.17639,-1.2347 -0.17639,-1.2333 -0.70555,-2.6445 -0.35278,-1.0583 -0.52917,-1.2333 -0.52775,-1.0583 -0.52917,-1.057 -1.23472,-2.1152 -1.4097,-2.1153 -1.76248,-1.7639 -0.88194,-0.8805 -0.88054,-0.7056 -1.05833,-0.8819 -0.88195,-0.7041 -2.29164,-1.2348 -1.05692,-0.5277 -1.05834,-0.5292 -1.23331,-0.5292 -1.23472,-0.3527 -1.23331,-0.3528 -1.05833,-0.3528 -1.4097,-0.175 -1.05834,-0.1764 -2.99579,-0.1763 z"
         id="path11826"
         inkscape:connector-curvature="0" />
      <path
         style="fill:#ffffff;fill-opacity:1;fill-rule:nonzero;stroke:none"
         d="m 422.66288,-579.04163 0.17639,0 -0.35278,4.9361 0.17639,0 0,-4.9361 z"
         id="path11828"
         inkscape:connector-curvature="0" />
      <path
         style="fill:#ffffff;fill-opacity:1;fill-rule:nonzero;stroke:none"
         d="m 453.33479,-548.36833 -4.93465,0 0,121.2822 4.93465,0 0,-121.2822 z"
         id="path11830"
         inkscape:connector-curvature="0" />
      <path
         style="fill:#ffffff;fill-opacity:1;fill-rule:nonzero;stroke:none"
         d="m 453.33479,-548.36833 -4.93465,0 4.93465,0 z"
         id="path11832"
         inkscape:connector-curvature="0" />
      <path
         style="fill:#ffffff;fill-opacity:1;fill-rule:nonzero;stroke:none"
         d="m 450.86817,-429.55413 0,4.9346 121.28075,0 0,-4.9346 -121.28075,0 z"
         id="path11834"
         inkscape:connector-curvature="0" />
      <path
         style="fill:#ffffff;fill-opacity:1;fill-rule:nonzero;stroke:none"
         d="m 448.40014,-427.08613 0,2.4666 2.46803,0 0,-4.9346 2.46662,2.468 -4.93465,0 z"
         id="path11836"
         inkscape:connector-curvature="0" />
      <path
         style="fill:#ffffff;fill-opacity:1;fill-rule:nonzero;stroke:none"
         d="m 572.32532,-429.55413 2.8208,0.1764 1.5861,0.1749 1.5875,0.1765 1.4097,0.3527 1.5861,0.5292 1.4111,0.3527 1.4097,0.5292 1.23475,0.7041 1.4097,0.7056 2.468,1.4097 1.23475,0.8819 1.2333,1.0584 1.05835,0.8805 1.0569,1.0583 1.93885,2.1153 1.7639,2.468 1.5861,2.4681 0.70555,1.2333 0.52775,1.4111 0.52915,1.4097 0.5292,1.4097 0.70555,2.8208 0.35135,1.5861 0.1764,1.5875 0.1764,1.5861 0,1.4111 -5.11245,0.175 0,-1.4097 0,-1.2333 -0.175,-1.4112 -0.1764,-1.0569 -0.70555,-2.6444 -0.35275,-1.0583 -0.5292,-1.2333 -0.52915,-1.0584 -0.52775,-1.0569 -1.23475,-2.2916 -1.58605,-1.9403 -1.5861,-1.9389 -0.88195,-0.7041 -0.88195,-0.882 -1.0569,-0.7055 -0.88195,-0.7042 -2.29165,-1.4111 -1.05695,-0.5292 -1.0583,-0.5277 -1.2333,-0.3528 -1.23475,-0.3528 -1.2333,-0.3527 -1.23475,-0.3528 -1.2333,-0.1764 -1.2347,-0.1764 -2.8208,-0.1764 z"
         id="path11838"
         inkscape:connector-curvature="0" />
      <path
         style="fill:#ffffff;fill-opacity:1;fill-rule:nonzero;stroke:none"
         d="m 572.14892,-429.55413 0.1764,0 -0.35275,4.9346 0.17635,0 0,-4.9346 z"
         id="path11840"
         inkscape:connector-curvature="0" />
      <path
         style="fill:#ffffff;fill-opacity:1;fill-rule:nonzero;stroke:none"
         d="m 597.88617,-398.88223 4.9361,0 0,58.173 -4.9361,0 z"
         id="path11842"
         inkscape:connector-curvature="0" />
      <path
         style="fill:#ffffff;fill-opacity:1;fill-rule:nonzero;stroke:none"
         d="m 602.82227,-399.05723 0,0.175 -4.9361,0 -0.17635,0 5.11245,-0.175 z"
         id="path11844"
         inkscape:connector-curvature="0" />
      <path
         style="fill:#ffffff;fill-opacity:1;fill-rule:nonzero;stroke:none"
         d="m 602.82227,-340.53283 0,1.4111 -0.1764,1.5861 -0.1764,1.5861 -0.35135,1.4111 -0.3528,1.5861 -0.35275,1.4111 -0.5292,1.4097 -0.52915,1.4097 -0.52775,1.4111 -0.70555,1.4097 -1.5861,2.2917 -0.88195,1.2347 -0.88195,1.2333 -0.8805,1.0584 -1.05835,1.2333 -2.11525,1.9388 -2.46805,1.7625 -2.468,1.4111 -1.4097,0.7056 -1.23475,0.7041 -1.4097,0.5292 -1.5861,0.3528 -2.8208,0.8819 -1.4111,0.175 -1.5861,0.1764 -2.9972,0.1764 -0.35275,-4.9361 2.8208,-0.1764 1.2347,0 1.2333,-0.3514 2.46805,-0.7055 1.23475,-0.3528 1.2333,-0.3528 1.0583,-0.5291 1.05695,-0.5278 2.11525,-1.4111 2.11525,-1.4097 1.7639,-1.7625 0.88055,-0.7055 0.70555,-1.0584 0.88195,-1.0569 0.52775,-0.8819 1.4111,-2.1153 0.52775,-1.0569 0.52915,-1.2347 0.5292,-1.0569 0.35275,-1.2348 0.3528,-1.2333 0.1764,-1.2347 0.35275,-1.2333 0.175,-1.4111 0,-1.2333 0,-1.4112 z"
         id="path11846"
         inkscape:connector-curvature="0" />
      <path
         style="fill:#ffffff;fill-opacity:1;fill-rule:nonzero;stroke:none"
         d="m 602.82227,-340.70923 0,0.1764 -5.11245,-0.1764 0.17635,0 4.9361,0 z"
         id="path11848"
         inkscape:connector-curvature="0" />
      <path
         style="fill:#ffffff;fill-opacity:1;fill-rule:nonzero;stroke:none"
         d="m 572.14892,-310.03583 0,-4.9361 -121.28075,0 0,4.9361 121.28075,0 z"
         id="path11850"
         inkscape:connector-curvature="0" />
      <path
         style="fill:#ffffff;fill-opacity:1;fill-rule:nonzero;stroke:none"
         d="m 572.32532,-310.03583 -0.88055,0 0.70415,0 0,-4.9361 -0.17635,0 0.35275,4.9361 z"
         id="path11852"
         inkscape:connector-curvature="0" />
      <path
         style="fill:#ffffff;fill-opacity:1;fill-rule:nonzero;stroke:none"
         d="m 448.40014,-312.50393 4.93465,0 0,121.2822 -4.93465,0 z"
         id="path11854"
         inkscape:connector-curvature="0" />
      <path
         style="fill:#ffffff;fill-opacity:1;fill-rule:nonzero;stroke:none"
         d="m 450.86817,-314.97193 -2.46803,0 0,2.468 4.93465,0 -2.46662,2.4681 0,-4.9361 z"
         id="path11856"
         inkscape:connector-curvature="0" />
      <path
         style="fill:#ffffff;fill-opacity:1;fill-rule:nonzero;stroke:none"
         d="m 453.33479,-191.22173 0,1.5875 -0.17497,1.5861 -0.17639,1.4097 -0.35278,1.5875 -0.35278,1.5861 -0.35278,1.4097 -0.35277,1.4111 -0.70415,1.4097 -0.52916,1.4097 -0.70556,1.2348 -1.58609,2.468 -0.88194,1.2333 -0.88195,1.2347 -0.88053,1.0569 -1.05833,1.0583 -2.11526,1.9389 -2.29164,1.7625 -2.64443,1.5875 -1.4097,0.7042 -1.23472,0.5291 -1.4097,0.5292 -1.4097,0.5291 -2.9972,0.7042 -1.4097,0.3527 -1.5875,0.1764 -2.99579,0.1764 -0.35278,-4.936 2.8194,-0.1764 1.23473,-0.1764 1.23331,-0.1764 2.64442,-0.7042 1.05833,-0.3527 1.23331,-0.5292 1.05834,-0.5291 1.05692,-0.3528 2.29164,-1.4097 1.94028,-1.4097 1.76248,-1.7639 0.88053,-0.8806 0.88195,-0.8819 0.70555,-1.0569 0.70415,-0.882 1.23472,-2.2916 0.52917,-1.0583 0.52775,-1.0569 0.52917,-1.2348 0.35278,-1.0569 0.35277,-1.2347 0.35278,-1.2334 0.17639,-1.4097 0.17639,-1.2347 0.17639,-1.2333 0,-1.4111 z"
         id="path11858"
         inkscape:connector-curvature="0" />
      <path
         style="fill:#ffffff;fill-opacity:1;fill-rule:nonzero;stroke:none"
         d="m 453.33479,-191.22173 -4.93465,0 4.93465,0 z"
         id="path11860"
         inkscape:connector-curvature="0" />
      <path
         style="fill:#ffffff;fill-opacity:1;fill-rule:nonzero;stroke:none"
         d="m 364.48983,-165.48443 58.17305,0 0,4.9361 -58.17305,0 z"
         id="path11862"
         inkscape:connector-curvature="0" />
      <path
         style="fill:#ffffff;fill-opacity:1;fill-rule:nonzero;stroke:none"
         d="m 422.83927,-160.54843 -0.88194,0 0.70555,0 0,-4.936 -0.17639,0 0.35278,4.936 z"
         id="path11864"
         inkscape:connector-curvature="0" />
      <path
         style="fill:#ffffff;fill-opacity:1;fill-rule:nonzero;stroke:none"
         d="m 364.31344,-160.54843 -2.9972,-0.1764 -1.58609,-0.1764 -1.5875,-0.3527 -1.4097,-0.1764 -1.4097,-0.5278 -1.41111,-0.5291 -1.4097,-0.5292 -1.41111,-0.5291 -1.4097,-0.7042 -2.46804,-1.4111 -1.23331,-1.0569 -1.05833,-0.882 -1.23331,-0.8819 -1.05833,-1.0569 -1.93887,-2.1153 -1.76248,-2.468 -1.41111,-2.2917 -0.70556,-1.4111 -0.70414,-1.4097 -0.52917,-1.4097 -0.52916,-1.4111 -0.70415,-2.8194 -0.17639,-1.5875 -0.17639,-1.5861 -0.17638,-1.5861 0,-1.4111 4.93606,-0.1764 0,1.4112 0.17639,1.2333 0,1.2347 0.35137,1.2333 0.52916,2.6444 0.52917,1.0569 0.35278,1.2348 0.52917,1.0569 0.52775,1.0583 1.41111,2.1153 1.4097,2.1152 1.76248,1.7625 0.88194,0.882 0.88195,0.8819 0.88053,0.7041 1.05834,0.7056 2.11525,1.4097 1.05692,0.5292 1.23473,0.3527 1.05692,0.5292 1.23472,0.3528 1.23331,0.3527 1.23472,0.3514 1.23331,0.1764 1.23473,0.1764 2.82081,0.1764 z"
         id="path11866"
         inkscape:connector-curvature="0" />
      <path
         style="fill:#ffffff;fill-opacity:1;fill-rule:nonzero;stroke:none"
         d="m 364.48983,-160.54843 0.70414,0 -0.88053,0 0.17639,-4.936 0,4.936 z"
         id="path11868"
         inkscape:connector-curvature="0" />
      <path
         style="fill:#ffffff;fill-opacity:1;fill-rule:nonzero;stroke:none"
         d="m 333.64012,-191.22173 5.11245,0 0,-121.2822 -5.11245,0 0,121.2822 z"
         id="path11870"
         inkscape:connector-curvature="0" />
      <path
         style="fill:#ffffff;fill-opacity:1;fill-rule:nonzero;stroke:none"
         d="m 333.81651,-191.04533 -0.17639,-1.7625 0,1.5861 5.11245,0 -4.93606,0.1764 z"
         id="path11872"
         inkscape:connector-curvature="0" />
      <path
         style="fill:#ffffff;fill-opacity:1;fill-rule:nonzero;stroke:none"
         d="m 215.00236,-314.97193 121.28218,0 0,4.9361 -121.28218,0 z"
         id="path11874"
         inkscape:connector-curvature="0" />
      <path
         style="fill:#ffffff;fill-opacity:1;fill-rule:nonzero;stroke:none"
         d="m 338.75257,-312.50393 0,-2.468 -2.46803,0 0,4.9361 -2.64442,-2.4681 5.11245,0 z"
         id="path11876"
         inkscape:connector-curvature="0" />
      <path
         style="fill:#ffffff;fill-opacity:1;fill-rule:nonzero;stroke:none"
         d="m 214.82597,-310.03583 -2.9972,-0.1764 -1.58609,-0.1764 -1.41111,-0.175 -1.58609,-0.3528 -1.4097,-0.5291 -1.41111,-0.3528 -1.4097,-0.5292 -1.4097,-0.7041 -1.41111,-0.7056 -2.29164,-1.4111 -1.4097,-0.8805 -1.05834,-0.882 -1.05692,-1.0569 -1.05833,-1.0583 -1.93887,-2.1153 -1.76248,-2.2916 -1.5875,-2.4681 -0.70414,-1.4097 -0.52917,-1.4111 -0.52916,-1.4097 -0.52917,-1.4097 -0.70415,-2.8208 -0.35277,-1.5875 -0.17639,-1.5861 -0.17639,-1.5861 0,-1.4111 4.93607,-0.1764 0,1.4112 0.17638,1.2333 0.17639,1.2347 0.17639,1.4097 0.70415,2.468 0.35277,1.2347 0.52917,1.057 0.52917,1.2347 0.35278,1.0569 1.4097,2.1153 1.4097,1.9388 1.76388,1.9403 0.88054,0.7042 0.88194,0.8819 1.05692,0.7056 0.88195,0.7041 2.29164,1.4111 1.05834,0.5278 1.05692,0.5291 1.23472,0.3528 1.23331,0.5292 1.05834,0.3528 1.23331,0.1763 1.4097,0.3514 1.05833,0 2.9972,0.1764 z"
         id="path11878"
         inkscape:connector-curvature="0" />
      <path
         style="fill:#ffffff;fill-opacity:1;fill-rule:nonzero;stroke:none"
         d="m 215.00236,-310.03583 0.70415,0 -0.88054,0 0.35278,-4.9361 -0.17639,0 0,4.9361 z"
         id="path11880"
         inkscape:connector-curvature="0" />
      <path
         style="fill:#ffffff;fill-opacity:1;fill-rule:nonzero;stroke:none"
         d="m 184.32904,-398.88223 4.93607,0 0,58.173 -4.93607,0 z"
         id="path11882"
         inkscape:connector-curvature="0" />
      <path
         style="fill:#ffffff;fill-opacity:1;fill-rule:nonzero;stroke:none"
         d="m 184.32904,-340.53283 0,-0.1764 4.93607,0 -4.93607,0.1764 z"
         id="path11884"
         inkscape:connector-curvature="0" />
      <path
         style="fill:#ffffff;fill-opacity:1;fill-rule:nonzero;stroke:none"
         d="m 184.32904,-399.05723 0,-1.4111 0.17639,-1.5861 0.17639,-1.5875 0.35277,-1.5861 0.17639,-1.4097 0.52776,-1.4111 0.52917,-1.4097 0.52916,-1.4097 0.52917,-1.4111 0.70414,-1.2333 1.41111,-2.468 1.05693,-1.2347 0.88194,-1.2333 0.88195,-1.0584 1.05692,-1.2333 2.11525,-1.7625 2.29165,-1.9402 2.64442,-1.4097 1.23472,-0.7056 1.4097,-0.7041 1.4097,-0.5293 1.5875,-0.3527 2.64442,-0.8819 1.58609,-0.1764 1.58609,-0.175 2.9972,-0.1764 0.17639,4.9346 -2.82081,0.1765 -1.23331,0.1763 -1.05833,0.1764 -2.64443,0.7055 -1.05692,0.3529 -1.23472,0.3527 -1.05692,0.5278 -1.05834,0.5292 -2.29164,1.4111 -1.93887,1.4097 -1.76248,1.7624 -0.88194,0.882 -0.88194,0.8805 -0.70415,1.0583 -0.70555,0.882 -1.4097,2.2917 -0.52917,1.0569 -0.35278,1.0583 -0.52917,1.2333 -0.52916,1.2347 -0.17639,1.2334 -0.35137,1.0583 -0.17639,1.4096 -0.17639,1.2348 -0.17638,1.2333 0,1.4097 z"
         id="path11886"
         inkscape:connector-curvature="0" />
      <path
         style="fill:#ffffff;fill-opacity:1;fill-rule:nonzero;stroke:none"
         d="m 184.32904,-398.88223 0,-0.175 4.93607,0.175 -4.93607,0 z"
         id="path11888"
         inkscape:connector-curvature="0" />
      <path
         style="fill:#ffffff;fill-opacity:1;fill-rule:nonzero;stroke:none"
         d="m 215.00236,-429.55413 121.28218,0 0,4.9346 -121.28218,0 z"
         id="path11890"
         inkscape:connector-curvature="0" />
      <path
         style="fill:#ffffff;fill-opacity:1;fill-rule:nonzero;stroke:none"
         d="m 214.82597,-429.55413 0.17639,0 0,4.9346 -0.17639,-4.9346 z"
         id="path11892"
         inkscape:connector-curvature="0" />
      <path
         style="fill:#ffffff;fill-opacity:1;fill-rule:nonzero;stroke:none"
         d="m 333.81651,-548.36833 4.93606,0 0,121.2822 -4.93606,0 z"
         id="path11894"
         inkscape:connector-curvature="0" />
      <path
         style="fill:#ffffff;fill-opacity:1;fill-rule:nonzero;stroke:none"
         d="m 336.28454,-424.61953 2.46803,0 0,-2.4666 -4.93606,0 2.46803,-2.468 0,4.9346 z"
         id="path11896"
         inkscape:connector-curvature="0" />
      <path
         style="fill:#ffffff;fill-opacity:1;fill-rule:nonzero;stroke:none"
         d="m 333.81651,-548.36833 0,-0.1764 4.93606,0.1764 -4.93606,0 z"
         id="path11898"
         inkscape:connector-curvature="0" />
      <g
         transform="translate(-16.810265,-560.43503)"
         id="g4361">
        <path
           inkscape:connector-curvature="0"
           id="path4335"
           d="m 890.922,371.95719 0,-271.9169 41.8333,0 0,37.84906 6.97208,-8.96434 7.9682,-8.96406 3.98425,-3.98396 4.98009,-2.98839 4.9801,-3.98425 4.98038,-2.98755 4.98037,-2.98811 5.97566,-1.9917 5.9768,-1.992547 5.97566,-1.991699 5.97679,-0.996697 5.97562,-0.995849 13.9442,-0.99585 6.9724,0 6.9726,0.99585 6.9715,0.995849 5.9768,0.996697 5.9757,1.991699 5.9767,1.992547 4.9799,2.98755 4.9801,2.98811 4.9798,2.9884 3.9842,3.98424 3.9843,2.98727 3.9839,4.98094 5.9768,8.96406 1.9917,4.98009 2.9881,5.97566 3.9843,-5.97566 3.9842,-4.98009 8.9641,-9.96076 4.9798,-3.98424 4.9809,-3.98396 4.9798,-3.98425 4.9801,-2.98755 4.9801,-2.98811 5.9765,-1.9917 5.976,-1.992547 4.9798,-1.991699 5.9768,-0.996697 6.9723,-0.995849 11.9517,-0.99585 9.9607,0 9.9599,0.99585 7.9685,1.992546 7.9682,2.987546 7.9682,2.9884 6.9724,3.98396 5.9759,3.98425 5.9765,5.97566 4.9801,5.97679 4.9801,5.97566 3.984,7.96849 2.9884,7.96821 1.9917,8.96406 1.9925,9.96075 0.9959,10.95576 0,10.9566 0,186.25831 -45.8173,0 0,-171.31746 -0.9958,-12.9483 0,-10.95661 -0.9967,-3.98396 -0.9959,-4.98009 -1.9917,-6.97236 -1.9925,-5.97595 -3.984,-4.98066 -1.9917,-1.99169 -2.9884,-1.99255 -4.9801,-3.98425 -5.9765,-3.98396 -6.9718,-1.9917 -6.9723,-0.99585 -7.9683,-0.99585 -6.9723,0 -6.9718,0.99585 -5.9765,1.9917 -6.9727,1.99227 -4.9798,2.98754 -5.9759,2.9884 -4.9798,3.98425 -4.981,3.98396 -4.9798,4.98009 -2.9884,5.97651 -3.9842,6.97264 -1.9917,6.97151 -2.9881,7.96821 -0.9959,8.96434 -0.9958,8.96491 0,10.95575 0,157.37331 -46.814,0 0,-176.29755 0,-7.96821 0,-6.97236 -1.9917,-11.95245 -1.9925,-5.97595 -1.9917,-4.98066 -1.9923,-3.98424 -2.9876,-3.98397 -2.9883,-3.98424 -2.9884,-2.98755 -3.984,-2.98839 -4.9801,-1.99227 -4.9798,-1.9917 -4.9801,-0.99585 -5.9765,-0.99585 -5.976,0 -8.96402,0.99585 -4.98094,0.99585 -4.97981,0.99585 -3.98425,0.99585 -4.98009,1.99227 -3.98397,1.99169 -3.98424,1.99255 -7.96821,5.97594 -2.98811,2.98812 -2.98812,3.98424 -5.97622,7.96821 -3.98397,8.96406 -1.99226,5.97679 -0.99585,4.97981 -1.99226,6.97264 -0.99585,6.97151 -0.99614,14.94085 -0.99584,17.92812 0,140.44104 -45.81755,0 z"
           style="fill:#e72f2a;fill-opacity:1;fill-rule:evenodd;stroke:none" />
        <path
           inkscape:connector-curvature="0"
           id="path4337"
           d="m 1506.4688,338.09153 -11.9524,9.96076 -12.9483,8.96405 -11.9525,6.97264 -11.9524,4.97982 -11.9525,3.98424 -6.9715,1.9917 -5.9768,0.9967 -12.948,1.99141 -6.9727,0 -6.9715,0 -9.9607,0 -10.9566,-0.99585 -8.9644,-1.99226 -8.964,-1.9917 -8.9641,-2.98839 -6.9723,-3.98425 -3.9843,-1.99142 -2.9875,-2.98839 -6.9724,-4.9801 -5.9768,-5.97651 -3.9839,-5.97594 -4.9801,-5.97651 -2.9884,-6.97179 -2.9873,-6.97236 -1.9926,-7.96821 -0.9958,-7.96821 0,-7.96849 0,-9.9599 1.9917,-8.96491 2.9881,-8.96406 3.9843,-7.9682 4.9801,-7.9685 5.9765,-6.97151 5.9759,-6.97264 6.9724,-4.97981 7.9682,-4.98009 7.9685,-3.98397 7.9682,-2.98839 8.964,-2.9884 7.9682,-1.9917 9.9602,-1.99226 23.9046,-2.9884 25.8975,-3.98424 21.9124,-2.98755 9.9599,-1.99226 8.9643,-2.98755 14.9406,-3.98425 0.9958,-11.95245 -0.9958,-6.97236 0,-5.97679 -0.9959,-5.97566 -1.9922,-4.9801 -0.9959,-4.97981 -2.9884,-3.98425 -1.9917,-3.98424 -3.9842,-2.98811 -3.984,-3.98425 -4.9801,-2.9884 -5.9765,-1.99169 -6.9718,-2.98812 -6.9723,-0.99585 -6.9724,-1.99254 -7.9685,0 -7.9682,-0.99585 -7.9682,0.99585 -7.9685,0 -6.9715,0.99669 -5.9765,0.99585 -10.9561,3.98397 -4.9806,1.99169 -3.9843,2.9884 -3.9839,2.9884 -2.9876,3.98396 -2.9884,3.98424 -2.9884,4.9801 -2.9872,4.97981 -2.9884,5.97679 -1.9926,6.97151 -1.9917,6.97236 -44.8214,-6.97236 2.9884,-13.94415 2.9876,-5.97651 1.9922,-5.97594 5.976,-10.95661 5.9765,-9.9599 3.9842,-3.98396 3.9843,-3.98425 4.9798,-3.98425 4.9801,-3.98396 4.9798,-2.98839 5.9768,-2.9884 5.9756,-2.98755 5.9768,-1.99226 13.9442,-4.980097 7.9682,-0.995849 6.9723,-1.992547 7.9685,-0.995849 7.9682,0 8.9641,-0.99585 7.9682,0 16.9326,0.99585 7.9682,0 6.9726,0.995849 13.9439,2.988396 11.9524,2.988397 4.9801,1.9917 4.9801,2.98811 3.984,1.9917 4.9809,2.9884 2.9873,1.99254 3.9842,2.98727 5.9765,5.97679 1.9917,2.9884 2.9884,3.98396 3.9843,6.97179 2.9881,8.96406 1.9917,8.9649 0.9958,6.9718 0.9967,8.9649 0,11.95161 0.9959,13.94472 0,61.75396 0,28.88472 0,22.90906 0.9958,17.92839 0.9959,5.97567 0,4.98094 1.9925,8.96406 2.9876,7.9682 2.9881,7.96849 3.9842,7.96821 -48.8056,0 -2.9876,-6.97236 -1.9922,-8.96434 -1.9917,-7.9682 -1.9926,-9.96076 z m -2.9884,-102.59114 -14.94,4.98066 -16.9322,4.9801 -20.9166,3.98424 -22.909,3.98397 -13.9442,1.9917 -10.9566,1.99254 -8.964,1.9917 -6.9727,2.9884 -4.9798,2.98811 -4.9801,2.98755 -4.9806,3.98424 -2.9876,4.97982 -2.9884,4.98094 -1.9925,4.97981 -0.9956,5.97594 -0.9958,5.97651 0.9958,3.98425 0,1.9917 0,2.98839 0.9956,3.98397 1.9925,3.98424 1.9917,2.9884 1.9926,3.98396 2.9884,2.98755 2.9872,2.98839 3.9843,2.98812 3.9842,2.98839 4.9798,1.9917 4.981,1.99255 4.9798,0.99585 5.9759,0.99585 5.9765,0.99585 6.9718,0 12.9489,-0.99585 5.9759,-0.99585 5.9766,-0.99585 5.9759,-1.99255 4.9801,-1.9917 10.9566,-4.98066 9.9599,-5.97594 3.984,-3.98425 3.9842,-3.98396 3.9843,-3.98424 2.9881,-3.98397 2.9884,-4.98009 2.9875,-4.9801 1.9926,-3.98396 0.9958,-3.98424 0.9959,-5.97651 1.9922,-4.9801 0.9959,-11.95245 0,-14.94057 0.9958,-16.93255 z"
           style="fill:#e72f2a;fill-opacity:1;fill-rule:evenodd;stroke:none" />
        <path
           inkscape:connector-curvature="0"
           id="path4339"
           d="m 1603.084,291.27842 45.8173,-7.96821 0.9958,6.97236 0.9959,5.97594 1.9925,5.97651 2.9884,5.97594 0.9959,1.99227 1.9917,2.98755 2.9881,3.98424 3.9842,4.97981 3.9843,3.98425 4.9798,2.98839 4.9801,2.98812 4.9806,1.9917 5.9743,2.98839 6.9763,0.99585 5.972,0.9967 7.973,0.99585 6.9684,0 7.9651,0 6.9766,-0.99585 6.9684,-0.9967 5.9799,-0.99585 5.9796,-1.9917 4.9753,-1.99254 4.9832,-2.98812 3.9786,-2.98754 6.9763,-6.97265 1.9934,-2.98811 1.9931,-3.98424 1.9855,-3.98397 0.9964,-3.98424 0.9967,-3.98425 0,-3.98396 -0.9967,-7.96849 -0.9964,-2.98755 -0.9888,-2.98811 -1.9931,-2.9884 -1.9934,-2.98839 -2.9898,-2.98727 -3.9865,-1.99255 -1.9855,-1.9917 -3.9865,-0.99584 -9.9582,-3.98425 -13.945,-3.98396 -16.9348,-4.98095 -22.9068,-5.97566 -19.9229,-5.97679 -15.9367,-4.97981 -5.9757,-1.9917 -4.9809,-2.9884 -4.9798,-1.99169 -4.9801,-2.9884 -3.9843,-2.98811 -3.9839,-2.9884 -2.9884,-2.98755 -3.9843,-3.98396 -4.9798,-7.96849 -2.9884,-3.98396 -1.9917,-3.98425 -2.9881,-8.96406 -1.9917,-9.96075 0,-8.96406 0,-8.96434 0.9959,-4.97981 0.9958,-3.98425 1.9923,-7.9682 3.9842,-7.96849 3.9843,-7.96821 5.9756,-5.97651 5.976,-6.97179 6.9723,-4.98066 5.9765,-3.98425 5.976,-2.98755 7.9682,-3.98396 8.964,-1.99255 9.9608,-2.987546 8.9618,-1.992546 10.9552,-0.99585 9.9661,0 15.9302,0.99585 13.945,0.995849 6.9763,1.992547 6.9687,0.995849 11.9516,3.984247 11.9595,4.97981 4.9753,2.9884 4.9832,2.98839 3.9786,3.98397 3.9865,2.98754 2.9898,3.98425 2.9898,2.98811 2.9819,4.9801 2.9901,3.98424 1.9931,4.97981 1.9934,4.98095 3.9865,10.95575 1.9934,12.94915 -44.8248,5.97566 -0.9967,-4.97981 -0.9964,-4.98009 -1.9934,-3.98425 -1.9931,-4.98066 -1.9855,-3.98424 -2.9898,-2.98755 -2.9898,-3.98396 -3.9868,-2.9884 -3.9783,-2.9884 -3.9868,-1.99169 -4.9829,-1.99227 -4.9753,-1.9917 -4.9832,-0.99585 -5.9799,-0.99669 -5.9717,-0.99585 -6.9766,0 -6.9684,0 -6.9684,0.99585 -6.9763,0 -5.976,1.99254 -4.9801,0.99585 -4.9798,1.9917 -1.9925,0.99642 -1.9917,0.99585 -3.984,2.98839 -2.9884,1.9917 -2.9884,2.9884 -3.9839,5.97566 -1.9917,2.98839 -0.9959,2.9884 -0.9967,6.97236 0.9967,4.98009 0.9959,3.98397 1.9917,3.98424 1.9922,2.98755 2.9876,3.98396 3.9842,2.9884 4.9807,2.98839 5.9759,2.98812 12.9475,3.98424 27.8897,7.96764 21.9101,5.97651 18.9279,4.9801 14.9417,5.97651 11.9516,3.98424 8.9618,4.97982 7.973,4.98009 7.9651,6.97236 2.9898,2.98755 2.9901,3.98424 1.9852,3.98396 2.9898,4.98095 0.9967,3.98396 1.9934,4.98009 0.9964,4.97982 0.9967,5.97594 0.9967,4.98066 0,5.97594 -0.9967,10.95661 -0.9967,5.97594 -1.9931,4.97982 -0.9967,5.97679 -2.9898,4.97981 -5.972,9.96075 -2.9898,4.9801 -3.9865,4.97981 -4.9753,3.98425 -3.9865,3.98424 -4.9832,3.98396 -5.9717,3.98425 -11.9516,5.97566 -12.9483,4.98094 -6.9766,1.9917 -6.9684,0.99585 -6.9763,1.99226 -7.9651,0 -6.9766,0.99585 -7.9651,0 -12.9483,0 -11.9516,-0.99585 -11.9533,-1.99226 -9.9599,-1.9917 -9.9608,-2.98839 -8.964,-3.98425 -7.9682,-4.97981 -7.9685,-4.9801 -5.9757,-5.97651 -5.9768,-5.97594 -5.9756,-6.97236 -4.9801,-7.96821 -3.984,-8.96434 -2.9884,-8.96405 -2.9884,-9.96076 -1.9917,-9.9599 z"
           style="fill:#e72f2a;fill-opacity:1;fill-rule:evenodd;stroke:none" />
        <path
           inkscape:connector-curvature="0"
           id="path4341"
           d="m 1957.6714,371.95719 -102.5895,-271.9169 49.7999,0 57.7728,163.34926 8.9618,26.89302 8.9615,27.8883 2.9901,-11.95161 3.9865,-11.95245 9.9582,-27.88915 60.755,-166.33737 47.8144,0 -103.5862,271.9169 -44.8245,0 z"
           style="fill:#e72f2a;fill-opacity:1;fill-rule:evenodd;stroke:none" />
        <path
           inkscape:connector-curvature="0"
           id="path4343"
           d="m 2145.9237,49.242931 0,-52.7896253 45.8133,0 0,52.7896253 -45.8133,0 z m 0,322.714259 0,-271.9169 45.8133,0 0,271.9169 -45.8133,0 z"
           style="fill:#e72f2a;fill-opacity:1;fill-rule:evenodd;stroke:none" />
        <path
           inkscape:connector-curvature="0"
           id="path4345"
           d="m 2438.7506,371.95719 0,-33.86566 -6.9684,8.96406 -3.9865,3.98424 -3.9865,3.98425 -7.9651,6.97236 -8.9618,5.97651 -4.9832,1.9917 -4.9751,1.99254 -10.9631,3.98425 -10.9549,0.99556 -11.9516,0.99585 -7.9651,0 -7.9733,-0.99585 -7.9651,-0.99556 -7.9651,-1.99255 -6.9763,-2.98839 -6.9684,-2.98755 -3.9865,-1.99255 -3.9865,-1.99142 -5.972,-3.98424 -6.9763,-4.98066 -5.972,-4.9801 -5.9796,-4.98009 -5.972,-5.97566 -4.9832,-6.97264 -4.9832,-6.97236 -3.9786,-6.97236 -3.9865,-7.96764 -2.9898,-7.96821 -2.9898,-8.96491 -2.9819,-8.96405 -1.9934,-8.96434 -1.9934,-8.96406 -0.9964,-9.96076 -0.9967,-9.9599 0,-9.95991 0,-9.96075 0.9967,-9.95991 0.9964,-9.96075 0.9967,-8.96434 1.9934,-8.96406 2.9819,-8.96406 1.9931,-8.96406 3.9868,-7.96849 2.9898,-7.96821 3.9786,-7.9682 4.9832,-6.97264 4.9832,-6.97236 4.975,-5.97566 5.9799,-4.9801 5.9717,-5.97651 6.9766,-3.98424 5.9717,-3.98425 7.973,-3.98396 6.9687,-2.98755 6.9763,-2.988396 7.9651,-0.99585 7.973,-1.992546 7.9651,-0.99585 7.9651,0 11.9516,0.99585 5.9799,0.995849 5.9799,0.996697 4.9751,0.99585 4.9832,1.991696 5.9719,1.99255 3.9866,1.9917 9.9582,5.97651 3.9868,2.98755 3.9865,3.98424 6.9684,6.97236 6.9763,7.96821 0,-135.4601043 45.8133,0 0,375.5038843 -42.8314,0 z m -146.4173,-135.4601 0.9964,12.9483 0.9967,11.95246 1.9934,10.95575 1.9931,9.96076 2.9901,8.96406 3.9783,8.96405 3.9868,6.97264 2.9898,3.98397 2.9898,2.98755 1.9934,2.98839 2.9819,2.98811 5.9799,5.97595 5.9717,3.98424 6.9763,3.98397 6.9687,2.98839 5.9796,1.99255 7.9651,0.99585 6.9766,0 6.9684,0 7.9731,-0.99585 6.9684,-1.99255 5.9799,-2.98839 6.9684,-2.98755 5.9799,-4.98066 4.9753,-4.9801 5.9796,-5.97566 4.9753,-5.97651 3.9865,-7.96849 3.9865,-7.96821 2.9901,-8.96405 1.9852,-9.95991 1.9931,-9.96075 0.9967,-11.95246 0,-11.95189 0,-13.94471 -0.9967,-11.95246 -1.9931,-11.95245 -1.9852,-10.95576 -2.9901,-8.9649 -1.9931,-4.9801 -1.9934,-3.98424 -1.9931,-3.98396 -2.9822,-3.98425 -4.9829,-6.97151 -4.9832,-5.97679 -2.9819,-2.98812 -2.9901,-2.98754 -2.9898,-1.99255 -2.9899,-1.9917 -6.9686,-3.98424 -6.9764,-2.98812 -6.9684,-1.9917 -6.9766,-0.99669 -7.9651,-0.99585 -7.9651,0.99585 -6.9763,0.99669 -6.9684,1.9917 -5.9799,2.98812 -6.9684,2.98754 -5.9799,4.98095 -4.9832,4.97981 -5.9717,5.97594 -1.9934,2.9884 -2.9898,2.98811 -3.9786,7.96849 -2.9898,8.96406 -2.9901,8.96406 -2.9898,9.96075 0,5.97595 -0.9967,5.97566 -0.9967,11.95245 -0.9964,12.94915 z"
           style="fill:#e72f2a;fill-opacity:1;fill-rule:evenodd;stroke:none" />
        <path
           inkscape:connector-curvature="0"
           id="path4347"
           d="m 2732.5824,338.09153 -11.9516,9.96076 -12.9483,8.96405 -11.9516,6.97264 -11.9516,4.97982 -11.9516,3.98424 -6.9766,1.9917 -5.9718,0.9967 -12.9483,1.99141 -6.9766,0 -5.9717,0 -10.9631,0 -10.9549,-0.99585 -8.9618,-1.99226 -8.9615,-1.9917 -8.9697,-2.98839 -6.9687,-3.98425 -3.9865,-1.99142 -2.9898,-2.98839 -6.9684,-4.9801 -4.9832,-5.97651 -4.9753,-5.97594 -3.9865,-5.97651 -3.9865,-6.97179 -2.9898,-6.97236 -0.9888,-7.96821 -1.9934,-7.96821 0,-7.96849 0.9967,-9.9599 0.9967,-8.96491 2.9819,-8.96406 3.9865,-7.9682 4.9832,-7.9685 5.972,-6.97151 5.9796,-6.97264 6.9684,-4.97981 7.9733,-4.98009 7.9651,-3.98397 8.9615,-2.98839 8.9697,-2.9884 6.9687,-1.9917 9.9582,-1.99226 23.9114,-2.9884 25.8964,-3.98424 22.9068,-2.98755 8.9618,-1.99226 8.9615,-2.98755 15.9384,-3.98425 0,-11.95245 0,-6.97236 -0.9967,-5.97679 -0.9967,-5.97566 -0.9967,-4.9801 -1.9852,-4.97981 -2.9898,-3.98425 -1.9934,-3.98424 -2.9898,-2.98811 -4.9753,-3.98425 -4.9832,-2.9884 -5.9796,-1.99169 -5.972,-2.98812 -6.9763,-0.99585 -7.9651,-1.99254 -7.9651,0 -7.9733,-0.99585 -7.9651,0.99585 -7.9731,0 -5.9717,0.99669 -6.9766,0.99585 -10.9549,3.98397 -3.9786,1.99169 -4.9832,2.9884 -2.9898,2.9884 -3.9865,3.98396 -2.9819,3.98424 -2.9901,4.9801 -2.9898,4.97981 -1.9934,5.97679 -2.9819,6.97151 -1.9931,6.97236 -44.8248,-6.97236 3.9868,-13.94415 1.9931,-5.97651 1.9852,-5.97594 5.9799,-10.95661 5.9799,-9.9599 3.9786,-3.98396 3.9865,-3.98425 4.9832,-3.98425 4.975,-3.98396 4.9832,-2.98839 5.972,-2.9884 5.9796,-2.98755 5.972,-1.99226 13.9447,-4.980097 7.9733,-0.995849 6.9684,-1.992547 7.973,-0.995849 7.9651,0 8.9618,-0.99585 8.9698,0 15.9302,0.99585 7.973,0 6.9684,0.995849 13.945,2.988396 11.9516,2.988397 4.9832,1.9917 4.9832,2.98811 3.9786,1.9917 4.9832,2.9884 3.9865,1.99254 2.9819,2.98727 5.9799,5.97679 1.9931,2.9884 2.9898,3.98396 3.9786,6.97179 2.9901,8.96406 1.9931,8.9649 0.9967,6.9718 0.9967,8.9649 0.9967,11.95161 0,13.94472 0,61.75396 0,28.88472 0,22.90906 0.9964,17.92839 0.9967,5.97567 0.9888,4.98094 0.9964,8.96406 2.9901,7.9682 2.9898,7.96849 3.9865,7.96821 -48.811,0 -2.9819,-6.97236 -1.9934,-8.96434 -1.9931,-7.9682 -1.9934,-9.96076 z m -2.9898,-102.59114 -13.945,4.98066 -17.9236,4.9801 -19.9246,3.98424 -23.9033,3.98397 -12.9483,1.9917 -11.9516,1.99254 -8.9618,1.9917 -6.9763,2.9884 -4.9832,2.98811 -4.9753,2.98755 -3.9865,3.98424 -3.9865,4.97982 -2.9819,4.98094 -1.9934,4.97981 -0.9967,5.97594 0,5.97651 0,3.98425 0,1.9917 0,2.98839 1.9934,3.98397 0.9967,3.98424 1.9931,2.9884 1.9855,3.98396 2.9898,2.98755 3.9865,2.98839 2.9898,2.98812 3.9786,2.98839 4.9832,1.9917 4.9832,1.99255 4.9753,0.99585 5.9796,0.99585 5.972,0.99585 6.9764,0 12.9483,-0.99585 5.9719,-0.99585 5.9797,-0.99585 5.9719,-1.99255 5.9797,-1.9917 9.9585,-4.98066 9.9585,-5.97594 4.9829,-3.98425 3.9868,-3.98396 2.9898,-3.98424 2.9819,-3.98397 2.9898,-4.98009 2.9901,-4.9801 1.9931,-3.98396 0.9967,-3.98424 1.9852,-5.97651 0.9967,-4.9801 0.9967,-11.95245 0.9967,-14.94057 0,-16.93255 z"
           style="fill:#e72f2a;fill-opacity:1;fill-rule:evenodd;stroke:none" />
      </g>
    </g>
    <rect
       style="opacity:1;fill:none;fill-opacity:1;stroke:#0056ca;stroke-width:9.95265865;stroke-miterlimit:4;stroke-dasharray:none;stroke-opacity:1"
       id="rect5186"
       width="2824.2664"
       height="2824.3989"
       x="8.9222031"
       y="-1775.3849" />
  </g>
</svg>
