<?xml version="1.0" encoding="UTF-8" standalone="no"?>
<!-- Created with Inkscape (http://www.inkscape.org/) -->

<svg
   xmlns:dc="http://purl.org/dc/elements/1.1/"
   xmlns:cc="http://creativecommons.org/ns#"
   xmlns:rdf="http://www.w3.org/1999/02/22-rdf-syntax-ns#"
   xmlns:svg="http://www.w3.org/2000/svg"
   xmlns="http://www.w3.org/2000/svg"
   xmlns:sodipodi="http://sodipodi.sourceforge.net/DTD/sodipodi-0.dtd"
   xmlns:inkscape="http://www.inkscape.org/namespaces/inkscape"
   width="180.15356mm"
   height="185.12534mm"
   viewBox="0 0 638.33941 655.95592"
   id="svg2"
   version="1.1"
   inkscape:version="0.92.4 (5da689c313, 2019-01-14)"
   sodipodi:docname="mas_vida-icon.svg"
   inkscape:export-filename="E:\WebProjects\ConsultaMD\ConsultaMD\wwwroot\img\Nueva Más Vida-icon.png"
   inkscape:export-xdpi="59"
   inkscape:export-ydpi="59">
  <defs
     id="defs4" />
  <sodipodi:namedview
     id="base"
     pagecolor="#ffffff"
     bordercolor="#666666"
     borderopacity="1.0"
     inkscape:pageopacity="0.0"
     inkscape:pageshadow="2"
     inkscape:zoom="0.15861561"
     inkscape:cx="-1143.2084"
     inkscape:cy="-28.805384"
     inkscape:document-units="px"
     inkscape:current-layer="layer1"
     showgrid="false"
     inkscape:window-width="1366"
     inkscape:window-height="745"
     inkscape:window-x="1358"
     inkscape:window-y="-8"
     inkscape:window-maximized="1"
     fit-margin-top="0"
     fit-margin-left="0"
     fit-margin-right="0"
     fit-margin-bottom="0" />
  <metadata
     id="metadata7">
    <rdf:RDF>
      <cc:Work
         rdf:about="">
        <dc:format>image/svg+xml</dc:format>
        <dc:type
           rdf:resource="http://purl.org/dc/dcmitype/StillImage" />
        <dc:title></dc:title>
      </cc:Work>
    </rdf:RDF>
  </metadata>
  <g
     inkscape:label="Capa 1"
     inkscape:groupmode="layer"
     id="layer1"
     transform="translate(-167.25534,697.77292)">
    <g
       id="g4923"
       transform="matrix(0.90846137,0,0,0.90846137,128.87681,-33.850525)">
      <path
         style="fill:#0094cb;fill-opacity:1;fill-rule:nonzero;stroke:none"
         d="m 744.90559,-483.49673 -72.2757,41.7788 -72.27567,41.7787 -0.35275,-2.8208 -0.5278,-2.6444 -0.35275,-1.4097 -0.3528,-1.2347 -0.35275,-1.2333 -0.5292,-1.2347 -0.7041,-1.2334 -0.5292,-1.2347 -1.4111,-2.1152 -1.7625,-2.1153 -1.76245,-1.9388 -1.05835,-0.8806 -0.8805,-0.8819 -1.05835,-0.882 -1.05695,-0.7041 -2.2916,-1.4111 -2.46805,-1.0569 -1.23475,-0.5292 -1.4097,-0.3528 -2.6444,-0.7056 -1.2333,-0.1763 -1.4111,-0.1764 -2.82085,-0.175 H 450.86817 v -121.2822 -1.4111 l -0.17639,-1.4097 -0.17639,-1.4111 -0.17638,-1.4097 -0.35278,-1.4097 -0.35278,-1.4111 -0.52917,-1.2333 -0.52916,-1.2348 -0.52776,-1.2333 -0.52917,-1.2347 -1.4097,-2.2916 -0.88194,-1.2333 -0.70556,-1.0584 -1.05692,-0.8805 -0.88194,-1.0583 -1.93887,-1.7625 -2.11525,-1.7625 -2.46804,-1.4111 -1.23472,-0.5277 -1.23331,-0.5292 -1.23472,-0.5292 -1.23331,-0.5292 -2.82082,-0.7041 -1.23331,-0.1764 -1.41111,-0.1764 -2.99579,-0.1763 h -58.17305 l -2.9972,0.1763 -1.41111,0.1764 -1.4097,0.1764 -1.23331,0.3514 -1.41112,0.3527 -1.23331,0.5292 -1.41111,0.5292 -1.23331,0.5292 -1.23472,0.5277 -2.29165,1.4111 -1.05692,0.8805 -1.05833,0.882 -1.05692,0.8819 -0.88195,0.8806 -1.93886,1.9388 -1.58609,2.2917 -1.41111,2.2916 -0.70415,1.2347 -0.52917,1.2333 -0.52916,1.2348 -0.35278,1.2333 -0.70556,2.8208 -0.17497,1.4097 -0.17639,1.4111 -0.17639,1.4097 v 1.4111 121.2822 H 215.00236 l -2.82081,0.175 -1.4097,0.1764 -1.41111,0.1763 -2.64442,0.7056 -1.23331,0.3528 -1.23473,0.5292 -1.23331,0.5278 -1.23472,0.5291 -1.05692,0.7056 -1.23472,0.7055 -2.11526,1.5861 -1.05692,0.882 -0.88195,0.8805 -0.88053,0.8819 -1.05833,1.0569 -1.58609,2.1153 -0.70556,1.0584 -0.70555,1.0569 -1.23331,2.468 -0.88195,2.468 -0.52917,1.2348 -0.35136,1.4097 -0.17639,1.2347 -0.17639,1.4096 -0.17639,1.4097 -0.17639,1.4111 -72.27573,-41.7787 -72.275705,-41.7788 77.211505,-133.622 98.36603,56.763 98.54071,56.762 v -113.7014 -113.52559 h 77.21177 77.21177 v 113.52559 113.7014 l 98.36575,-56.762 98.54072,-56.763 z"
         id="path11800"
         inkscape:connector-curvature="0" />
      <path
         style="fill:#7daf43;fill-opacity:1;fill-rule:nonzero;stroke:none"
         d="m 42.245635,-256.09333 72.275705,-41.7788 72.27573,-41.7787 0.35278,2.8208 0.35278,2.6444 0.35136,1.4097 0.52917,1.2347 0.88195,2.4667 0.70555,1.2347 0.52776,1.2333 1.41111,2.1152 1.58609,2.1167 1.93886,1.9389 0.88195,0.8805 1.05692,0.882 1.05833,0.8819 1.05693,0.7041 2.29164,1.4112 2.46803,1.0569 1.23473,0.5291 1.23331,0.3528 2.64442,0.7056 1.41111,0.175 1.4097,0.1763 2.82081,0.1764 h 121.28218 v 121.2822 1.4111 l 0.17639,1.4097 0.17639,1.4097 0.17497,1.4112 0.35278,1.4097 0.35278,1.4111 0.35278,1.2332 0.52916,1.2348 0.52917,1.2333 0.70415,1.2333 1.41111,2.293 0.70414,1.2334 0.88195,1.0583 0.88194,1.0569 1.05692,0.882 1.93887,1.7624 2.11525,1.7625 2.29165,1.4111 1.23472,0.5278 1.23331,0.5292 1.41111,0.5291 1.23331,0.5292 2.64443,0.7041 1.4097,0.1764 1.41111,0.1764 2.9972,0.1764 h 58.17305 l 2.99579,-0.1764 1.41111,-0.1764 1.23331,-0.1764 1.41112,-0.3513 1.4097,-0.3528 1.23331,-0.5292 1.23472,-0.5291 1.23331,-0.5292 1.23472,-0.5278 2.46804,-1.4111 1.05692,-0.8805 1.05833,-0.882 1.05692,-0.8819 0.88195,-0.8805 1.93886,-1.9389 1.5875,-2.2917 1.4097,-2.293 0.52917,-1.2333 0.52776,-1.2333 0.52916,-1.2347 0.52917,-1.2333 0.70556,-2.8208 0.17638,-1.4111 0.17639,-1.4097 0.17639,-1.4098 v -1.4111 -121.2822 h 121.28075 l 2.82085,-0.1764 1.4111,-0.1763 1.2333,-0.175 2.6444,-0.7056 1.4097,-0.3527 1.23475,-0.5292 1.2333,-0.5292 1.23475,-0.5277 1.0569,-0.7056 1.2347,-0.7055 2.1153,-1.5861 1.0569,-0.882 0.88195,-0.8805 0.88195,-0.882 0.8805,-1.0569 1.7625,-1.9403 0.70555,-1.2333 0.70555,-1.0583 1.2333,-2.468 0.88195,-2.4667 0.3528,-1.2347 0.35275,-1.4097 0.3528,-1.2347 0.175,-1.4097 0.17635,-1.4111 0.1764,-1.4097 72.27567,41.7788 72.2757,41.7787 -77.2117,133.7988 -98.54072,-56.9398 -98.36575,-56.7633 v 113.5267 113.7017036 H 393.57565 316.36388 V -122.47093 -235.99763 l -98.54071,56.7633 -98.36603,56.7633 z"
         id="path11802"
         inkscape:connector-curvature="0" />
      <path
         style="fill:#ffffff;fill-opacity:1;fill-rule:nonzero;stroke:none"
         d="m 336.28454,-548.36833 v -1.4111 l 0.17639,-1.4097 0.17639,-1.4111 0.17497,-1.4097 0.35278,-1.4097 0.35278,-1.4111 0.35278,-1.2333 0.52916,-1.2348 0.52917,-1.2333 0.70415,-1.2347 1.41111,-2.2916 0.70414,-1.2333 0.88195,-1.0584 0.88194,-0.8805 1.05692,-1.0583 1.93887,-1.7625 2.11525,-1.7625 2.29165,-1.4111 1.23472,-0.5277 1.23331,-0.5292 1.41111,-0.5292 1.23331,-0.5292 2.64443,-0.7041 1.4097,-0.1764 1.41111,-0.1764 2.9972,-0.1763 h 58.17305 l 2.99579,0.1763 1.41111,0.1764 1.23331,0.1764 1.41112,0.3514 1.4097,0.3527 1.23331,0.5292 1.23472,0.5292 1.23331,0.5292 1.23472,0.5277 2.46804,1.4111 1.05692,0.8805 1.05833,0.882 1.05692,0.8819 0.88195,0.8806 1.93886,1.9388 1.5875,2.2917 1.4097,2.2916 0.52917,1.2347 0.52776,1.2333 0.52916,1.2348 0.52917,1.2333 0.70556,2.8208 0.17638,1.4097 0.17639,1.4111 0.17639,1.4097 v 1.4111 121.2822 h 121.28075 l 2.82085,0.175 1.4111,0.1764 1.4097,0.1763 1.4097,0.3528 1.2347,0.3528 1.4097,0.5292 1.23475,0.3527 1.2333,0.7042 1.2347,0.5292 2.29165,1.4111 1.2333,0.8806 1.05835,0.7055 0.88055,0.8805 1.0583,1.0583 1.7625,1.9389 1.5861,2.1153 1.4111,2.468 0.70555,1.0583 0.52775,1.2334 0.5292,1.411 0.52915,1.2333 0.52915,2.6445 0.3514,1.4097 0.17635,1.4111 0.1764,1.4097 v 1.5861 58.173 1.5875 l -0.1764,1.4097 -0.17635,1.4112 -0.3514,1.4097 -0.1764,1.2333 -0.35275,1.4111 -0.52915,1.2333 -0.5292,1.4111 -0.52775,1.2333 -0.70555,1.2347 -1.4111,2.2917 -0.70415,1.0569 -0.88195,1.0583 -0.88195,1.057 -0.88055,0.8819 -1.93885,1.9389 -2.29165,1.5861 -2.29165,1.4111 -1.2347,0.5291 -1.2333,0.7042 -1.23475,0.3528 -1.4097,0.5291 -2.6444,0.7056 -1.4097,0.175 -1.4111,0.1763 -2.82085,0.1764 H 450.86817 v 121.2822 1.4111 l -0.17639,1.4098 -0.17639,1.4097 -0.17638,1.4111 -0.35278,1.4097 -0.35278,1.4111 -0.52917,1.2333 -0.52916,1.2347 -0.52776,1.2333 -0.52917,1.2333 -1.4097,2.2931 -0.88194,1.2333 -0.70556,1.0583 -1.05692,1.057 -0.88194,0.8819 -1.93887,1.7625 -2.11525,1.7625 -2.46804,1.4111 -1.23472,0.5277 -1.23331,0.5292 -1.23472,0.5291 -1.23331,0.5292 -2.82082,0.7042 -1.23331,0.1764 -1.41111,0.1763 -2.99579,0.1764 h -58.17305 l -2.9972,-0.1764 -1.41111,-0.1763 -1.4097,-0.1764 -1.23331,-0.3514 -1.41112,-0.3528 -1.23331,-0.5292 -1.41111,-0.5291 -1.23331,-0.5292 -1.23472,-0.5277 -2.29165,-1.4111 -1.05692,-0.8806 -1.05833,-0.8819 -1.05692,-0.882 -0.88195,-0.8805 -1.93886,-1.9389 -1.58609,-2.2916 -1.41111,-2.2931 -0.70415,-1.2333 -0.52917,-1.2333 -0.52916,-1.2347 -0.35278,-1.2333 -0.70556,-2.8208 -0.17497,-1.4111 -0.17639,-1.4097 -0.17639,-1.4097 v -1.4112 -121.2822 H 215.00236 l -2.9972,-0.1763 -1.4097,-0.1764 -1.23472,-0.175 -1.4097,-0.3528 -1.41111,-0.3528 -1.23331,-0.5291 -1.23473,-0.3528 -1.23331,-0.7042 -1.23331,-0.5291 -2.46803,-1.4111 -1.05833,-0.8806 -1.05693,-0.7055 -1.05833,-0.882 -0.88194,-1.0569 -1.76248,-1.9389 -1.76248,-2.1152 -1.41111,-2.2917 -0.52776,-1.2347 -0.52916,-1.2333 -0.52917,-1.4111 -0.52917,-1.2333 -0.70414,-2.6444 -0.17639,-1.4097 -0.17639,-1.4111 -0.17639,-1.4097 v -1.5875 -58.1731 -1.5861 l 0.17639,-1.4097 0.17639,-1.4111 0.17639,-1.4097 0.35278,-1.2347 0.35136,-1.4097 0.52917,-1.2333 0.52917,-1.4111 0.52916,-1.2333 0.52776,-1.0584 1.41111,-2.468 0.88053,-1.0569 0.88195,-1.0584 0.88194,-1.0569 0.88054,-0.8819 1.94027,-1.9389 2.11526,-1.5861 2.46803,-1.4111 1.23331,-0.5292 1.23331,-0.7041 1.23473,-0.3528 1.23331,-0.5291 2.82081,-0.7056 1.23472,-0.1764 1.4097,-0.1764 2.9972,-0.175 h 121.28218 v -121.2821 z"
         id="path11818"
         inkscape:connector-curvature="0" />
      <path
         style="fill:#ffffff;fill-opacity:1;fill-rule:nonzero;stroke:none"
         d="m 333.81651,-548.54473 v -1.4111 l 0.17638,-1.5861 0.17639,-1.5861 0.17639,-1.4111 0.35137,-1.4097 0.35278,-1.5861 0.52916,-1.4111 0.52917,-1.4097 0.70414,-1.4111 0.70556,-1.2332 1.41111,-2.4681 0.88053,-1.2333 0.88195,-1.2348 1.05692,-1.0583 1.05833,-1.0569 2.11526,-1.9389 2.29164,-1.7624 2.46804,-1.5876 1.4097,-0.7041 1.41111,-0.5291 1.4097,-0.5292 1.41111,-0.5292 2.8194,-0.7042 1.5875,-0.3527 1.58609,-0.1764 2.9972,-0.1764 0.17639,4.9361 -2.82081,0.1763 -1.23473,0.1765 -1.23331,0.1749 -2.46803,0.7056 -1.23472,0.3527 -1.05692,0.5293 -1.23473,0.5291 -1.05692,0.5277 -2.11525,1.2348 -1.93887,1.586 -1.94028,1.5861 -0.88053,0.882 -0.70556,0.8819 -0.88053,1.057 -0.52917,0.8819 -1.41111,2.2916 -0.52775,1.057 -0.52917,1.0583 -0.35278,1.2333 -0.52917,1.2347 -0.35277,1.2333 -0.17639,1.2348 -0.35137,1.2333 v 1.2347 l -0.17639,1.4097 v 1.2347 z"
         id="path11820"
         inkscape:connector-curvature="0" />
      <path
         style="fill:#ffffff;fill-opacity:1;fill-rule:nonzero;stroke:none"
         d="m 364.48983,-579.04163 h 58.17305 v 4.9361 h -58.17305 z"
         id="path11822"
         inkscape:connector-curvature="0" />
      <path
         style="fill:#ffffff;fill-opacity:1;fill-rule:nonzero;stroke:none"
         d="m 364.31344,-579.04163 h 0.17639 v 4.9361 z"
         id="path11824"
         inkscape:connector-curvature="0" />
      <path
         style="fill:#ffffff;fill-opacity:1;fill-rule:nonzero;stroke:none"
         d="m 422.83927,-579.04163 2.99579,0.1764 1.5875,0.1764 1.4097,0.3527 1.58609,0.3514 1.41111,0.3528 1.4097,0.5292 1.4097,0.5291 1.23472,0.5292 1.4097,0.7041 2.46804,1.5875 1.23472,0.8806 1.23331,0.8819 1.05833,0.8805 1.05693,1.0584 1.93886,2.1152 1.76389,2.4681 1.58609,2.468 0.70556,1.4097 0.52916,1.2347 0.70415,1.4097 0.35277,1.5861 0.70556,2.8208 0.35278,1.5875 0.17639,1.4097 0.17497,1.5861 v 1.5875 h -4.93465 v -1.2347 l -0.17639,-1.4097 -0.17639,-1.2347 -0.17639,-1.2333 -0.70555,-2.6445 -0.35278,-1.0583 -0.52917,-1.2333 -0.52775,-1.0583 -0.52917,-1.057 -1.23472,-2.1152 -1.4097,-2.1153 -1.76248,-1.7639 -0.88194,-0.8805 -0.88054,-0.7056 -1.05833,-0.8819 -0.88195,-0.7041 -2.29164,-1.2348 -1.05692,-0.5277 -1.05834,-0.5292 -1.23331,-0.5292 -1.23472,-0.3527 -1.23331,-0.3528 -1.05833,-0.3528 -1.4097,-0.175 -1.05834,-0.1764 -2.99579,-0.1763 z"
         id="path11826"
         inkscape:connector-curvature="0" />
      <path
         style="fill:#ffffff;fill-opacity:1;fill-rule:nonzero;stroke:none"
         d="m 422.66288,-579.04163 h 0.17639 l -0.35278,4.9361 h 0.17639 z"
         id="path11828"
         inkscape:connector-curvature="0" />
      <path
         style="fill:#ffffff;fill-opacity:1;fill-rule:nonzero;stroke:none"
         d="m 453.33479,-548.36833 h -4.93465 v 121.2822 h 4.93465 z"
         id="path11830"
         inkscape:connector-curvature="0" />
      <path
         style="fill:#ffffff;fill-opacity:1;fill-rule:nonzero;stroke:none"
         d="m 453.33479,-548.36833 h -4.93465 z"
         id="path11832"
         inkscape:connector-curvature="0" />
      <path
         style="fill:#ffffff;fill-opacity:1;fill-rule:nonzero;stroke:none"
         d="m 450.86817,-429.55413 v 4.9346 h 121.28075 v -4.9346 z"
         id="path11834"
         inkscape:connector-curvature="0" />
      <path
         style="fill:#ffffff;fill-opacity:1;fill-rule:nonzero;stroke:none"
         d="m 448.40014,-427.08613 v 2.4666 h 2.46803 v -4.9346 l 2.46662,2.468 z"
         id="path11836"
         inkscape:connector-curvature="0" />
      <path
         style="fill:#ffffff;fill-opacity:1;fill-rule:nonzero;stroke:none"
         d="m 572.32532,-429.55413 2.8208,0.1764 1.5861,0.1749 1.5875,0.1765 1.4097,0.3527 1.5861,0.5292 1.4111,0.3527 1.4097,0.5292 1.23475,0.7041 1.4097,0.7056 2.468,1.4097 1.23475,0.8819 1.2333,1.0584 1.05835,0.8805 1.0569,1.0583 1.93885,2.1153 1.7639,2.468 1.5861,2.4681 0.70555,1.2333 0.52775,1.4111 0.52915,1.4097 0.5292,1.4097 0.70555,2.8208 0.35135,1.5861 0.1764,1.5875 0.1764,1.5861 v 1.4111 l -5.11245,0.175 v -1.4097 -1.2333 l -0.175,-1.4112 -0.1764,-1.0569 -0.70555,-2.6444 -0.35275,-1.0583 -0.5292,-1.2333 -0.52915,-1.0584 -0.52775,-1.0569 -1.23475,-2.2916 -1.58605,-1.9403 -1.5861,-1.9389 -0.88195,-0.7041 -0.88195,-0.882 -1.0569,-0.7055 -0.88195,-0.7042 -2.29165,-1.4111 -1.05695,-0.5292 -1.0583,-0.5277 -1.2333,-0.3528 -1.23475,-0.3528 -1.2333,-0.3527 -1.23475,-0.3528 -1.2333,-0.1764 -1.2347,-0.1764 -2.8208,-0.1764 z"
         id="path11838"
         inkscape:connector-curvature="0" />
      <path
         style="fill:#ffffff;fill-opacity:1;fill-rule:nonzero;stroke:none"
         d="m 572.14892,-429.55413 h 0.1764 l -0.35275,4.9346 h 0.17635 z"
         id="path11840"
         inkscape:connector-curvature="0" />
      <path
         style="fill:#ffffff;fill-opacity:1;fill-rule:nonzero;stroke:none"
         d="m 597.88617,-398.88223 h 4.9361 v 58.173 h -4.9361 z"
         id="path11842"
         inkscape:connector-curvature="0" />
      <path
         style="fill:#ffffff;fill-opacity:1;fill-rule:nonzero;stroke:none"
         d="m 602.82227,-399.05723 v 0.175 h -4.9361 -0.17635 z"
         id="path11844"
         inkscape:connector-curvature="0" />
      <path
         style="fill:#ffffff;fill-opacity:1;fill-rule:nonzero;stroke:none"
         d="m 602.82227,-340.53283 v 1.4111 l -0.1764,1.5861 -0.1764,1.5861 -0.35135,1.4111 -0.3528,1.5861 -0.35275,1.4111 -0.5292,1.4097 -0.52915,1.4097 -0.52775,1.4111 -0.70555,1.4097 -1.5861,2.2917 -0.88195,1.2347 -0.88195,1.2333 -0.8805,1.0584 -1.05835,1.2333 -2.11525,1.9388 -2.46805,1.7625 -2.468,1.4111 -1.4097,0.7056 -1.23475,0.7041 -1.4097,0.5292 -1.5861,0.3528 -2.8208,0.8819 -1.4111,0.175 -1.5861,0.1764 -2.9972,0.1764 -0.35275,-4.9361 2.8208,-0.1764 h 1.2347 l 1.2333,-0.3514 2.46805,-0.7055 1.23475,-0.3528 1.2333,-0.3528 1.0583,-0.5291 1.05695,-0.5278 2.11525,-1.4111 2.11525,-1.4097 1.7639,-1.7625 0.88055,-0.7055 0.70555,-1.0584 0.88195,-1.0569 0.52775,-0.8819 1.4111,-2.1153 0.52775,-1.0569 0.52915,-1.2347 0.5292,-1.0569 0.35275,-1.2348 0.3528,-1.2333 0.1764,-1.2347 0.35275,-1.2333 0.175,-1.4111 v -1.2333 -1.4112 z"
         id="path11846"
         inkscape:connector-curvature="0" />
      <path
         style="fill:#ffffff;fill-opacity:1;fill-rule:nonzero;stroke:none"
         d="m 602.82227,-340.70923 v 0.1764 l -5.11245,-0.1764 h 0.17635 z"
         id="path11848"
         inkscape:connector-curvature="0" />
      <path
         style="fill:#ffffff;fill-opacity:1;fill-rule:nonzero;stroke:none"
         d="m 572.14892,-310.03583 v -4.9361 H 450.86817 v 4.9361 z"
         id="path11850"
         inkscape:connector-curvature="0" />
      <path
         style="fill:#ffffff;fill-opacity:1;fill-rule:nonzero;stroke:none"
         d="m 572.32532,-310.03583 h -0.88055 0.70415 v -4.9361 h -0.17635 z"
         id="path11852"
         inkscape:connector-curvature="0" />
      <path
         style="fill:#ffffff;fill-opacity:1;fill-rule:nonzero;stroke:none"
         d="m 448.40014,-312.50393 h 4.93465 v 121.2822 h -4.93465 z"
         id="path11854"
         inkscape:connector-curvature="0" />
      <path
         style="fill:#ffffff;fill-opacity:1;fill-rule:nonzero;stroke:none"
         d="m 450.86817,-314.97193 h -2.46803 v 2.468 h 4.93465 l -2.46662,2.4681 z"
         id="path11856"
         inkscape:connector-curvature="0" />
      <path
         style="fill:#ffffff;fill-opacity:1;fill-rule:nonzero;stroke:none"
         d="m 453.33479,-191.22173 v 1.5875 l -0.17497,1.5861 -0.17639,1.4097 -0.35278,1.5875 -0.35278,1.5861 -0.35278,1.4097 -0.35277,1.4111 -0.70415,1.4097 -0.52916,1.4097 -0.70556,1.2348 -1.58609,2.468 -0.88194,1.2333 -0.88195,1.2347 -0.88053,1.0569 -1.05833,1.0583 -2.11526,1.9389 -2.29164,1.7625 -2.64443,1.5875 -1.4097,0.7042 -1.23472,0.5291 -1.4097,0.5292 -1.4097,0.5291 -2.9972,0.7042 -1.4097,0.3527 -1.5875,0.1764 -2.99579,0.1764 -0.35278,-4.936 2.8194,-0.1764 1.23473,-0.1764 1.23331,-0.1764 2.64442,-0.7042 1.05833,-0.3527 1.23331,-0.5292 1.05834,-0.5291 1.05692,-0.3528 2.29164,-1.4097 1.94028,-1.4097 1.76248,-1.7639 0.88053,-0.8806 0.88195,-0.8819 0.70555,-1.0569 0.70415,-0.882 1.23472,-2.2916 0.52917,-1.0583 0.52775,-1.0569 0.52917,-1.2348 0.35278,-1.0569 0.35277,-1.2347 0.35278,-1.2334 0.17639,-1.4097 0.17639,-1.2347 0.17639,-1.2333 v -1.4111 z"
         id="path11858"
         inkscape:connector-curvature="0" />
      <path
         style="fill:#ffffff;fill-opacity:1;fill-rule:nonzero;stroke:none"
         d="m 453.33479,-191.22173 h -4.93465 z"
         id="path11860"
         inkscape:connector-curvature="0" />
      <path
         style="fill:#ffffff;fill-opacity:1;fill-rule:nonzero;stroke:none"
         d="m 364.48983,-165.48443 h 58.17305 v 4.9361 h -58.17305 z"
         id="path11862"
         inkscape:connector-curvature="0" />
      <path
         style="fill:#ffffff;fill-opacity:1;fill-rule:nonzero;stroke:none"
         d="m 422.83927,-160.54843 h -0.88194 0.70555 v -4.936 h -0.17639 z"
         id="path11864"
         inkscape:connector-curvature="0" />
      <path
         style="fill:#ffffff;fill-opacity:1;fill-rule:nonzero;stroke:none"
         d="m 364.31344,-160.54843 -2.9972,-0.1764 -1.58609,-0.1764 -1.5875,-0.3527 -1.4097,-0.1764 -1.4097,-0.5278 -1.41111,-0.5291 -1.4097,-0.5292 -1.41111,-0.5291 -1.4097,-0.7042 -2.46804,-1.4111 -1.23331,-1.0569 -1.05833,-0.882 -1.23331,-0.8819 -1.05833,-1.0569 -1.93887,-2.1153 -1.76248,-2.468 -1.41111,-2.2917 -0.70556,-1.4111 -0.70414,-1.4097 -0.52917,-1.4097 -0.52916,-1.4111 -0.70415,-2.8194 -0.17639,-1.5875 -0.17639,-1.5861 -0.17638,-1.5861 v -1.4111 l 4.93606,-0.1764 v 1.4112 l 0.17639,1.2333 v 1.2347 l 0.35137,1.2333 0.52916,2.6444 0.52917,1.0569 0.35278,1.2348 0.52917,1.0569 0.52775,1.0583 1.41111,2.1153 1.4097,2.1152 1.76248,1.7625 0.88194,0.882 0.88195,0.8819 0.88053,0.7041 1.05834,0.7056 2.11525,1.4097 1.05692,0.5292 1.23473,0.3527 1.05692,0.5292 1.23472,0.3528 1.23331,0.3527 1.23472,0.3514 1.23331,0.1764 1.23473,0.1764 2.82081,0.1764 z"
         id="path11866"
         inkscape:connector-curvature="0" />
      <path
         style="fill:#ffffff;fill-opacity:1;fill-rule:nonzero;stroke:none"
         d="m 364.48983,-160.54843 h 0.70414 -0.88053 l 0.17639,-4.936 z"
         id="path11868"
         inkscape:connector-curvature="0" />
      <path
         style="fill:#ffffff;fill-opacity:1;fill-rule:nonzero;stroke:none"
         d="m 333.64012,-191.22173 h 5.11245 v -121.2822 h -5.11245 z"
         id="path11870"
         inkscape:connector-curvature="0" />
      <path
         style="fill:#ffffff;fill-opacity:1;fill-rule:nonzero;stroke:none"
         d="m 333.81651,-191.04533 -0.17639,-1.7625 v 1.5861 h 5.11245 z"
         id="path11872"
         inkscape:connector-curvature="0" />
      <path
         style="fill:#ffffff;fill-opacity:1;fill-rule:nonzero;stroke:none"
         d="m 215.00236,-314.97193 h 121.28218 v 4.9361 H 215.00236 Z"
         id="path11874"
         inkscape:connector-curvature="0" />
      <path
         style="fill:#ffffff;fill-opacity:1;fill-rule:nonzero;stroke:none"
         d="m 338.75257,-312.50393 v -2.468 h -2.46803 v 4.9361 l -2.64442,-2.4681 z"
         id="path11876"
         inkscape:connector-curvature="0" />
      <path
         style="fill:#ffffff;fill-opacity:1;fill-rule:nonzero;stroke:none"
         d="m 214.82597,-310.03583 -2.9972,-0.1764 -1.58609,-0.1764 -1.41111,-0.175 -1.58609,-0.3528 -1.4097,-0.5291 -1.41111,-0.3528 -1.4097,-0.5292 -1.4097,-0.7041 -1.41111,-0.7056 -2.29164,-1.4111 -1.4097,-0.8805 -1.05834,-0.882 -1.05692,-1.0569 -1.05833,-1.0583 -1.93887,-2.1153 -1.76248,-2.2916 -1.5875,-2.4681 -0.70414,-1.4097 -0.52917,-1.4111 -0.52916,-1.4097 -0.52917,-1.4097 -0.70415,-2.8208 -0.35277,-1.5875 -0.17639,-1.5861 -0.17639,-1.5861 v -1.4111 l 4.93607,-0.1764 v 1.4112 l 0.17638,1.2333 0.17639,1.2347 0.17639,1.4097 0.70415,2.468 0.35277,1.2347 0.52917,1.057 0.52917,1.2347 0.35278,1.0569 1.4097,2.1153 1.4097,1.9388 1.76388,1.9403 0.88054,0.7042 0.88194,0.8819 1.05692,0.7056 0.88195,0.7041 2.29164,1.4111 1.05834,0.5278 1.05692,0.5291 1.23472,0.3528 1.23331,0.5292 1.05834,0.3528 1.23331,0.1763 1.4097,0.3514 h 1.05833 l 2.9972,0.1764 z"
         id="path11878"
         inkscape:connector-curvature="0" />
      <path
         style="fill:#ffffff;fill-opacity:1;fill-rule:nonzero;stroke:none"
         d="m 215.00236,-310.03583 h 0.70415 -0.88054 l 0.35278,-4.9361 h -0.17639 z"
         id="path11880"
         inkscape:connector-curvature="0" />
      <path
         style="fill:#ffffff;fill-opacity:1;fill-rule:nonzero;stroke:none"
         d="m 184.32904,-398.88223 h 4.93607 v 58.173 h -4.93607 z"
         id="path11882"
         inkscape:connector-curvature="0" />
      <path
         style="fill:#ffffff;fill-opacity:1;fill-rule:nonzero;stroke:none"
         d="m 184.32904,-340.53283 v -0.1764 h 4.93607 z"
         id="path11884"
         inkscape:connector-curvature="0" />
      <path
         style="fill:#ffffff;fill-opacity:1;fill-rule:nonzero;stroke:none"
         d="m 184.32904,-399.05723 v -1.4111 l 0.17639,-1.5861 0.17639,-1.5875 0.35277,-1.5861 0.17639,-1.4097 0.52776,-1.4111 0.52917,-1.4097 0.52916,-1.4097 0.52917,-1.4111 0.70414,-1.2333 1.41111,-2.468 1.05693,-1.2347 0.88194,-1.2333 0.88195,-1.0584 1.05692,-1.2333 2.11525,-1.7625 2.29165,-1.9402 2.64442,-1.4097 1.23472,-0.7056 1.4097,-0.7041 1.4097,-0.5293 1.5875,-0.3527 2.64442,-0.8819 1.58609,-0.1764 1.58609,-0.175 2.9972,-0.1764 0.17639,4.9346 -2.82081,0.1765 -1.23331,0.1763 -1.05833,0.1764 -2.64443,0.7055 -1.05692,0.3529 -1.23472,0.3527 -1.05692,0.5278 -1.05834,0.5292 -2.29164,1.4111 -1.93887,1.4097 -1.76248,1.7624 -0.88194,0.882 -0.88194,0.8805 -0.70415,1.0583 -0.70555,0.882 -1.4097,2.2917 -0.52917,1.0569 -0.35278,1.0583 -0.52917,1.2333 -0.52916,1.2347 -0.17639,1.2334 -0.35137,1.0583 -0.17639,1.4096 -0.17639,1.2348 -0.17638,1.2333 v 1.4097 z"
         id="path11886"
         inkscape:connector-curvature="0" />
      <path
         style="fill:#ffffff;fill-opacity:1;fill-rule:nonzero;stroke:none"
         d="m 184.32904,-398.88223 v -0.175 l 4.93607,0.175 z"
         id="path11888"
         inkscape:connector-curvature="0" />
      <path
         style="fill:#ffffff;fill-opacity:1;fill-rule:nonzero;stroke:none"
         d="m 215.00236,-429.55413 h 121.28218 v 4.9346 H 215.00236 Z"
         id="path11890"
         inkscape:connector-curvature="0" />
      <path
         style="fill:#ffffff;fill-opacity:1;fill-rule:nonzero;stroke:none"
         d="m 214.82597,-429.55413 h 0.17639 v 4.9346 z"
         id="path11892"
         inkscape:connector-curvature="0" />
      <path
         style="fill:#ffffff;fill-opacity:1;fill-rule:nonzero;stroke:none"
         d="m 333.81651,-548.36833 h 4.93606 v 121.2822 h -4.93606 z"
         id="path11894"
         inkscape:connector-curvature="0" />
      <path
         style="fill:#ffffff;fill-opacity:1;fill-rule:nonzero;stroke:none"
         d="m 336.28454,-424.61953 h 2.46803 v -2.4666 h -4.93606 l 2.46803,-2.468 z"
         id="path11896"
         inkscape:connector-curvature="0" />
      <path
         style="fill:#ffffff;fill-opacity:1;fill-rule:nonzero;stroke:none"
         d="m 333.81651,-548.36833 v -0.1764 l 4.93606,0.1764 z"
         id="path11898"
         inkscape:connector-curvature="0" />
      <g
         transform="translate(-16.810265,-560.43503)"
         id="g4361" />
    </g>
  </g>
</svg>
