<?xml version="1.0" encoding="UTF-8" standalone="no"?>
<!-- Created with Inkscape (http://www.inkscape.org/) -->

<svg
   xmlns:dc="http://purl.org/dc/elements/1.1/"
   xmlns:cc="http://creativecommons.org/ns#"
   xmlns:rdf="http://www.w3.org/1999/02/22-rdf-syntax-ns#"
   xmlns:svg="http://www.w3.org/2000/svg"
   xmlns="http://www.w3.org/2000/svg"
   xmlns:sodipodi="http://sodipodi.sourceforge.net/DTD/sodipodi-0.dtd"
   xmlns:inkscape="http://www.inkscape.org/namespaces/inkscape"
   width="800mm"
   height="800mm"
   viewBox="0 0 2834.6457 2834.6457"
   id="svg2"
   version="1.1"
   inkscape:version="0.91 r13725"
   sodipodi:docname="vida_tres.svg">
  <defs
     id="defs4">
    <clipPath
       id="clipPath4154"
       clipPathUnits="userSpaceOnUse">
      <path
         inkscape:connector-curvature="0"
         id="path4156"
         d="M 0,792 612,792 612,0 0,0 0,792 Z" />
    </clipPath>
    <clipPath
       id="clipPath4879"
       clipPathUnits="userSpaceOnUse">
      <path
         inkscape:connector-curvature="0"
         id="path4881"
         d="m 0,784.567 793.701,0 L 793.701,0 0,0 0,784.567 Z" />
    </clipPath>
    <clipPath
       id="clipPath5009"
       clipPathUnits="userSpaceOnUse">
      <path
         inkscape:connector-curvature="0"
         id="path5011"
         d="m -336.46,98.8652 672.92,0 0,-197.7314 -672.92,0 0,197.7314 z" />
    </clipPath>
    <clipPath
       id="clipPath9212"
       clipPathUnits="userSpaceOnUse">
      <path
         inkscape:connector-curvature="0"
         id="path9214"
         d="m 0,335 516.475,0 0,-335 L 0,0 0,335 Z" />
    </clipPath>
    <clipPath
       id="clipPath9340"
       clipPathUnits="userSpaceOnUse">
      <path
         inkscape:connector-curvature="0"
         id="path9342"
         d="m -336.46,98.8652 672.92,0 0,-197.7314 -672.92,0 0,197.7314 z" />
    </clipPath>
    <pattern
       y="0"
       x="0"
       height="6"
       width="6"
       patternUnits="userSpaceOnUse"
       id="EMFhbasepattern" />
  </defs>
  <sodipodi:namedview
     id="base"
     pagecolor="#ffffff"
     bordercolor="#666666"
     borderopacity="1.0"
     inkscape:pageopacity="0.0"
     inkscape:pageshadow="2"
     inkscape:zoom="0.28817175"
     inkscape:cx="1678.4525"
     inkscape:cy="1537.9385"
     inkscape:document-units="px"
     inkscape:current-layer="layer1"
     showgrid="false"
     inkscape:window-width="1920"
     inkscape:window-height="1138"
     inkscape:window-x="1358"
     inkscape:window-y="-8"
     inkscape:window-maximized="1"
     showguides="true"
     inkscape:guide-bbox="true">
    <sodipodi:guide
       position="1294.2161,1667.1258"
       orientation="0,1"
       id="guide11509" />
    <sodipodi:guide
       position="1369.773,1440.4552"
       orientation="0,1"
       id="guide11511" />
    <sodipodi:guide
       position="957.86614,1440.4552"
       orientation="1,0"
       id="guide11513" />
    <sodipodi:guide
       position="2790.7296,1355.149"
       orientation="1,0"
       id="guide11515" />
  </sodipodi:namedview>
  <metadata
     id="metadata7">
    <rdf:RDF>
      <cc:Work
         rdf:about="">
        <dc:format>image/svg+xml</dc:format>
        <dc:type
           rdf:resource="http://purl.org/dc/dcmitype/StillImage" />
        <dc:title></dc:title>
      </cc:Work>
    </rdf:RDF>
  </metadata>
  <g
     inkscape:label="Capa 1"
     inkscape:groupmode="layer"
     id="layer1"
     transform="translate(0,1782.2835)">
    <flowRoot
       xml:space="preserve"
       id="flowRoot4823"
       style="fill:black;stroke:none;stroke-opacity:1;stroke-width:1px;stroke-linejoin:miter;stroke-linecap:butt;fill-opacity:1;font-family:sans-serif;font-style:normal;font-weight:normal;font-size:40px;line-height:125%;letter-spacing:0px;word-spacing:0px"><flowRegion
         id="flowRegion4825"><rect
           id="rect4827"
           width="1321.4423"
           height="148.09267"
           x="497.43948"
           y="2621.9998" /></flowRegion><flowPara
         id="flowPara4829" /></flowRoot>    <flowRoot
       xml:space="preserve"
       id="flowRoot8594"
       style="fill:black;stroke:none;stroke-opacity:1;stroke-width:1px;stroke-linejoin:miter;stroke-linecap:butt;fill-opacity:1;font-family:sans-serif;font-style:normal;font-weight:normal;font-size:40px;line-height:125%;letter-spacing:0px;word-spacing:0px"><flowRegion
         id="flowRegion8596"><rect
           id="rect8598"
           width="617.56378"
           height="118.14263"
           x="-177.21394"
           y="2533.9189" /></flowRegion><flowPara
         id="flowPara8600" /></flowRoot>    <g
       id="g5230"
       transform="matrix(0.89723081,0,0,0.89723081,145.6366,5.861638)">
      <path
         d="m 1043.0153,-388.11807 -90.11089,-223.0628 55.20149,0 63.7999,165.09082 61.7363,-165.09082 53.9977,0 -90.2828,223.0628 -54.3417,0 z"
         style="font-style:normal;font-variant:normal;font-weight:bold;font-stretch:normal;font-size:180px;line-height:125%;font-family:Arial;-inkscape-font-specification:'Arial Bold';letter-spacing:0px;word-spacing:0px;fill:#0063ab;fill-opacity:1;stroke:none;stroke-width:1px;stroke-linecap:butt;stroke-linejoin:miter;stroke-opacity:1"
         id="path5162"
         inkscape:connector-curvature="0" />
      <path
         d="m 1212.4032,-388.11807 0,-223.0628 50.9023,0 0,223.0628 -50.9023,0 z"
         style="font-style:normal;font-variant:normal;font-weight:bold;font-stretch:normal;font-size:180px;line-height:125%;font-family:Arial;-inkscape-font-specification:'Arial Bold';letter-spacing:0px;word-spacing:0px;fill:#0063ab;fill-opacity:1;stroke:none;stroke-width:1px;stroke-linecap:butt;stroke-linejoin:miter;stroke-opacity:1"
         id="path5164"
         inkscape:connector-curvature="0" />
      <path
         d="m 1311.4564,-611.18087 93.0343,0 q 31.4701,0 47.9789,4.26042 22.1838,5.78197 38.0048,20.54124 15.8209,14.75927 24.0754,36.21347 8.2544,21.30205 8.2544,52.64648 0,27.54049 -7.7384,47.47311 -9.4583,24.34518 -26.999,39.40877 -13.2414,11.41181 -35.7692,17.80243 -16.8528,4.71688 -45.0555,4.71688 l -95.7857,0 0,-223.0628 z m 50.9023,37.73504 0,147.74486 38.0047,0 q 21.3239,0 30.7822,-2.1302 12.3818,-2.73883 20.4641,-9.28161 8.2545,-6.54276 13.4135,-21.45418 5.159,-15.0636 5.159,-40.93035 0,-25.86677 -5.159,-39.7131 -5.159,-13.84632 -14.4452,-21.60634 -9.2863,-7.76005 -23.5595,-10.49888 -10.6621,-2.1302 -41.7882,-2.1302 l -22.8716,0 z"
         style="font-style:normal;font-variant:normal;font-weight:bold;font-stretch:normal;font-size:180px;line-height:125%;font-family:Arial;-inkscape-font-specification:'Arial Bold';letter-spacing:0px;word-spacing:0px;fill:#0063ab;fill-opacity:1;stroke:none;stroke-width:1px;stroke-linecap:butt;stroke-linejoin:miter;stroke-opacity:1"
         id="path5166"
         inkscape:connector-curvature="0" />
      <path
         d="m 1793.4809,-388.11807 -55.3736,0 -22.0118,-50.66843 -100.7728,0 -20.8081,50.66843 -53.9977,0 98.1933,-223.0628 53.8258,0 100.9449,223.0628 z m -93.7223,-88.25132 -34.7373,-82.77364 -34.0497,82.77364 68.787,0 z"
         style="font-style:normal;font-variant:normal;font-weight:bold;font-stretch:normal;font-size:180px;line-height:125%;font-family:Arial;-inkscape-font-specification:'Arial Bold';letter-spacing:0px;word-spacing:0px;fill:#0063ab;fill-opacity:1;stroke:none;stroke-width:1px;stroke-linecap:butt;stroke-linejoin:miter;stroke-opacity:1"
         id="path5168"
         inkscape:connector-curvature="0" />
      <path
         d="m 1962.6968,-388.11807 0,-185.32776 -74.806,0 0,-37.73504 200.342,0 0,37.73504 -74.6337,0 0,185.32776 -50.9023,0 z"
         style="font-style:normal;font-variant:normal;font-weight:bold;font-stretch:normal;font-size:180px;line-height:125%;font-family:Arial;-inkscape-font-specification:'Arial Bold';letter-spacing:0px;word-spacing:0px;fill:#0063ab;fill-opacity:1;stroke:none;stroke-width:1px;stroke-linecap:butt;stroke-linejoin:miter;stroke-opacity:1"
         id="path5170"
         inkscape:connector-curvature="0" />
      <path
         d="m 2120.7346,-388.11807 0,-223.0628 107.1358,0 q 40.4123,0 58.6408,6.08629 18.4005,5.93415 29.4064,21.30205 11.006,15.36789 11.006,35.14837 0,25.10597 -16.6809,41.53898 -16.6808,16.28083 -49.8706,20.54124 16.5089,8.52083 27.1708,18.71537 10.8342,10.19455 29.0627,36.21347 l 30.7821,43.51703 -60.8765,0 -36.801,-48.53822 q -19.6042,-26.01893 -26.8268,-32.71386 -7.2227,-6.84709 -15.3052,-9.2816 -8.0825,-2.58668 -25.6231,-2.58668 l -10.318,0 0,93.12036 -50.9025,0 z m 50.9025,-128.72519 37.6608,0 q 36.629,0 45.7433,-2.73883 9.1142,-2.73885 14.2732,-9.43376 5.1592,-6.69493 5.1592,-16.73732 0,-11.25966 -6.8788,-18.10674 -6.7067,-6.99925 -19.0883,-8.82512 -6.1909,-0.7608 -37.145,-0.7608 l -39.7244,0 0,56.60257 z"
         style="font-style:normal;font-variant:normal;font-weight:bold;font-stretch:normal;font-size:180px;line-height:125%;font-family:Arial;-inkscape-font-specification:'Arial Bold';letter-spacing:0px;word-spacing:0px;fill:#0063ab;fill-opacity:1;stroke:none;stroke-width:1px;stroke-linecap:butt;stroke-linejoin:miter;stroke-opacity:1"
         id="path5172"
         inkscape:connector-curvature="0" />
      <path
         d="m 2375.0745,-388.11807 0,-223.0628 186.9285,0 0,37.73504 -136.0263,0 0,49.45117 126.568,0 0,37.58288 -126.568,0 0,60.71081 140.8413,0 0,37.5829 -191.7435,0 z"
         style="font-style:normal;font-variant:normal;font-weight:bold;font-stretch:normal;font-size:180px;line-height:125%;font-family:Arial;-inkscape-font-specification:'Arial Bold';letter-spacing:0px;word-spacing:0px;fill:#0063ab;fill-opacity:1;stroke:none;stroke-width:1px;stroke-linecap:butt;stroke-linejoin:miter;stroke-opacity:1"
         id="path5174"
         inkscape:connector-curvature="0" />
      <path
         d="m 2597.4283,-460.69717 49.5266,-4.26041 q 4.471,22.06283 18.0565,32.40953 13.7573,10.34672 36.973,10.34672 24.5913,0 36.9729,-9.12945 12.5537,-9.28161 12.5537,-21.60636 0,-7.91218 -5.3311,-13.38986 -5.159,-5.62982 -18.2286,-9.73808 -8.9422,-2.73883 -40.7561,-9.73807 -40.9283,-8.97728 -57.4371,-22.06283 -23.2155,-18.41104 -23.2155,-44.88643 0,-17.04164 10.8339,-31.80091 11.0059,-14.91142 31.4698,-22.67145 20.6362,-7.76004 49.6986,-7.76004 47.4632,0 71.3665,18.41106 24.0754,18.41104 25.2793,49.14684 l -50.9025,1.97805 q -3.2673,-17.19379 -14.1012,-24.6495 -10.662,-7.60787 -32.1578,-7.60787 -22.1838,0 -34.7374,8.06434 -8.0826,5.17335 -8.0826,13.84633 0,7.91218 7.5666,13.542 9.6302,7.1514 46.775,14.91143 37.145,7.76004 54.8576,16.12869 17.8847,8.2165 27.8587,22.67145 10.1462,14.3028 10.1462,35.45269 0,19.17184 -12.0378,35.90916 -12.0376,16.7373 -34.0495,24.95381 -22.0118,8.06434 -54.8575,8.06434 -47.807,0 -73.4301,-19.47615 -25.6231,-19.62831 -30.6101,-57.05903 z"
         style="font-style:normal;font-variant:normal;font-weight:bold;font-stretch:normal;font-size:180px;line-height:125%;font-family:Arial;-inkscape-font-specification:'Arial Bold';letter-spacing:0px;word-spacing:0px;fill:#0063ab;fill-opacity:1;stroke:none;stroke-width:1px;stroke-linecap:butt;stroke-linejoin:miter;stroke-opacity:1"
         id="path5176"
         inkscape:connector-curvature="0" />
      <g
         id="flowRoot11544"
         style="font-style:normal;font-weight:normal;font-size:40px;line-height:125%;font-family:sans-serif;letter-spacing:0px;word-spacing:0px;fill:#0063ab;fill-opacity:1;stroke:none;stroke-width:1px;stroke-linecap:butt;stroke-linejoin:miter;stroke-opacity:1"
         transform="matrix(1.8795333,0,0,1.4892726,-891.64547,-3169.7206)">
        <path
           id="path5135"
           style="font-size:90px;fill:#0063ab;fill-opacity:1"
           d="m 1175.0664,1956.042 q 0,3.8233 -1.8018,7.5586 -1.7578,3.7354 -4.9658,6.3281 -3.5156,2.8125 -8.2177,4.3946 -4.6582,1.582 -11.25,1.582 -7.0752,0 -12.7442,-1.3184 -5.625,-1.3183 -11.4697,-3.9111 l 0,-10.8984 0.6152,0 q 4.9658,4.1308 11.4697,6.372 6.504,2.2413 12.2168,2.2413 8.086,0 12.5684,-3.0323 4.5264,-3.0322 4.5264,-8.0859 0,-4.3506 -2.1533,-6.416 -2.1094,-2.0655 -6.46,-3.208 -3.2959,-0.8789 -7.1631,-1.4502 -3.8232,-0.5713 -8.1299,-1.4502 -8.7011,-1.8457 -12.9199,-6.2842 -4.1748,-4.4824 -4.1748,-11.6455 0,-8.2178 6.9434,-13.4473 6.9433,-5.2734 17.622,-5.2734 6.8994,0 12.6563,1.3183 5.7568,1.3184 10.1953,3.252 l 0,10.2832 -0.6152,0 q -3.7354,-3.1641 -9.8438,-5.2295 -6.0644,-2.1094 -12.4365,-2.1094 -6.9873,0 -11.25,2.9004 -4.2188,2.9004 -4.2188,7.4707 0,4.0869 2.1094,6.416 2.1094,2.3291 7.4268,3.5596 2.8125,0.6152 7.998,1.4942 5.1856,0.8789 8.7891,1.8017 7.2949,1.9336 10.9863,5.8447 3.6914,3.9112 3.6914,10.9424 z"
           inkscape:connector-curvature="0" />
        <path
           id="path5137"
           style="font-size:90px;fill:#0063ab;fill-opacity:1"
           d="m 1226.5264,1974.7188 -8.2178,0 0,-5.2295 q -1.0986,0.7471 -2.9883,2.1094 -1.8457,1.3183 -3.6035,2.1093 -2.0654,1.0108 -4.7461,1.67 -2.6807,0.7031 -6.2842,0.7031 -6.6357,0 -11.25,-4.3945 -4.6142,-4.3946 -4.6142,-11.2061 0,-5.5811 2.373,-9.0088 2.417,-3.4717 6.8555,-5.4492 4.4824,-1.9775 10.7666,-2.6807 6.2842,-0.7031 13.4912,-1.0547 l 0,-1.2744 q 0,-2.8125 -1.0107,-4.6582 -0.9668,-1.8457 -2.8125,-2.9004 -1.7579,-1.0107 -4.2188,-1.3623 -2.4609,-0.3515 -5.1416,-0.3515 -3.252,0 -7.251,0.8789 -3.999,0.8349 -8.2617,2.4609 l -0.4394,0 0,-8.3935 q 2.4169,-0.6592 6.9873,-1.4502 4.5703,-0.7911 9.0087,-0.7911 5.1856,0 9.0088,0.8789 3.8672,0.835 6.6797,2.9004 2.7686,2.0215 4.2188,5.2295 1.4502,3.208 1.4502,7.9541 l 0,33.3106 z m -8.2178,-12.085 0,-13.667 q -3.7793,0.2198 -8.9209,0.6592 -5.0977,0.4395 -8.0859,1.2744 -3.5596,1.0108 -5.7569,3.1641 -2.1972,2.1094 -2.1972,5.8447 0,4.2188 2.5488,6.3721 2.5488,2.1094 7.7783,2.1094 4.3506,0 7.9541,-1.67 3.6035,-1.7138 6.6797,-4.0869 z"
           inkscape:connector-curvature="0" />
        <path
           id="path5139"
           style="font-size:90px;fill:#0063ab;fill-opacity:1"
           d="m 1250.8721,1974.7188 -8.2617,0 0,-68.3789 8.2617,0 0,68.3789 z"
           inkscape:connector-curvature="0" />
        <path
           id="path5141"
           style="font-size:90px;fill:#0063ab;fill-opacity:1"
           d="m 1307.6494,1974.7188 -8.2617,0 0,-5.4492 q -4.1748,3.2959 -7.9981,5.0537 -3.8232,1.7578 -8.4375,1.7578 -7.7343,0 -12.041,-4.7022 -4.3066,-4.7461 -4.3066,-13.8867 l 0,-31.8603 8.2617,0 0,27.9492 q 0,3.7353 0.3516,6.416 0.3515,2.6367 1.4941,4.5264 1.1865,1.9336 3.0762,2.8125 1.8896,0.8789 5.4932,0.8789 3.208,0 6.9873,-1.6699 3.8232,-1.67 7.1191,-4.2627 l 0,-36.6504 8.2617,0 0,49.0869 z"
           inkscape:connector-curvature="0" />
        <path
           id="path5143"
           style="font-size:90px;fill:#0063ab;fill-opacity:1"
           d="m 1363.7236,1974.7188 -8.2617,0 0,-5.1416 q -3.5596,3.0762 -7.4267,4.79 -3.8672,1.7139 -8.3936,1.7139 -8.7891,0 -13.9746,-6.7676 -5.1416,-6.7676 -5.1416,-18.7646 0,-6.2403 1.7578,-11.1182 1.8018,-4.8779 4.834,-8.3057 2.9883,-3.3398 6.9433,-5.0976 3.9991,-1.7578 8.2618,-1.7578 3.8672,0 6.8554,0.8349 2.9883,0.791 6.2842,2.5049 l 0,-21.2695 8.2617,0 0,68.3789 z m -8.2617,-12.085 0,-28.1689 q -3.3398,-1.4942 -5.9765,-2.0655 -2.6368,-0.5712 -5.7569,-0.5712 -6.9433,0 -10.8105,4.8339 -3.8672,4.834 -3.8672,13.711 0,8.7451 2.9883,13.3154 2.9882,4.5264 9.58,4.5264 3.5157,0 7.1192,-1.5381 3.6035,-1.582 6.7236,-4.043 z"
           inkscape:connector-curvature="0" />
        <path
           id="path5145"
           style="font-size:90px;fill:#0063ab;fill-opacity:1"
           d="m 1449.7686,1974.7188 -8.2178,0 0,-5.2295 q -1.0987,0.7471 -2.9883,2.1094 -1.8457,1.3183 -3.6035,2.1093 -2.0654,1.0108 -4.7461,1.67 -2.6807,0.7031 -6.2842,0.7031 -6.6357,0 -11.25,-4.3945 -4.6142,-4.3946 -4.6142,-11.2061 0,-5.5811 2.373,-9.0088 2.417,-3.4717 6.8555,-5.4492 4.4824,-1.9775 10.7666,-2.6807 6.2842,-0.7031 13.4912,-1.0547 l 0,-1.2744 q 0,-2.8125 -1.0108,-4.6582 -0.9668,-1.8457 -2.8125,-2.9004 -1.7578,-1.0107 -4.2187,-1.3623 -2.4609,-0.3515 -5.1416,-0.3515 -3.252,0 -7.251,0.8789 -3.999,0.8349 -8.2617,2.4609 l -0.4395,0 0,-8.3935 q 2.417,-0.6592 6.9873,-1.4502 4.5704,-0.7911 9.0088,-0.7911 5.1856,0 9.0088,0.8789 3.8672,0.835 6.6797,2.9004 2.7686,2.0215 4.2188,5.2295 1.4502,3.208 1.4502,7.9541 l 0,33.3106 z m -8.2178,-12.085 0,-13.667 q -3.7793,0.2198 -8.9209,0.6592 -5.0977,0.4395 -8.086,1.2744 -3.5595,1.0108 -5.7568,3.1641 -2.1973,2.1094 -2.1973,5.8447 0,4.2188 2.5489,6.3721 2.5488,2.1094 7.7783,2.1094 4.3506,0 7.9541,-1.67 3.6035,-1.7138 6.6797,-4.0869 z"
           inkscape:connector-curvature="0" />
        <path
           id="path5147"
           style="font-size:90px;fill:#0063ab;fill-opacity:1"
           d="m 1522.8936,1974.2793 q -2.3291,0.6153 -5.0977,1.0108 -2.7246,0.3955 -4.8779,0.3955 -7.5147,0 -11.4258,-4.043 -3.9111,-4.043 -3.9111,-12.9639 l 0,-26.1035 -5.5811,0 0,-6.9433 5.5811,0 0,-14.1065 8.2617,0 0,14.1065 17.0508,0 0,6.9433 -17.0508,0 0,22.3682 q 0,3.8672 0.1758,6.0644 0.1757,2.1534 1.2304,4.043 0.9668,1.7578 2.6367,2.5928 1.7139,0.791 5.1856,0.791 2.0215,0 4.2187,-0.5713 2.1973,-0.6152 3.1641,-1.0107 l 0.4395,0 0,7.4267 z"
           inkscape:connector-curvature="0" />
        <path
           id="path5149"
           style="font-size:90px;fill:#0063ab;fill-opacity:1"
           d="m 1573.6064,1974.7188 -8.2617,0 0,-5.4492 q -4.1748,3.2959 -7.998,5.0537 -3.8233,1.7578 -8.4375,1.7578 -7.7344,0 -12.041,-4.7022 -4.3067,-4.7461 -4.3067,-13.8867 l 0,-31.8603 8.2617,0 0,27.9492 q 0,3.7353 0.3516,6.416 0.3516,2.6367 1.4941,4.5264 1.1866,1.9336 3.0762,2.8125 1.8897,0.8789 5.4932,0.8789 3.208,0 6.9873,-1.6699 3.8232,-1.67 7.1191,-4.2627 l 0,-36.6504 8.2617,0 0,49.0869 z"
           inkscape:connector-curvature="0" />
        <path
           id="path5151"
           style="font-size:90px;fill:#0063ab;fill-opacity:1"
           d="m 1672.0879,1974.7188 -10.7666,0 -31.0254,-58.5352 0,58.5352 -8.1299,0 0,-65.4346 13.4912,0 28.3008,53.4375 0,-53.4375 8.1299,0 0,65.4346 z"
           inkscape:connector-curvature="0" />
        <path
           id="path5153"
           style="font-size:90px;fill:#0063ab;fill-opacity:1"
           d="m 1697.708,1917.4141 -9.3164,0 0,-8.5693 9.3164,0 0,8.5693 z m -0.5273,57.3047 -8.2618,0 0,-49.0869 8.2618,0 0,49.0869 z"
           inkscape:connector-curvature="0" />
        <path
           id="path5155"
           style="font-size:90px;fill:#0063ab;fill-opacity:1"
           d="m 1755.7158,1925.6319 -19.8633,49.0869 -8.3056,0 -19.7315,-49.0869 8.9649,0 15.2051,39.0673 15.0732,-39.0673 8.6572,0 z"
           inkscape:connector-curvature="0" />
        <path
           id="path5157"
           style="font-size:90px;fill:#0063ab;fill-opacity:1"
           d="m 1807.6152,1951.0323 -36.167,0 q 0,4.5263 1.3623,7.9101 1.3624,3.3399 3.7354,5.4932 2.2852,2.1094 5.4053,3.164 3.164,1.0547 6.9433,1.0547 5.0098,0 10.0635,-1.9775 5.0977,-2.0215 7.251,-3.9551 l 0.4394,0 0,9.0088 q -4.1748,1.7578 -8.5254,2.9443 -4.3505,1.1866 -9.1406,1.1866 -12.2168,0 -19.0722,-6.5918 -6.8555,-6.6358 -6.8555,-18.8086 0,-12.041 6.5478,-19.1162 6.5918,-7.0752 17.3145,-7.0752 9.9316,0 15.293,5.8007 5.4052,5.8008 5.4052,16.4795 l 0,4.4825 z m -8.042,-6.3282 q -0.044,-6.5039 -3.2959,-10.0634 -3.208,-3.5596 -9.7998,-3.5596 -6.6357,0 -10.5908,3.9111 -3.9111,3.9112 -4.4385,9.7119 l 28.125,0 z"
           inkscape:connector-curvature="0" />
        <path
           id="path5159"
           style="font-size:90px;fill:#0063ab;fill-opacity:1"
           d="m 1828.4893,1974.7188 -8.2618,0 0,-68.3789 8.2618,0 0,68.3789 z"
           inkscape:connector-curvature="0" />
      </g>
      <g
         transform="matrix(1.1857948,0,0,1.1857948,-615.7381,-498.96049)"
         id="g11601">
        <path
           inkscape:connector-curvature="0"
           id="path11572"
           d="m 824.5367,-124.33344 118.96566,0 0,117.7004071 -118.96566,0 0,-117.7004071 z"
           style="fill:#0063ab;fill-opacity:1;fill-rule:nonzero;stroke:none" />
        <path
           inkscape:connector-curvature="0"
           id="path11574"
           d="m 685.32251,-124.33344 117.6993,0 0,117.7004071 -117.6993,0 0,-117.7004071 z"
           style="fill:#009564;fill-opacity:1;fill-rule:nonzero;stroke:none" />
        <path
           inkscape:connector-curvature="0"
           id="path11576"
           d="m 968.81434,-124.33344 118.96566,0 0,140.480483 140.4806,0 0,118.965767 -140.4806,0 0,139.21513 -118.96566,0 0,-139.21513 -139.21523,0 0,-118.965767 139.21523,0 0,-140.480483 z"
           style="fill:#e20a16;fill-opacity:1;fill-rule:nonzero;stroke:none" />
        <path
           inkscape:connector-curvature="0"
           id="path11578"
           d="m 824.5367,156.62789 118.96566,0 0,117.70005 -118.96566,0 0,-117.70005 z"
           style="fill:#0063ab;fill-opacity:1;fill-rule:nonzero;stroke:none" />
        <path
           inkscape:connector-curvature="0"
           id="path11580"
           d="m 685.32251,156.62789 117.6993,0 0,117.70005 -117.6993,0 0,-117.70005 z"
           style="fill:#009564;fill-opacity:1;fill-rule:nonzero;stroke:none" />
        <path
           inkscape:connector-curvature="0"
           id="path11582"
           d="m 685.32251,13.615605 117.6993,0 0,117.700055 -117.6993,0 0,-117.700055 z"
           style="fill:#0063ab;fill-opacity:1;fill-rule:nonzero;stroke:none" />
        <path
           inkscape:connector-curvature="0"
           id="path11584"
           d="m 546.10724,13.615605 118.9657,0 0,117.700055 -118.9657,0 0,-117.700055 z"
           style="fill:#009564;fill-opacity:1;fill-rule:nonzero;stroke:none" />
      </g>
    </g>
    <rect
       style="opacity:1;fill:none;fill-opacity:1;stroke:#0056ca;stroke-width:9.95265865;stroke-miterlimit:4;stroke-dasharray:none;stroke-opacity:1"
       id="rect5186"
       width="2824.2664"
       height="2824.3989"
       x="5.1844354"
       y="-1776.9818" />
  </g>
</svg>
